<svg id="Layer_1" data-name="Layer 1" xmlns="http://www.w3.org/2000/svg" viewBox="0 0 1280 600"><defs><style>.cls-1{fill:#111319;}</style></defs><title>10F_Logo</title><path class="cls-1" d="M627.92,499.86H597.31c-6.54,0-9.58,3.09-9.58,9.72s3,9.71,9.58,9.71h30.61c6.54,0,9.58-3.08,9.58-9.71S634.46,499.86,627.92,499.86Z"/><path class="cls-1" d="M368.73,535.45a8.16,8.16,0,0,0-8,6.4c-1,3.83-2.14,4.19-7.08,4.19h-6.41c-2.75,0-4.51-.43-5.41-1.32-1.24-1.24-1.23-3.84-1.23-7.46V504.12H360c8.56,0,10.36-4.36,10.36-8s-1.8-8-10.36-8H340.64V477c0-6.88-2.7-10.37-8-10.37s-8,3.49-8,10.37v11.08h-2.32c-8.57,0-10.36,4.36-10.36,8s1.79,8,10.36,8h2.32v33.4c0,6.49,0,12.1,5,17.71,4.29,4.66,9.84,6.84,17.5,6.84h6.4c6.62,0,13.45-.85,18.6-7,2.35-2.78,4.72-7.66,4.72-11.58A8.08,8.08,0,0,0,368.73,535.45Z"/><path class="cls-1" d="M456.89,497.11l-5.09-4.05c-5.2-4.22-8.44-5-15-5H425.33c-5.57,0-8.76.25-15,5.65l-4.45,3.79c-5.71,4.86-6.75,9.32-6.75,16.37v24.2c0,7.19,1.5,10.51,7,15.43l5.37,4.72c4.41,3.82,7.08,3.82,12.38,3.82h29.83c8.56,0,10.36-4.36,10.36-8s-1.8-8-10.36-8h-27c-3.95,0-5.88-.49-7.1-1.79l-3.19-3.46a4.64,4.64,0,0,1-1.32-2.43v-2.45h38.56c8.87,0,10.36-3.41,10.36-11V514.81C464.08,508.25,463.54,502.39,456.89,497.11Zm-41.73,15.61c0-2.93.6-3.38,1.91-4.35l4.27-3.12c1.65-1.13,3.16-1.13,5.43-1.13h10.6c1.79,0,3.77.13,4.88,1.15l4.8,4.15c.93.86,1,1.82,1,4.13v6.33h-32.9Z"/><path class="cls-1" d="M548,493.09c-4.23-3.64-7.69-5-12.77-5H525.9c-4.44,0-8.27,2.21-11.8,4.47l-7.55,4.94c-.28-6.24-3-9.41-8-9.41-8,0-8,7.73-8,11V551.7c0,6.88,2.69,10.37,8,10.37s8-3.49,8-10.37V516.16l17.74-11.11a5.77,5.77,0,0,1,3-.93h4.18c6,0,6.52,1.37,6.77,9l1.31,38.72c.22,6.75,2.91,10.18,8,10.18a7.28,7.28,0,0,0,5.46-2.08c2.33-2.41,2.5-6.36,2.42-9.13l-1.36-41C553.93,503.53,553.75,498.07,548,493.09Z"/><path class="cls-1" d="M717.61,462.19h-8.5c-7.9,0-14,.49-20.57,6.77-6.07,5.93-6.54,11.67-6.54,19.13h-1.8c-8.57,0-10.37,4.36-10.37,8s1.8,8,10.37,8H682V551.7c0,6.88,2.69,10.37,8,10.37s8-3.49,8-10.37V504.12h9.39c8.57,0,10.37-4.36,10.37-8s-1.8-8-10.37-8H698v-.75c0-7.86,2.45-9.12,10.3-9.12h9.81c6.88,0,10.37-2.7,10.37-8C728.5,462.19,720.87,462.19,717.61,462.19Z"/><path class="cls-1" d="M796.83,495.55c-6.24-5.17-9.4-7.46-18.9-7.46H768c-9.5,0-12.66,2.29-18.88,7.46-6.47,5.25-8.62,8.55-8.62,17.69v23.68c0,8.85,2.42,12.46,9.25,18.2s9.86,7,18.25,7h9.94c8.4,0,11.3-1.11,18.26-7s9.25-9.34,9.25-18.2V513.24C805.44,504.1,803.29,500.8,796.83,495.55Zm-7.42,17.69v23.68c0,1.85-.39,3.07-4,6.14-2.57,2.2-4.1,3-7.51,3H768c-3.41,0-4.93-.78-7.5-3-3.58-3.07-4-4.29-4-6.14V513.24c0-1.92.56-3.2,4-6.14,2.56-2.2,4.09-3,7.5-3h9.94c3.42,0,4.94.78,7.51,3C788.86,510,789.41,511.32,789.41,513.24Z"/><path class="cls-1" d="M877.39,488.09H867.32c-4.52,0-8.54,2.77-12.22,5.77l-7,5.76V498.2c0-6.52-2.85-10.11-8-10.11-8,0-8,7.73-8,11V551.7c0,6.88,2.7,10.37,8,10.37s8-3.49,8-10.37v-31l16.89-14c2.15-1.77,3.48-2.61,5.18-2.61h3.66c2.64,0,5.12,0,6.18,1.5s1,2.48,1,4.48c0,5.83,3.12,9.45,8.14,9.45,5.23,0,7.88-3.53,7.88-10.49,0-6.55-1.83-11.19-6.13-15.49A18.27,18.27,0,0,0,877.39,488.09Z"/><path class="cls-1" d="M983.57,488.09c-7.69,0-7.94,8.06-8,10.7L974.26,531l-2.63,7.79L967,530.82v-11c0-7-2.7-10.49-8-10.49s-8,3.53-8,10.49v11l-4.64,7.95L943.69,531l-1.3-32.19c-.08-2.65-.33-10.7-8-10.7a7.3,7.3,0,0,0-5.49,2.09c-2.31,2.38-2.47,6.12-2.39,8.74l1.31,34.93,6.24,19.07q.26.74.48,1.47c1.09,3.42,2.44,7.68,7.57,7.68h4.84c3,0,5.12-2.58,6.67-4.83l5.36-8,5.38,8.07c1.55,2.23,3.71,4.8,6.66,4.8h4.84c5.13,0,6.48-4.26,7.58-7.72.15-.48.3-1,.47-1.45l6.15-18.58,1.4-35.41c.07-2.61-.09-6.35-2.39-8.73A7.3,7.3,0,0,0,983.57,488.09Z"/><path class="cls-1" d="M1079,494.23h0c-5.67-5.68-11.26-6.14-17.45-6.14H1044.3c-8.57,0-10.37,4.36-10.37,8s1.8,8,10.37,8h15.56c8.34,0,9.39,1,9.39,9.25v1.15H1044c-4.92,0-10.64.61-15.81,5.14-4.9,4.37-6.73,8.51-6.73,15.3v5.49c0,6.52,1.22,11.86,7.17,16.77,4.89,4,9.34,4.85,15.37,4.85h12c4.4,0,4.79-.1,8.51-2l6.52-3.37a7.82,7.82,0,0,0,1.75,2.79,8.46,8.46,0,0,0,6,2.6,7.11,7.11,0,0,0,5.25-2.14,9.53,9.53,0,0,0,2.37-7l-1.31-42.62C1085,503.28,1084.07,499.29,1079,494.23Zm-9.11,43.61v1.68L1057.35,546H1043.9c-1.06,0-6.37-.16-6.37-3.36V534.3c0-3.27,4.16-3.76,6.64-3.76h18.57C1068.7,530.54,1069.9,531.77,1069.9,537.84Z"/><path class="cls-1" d="M1161.29,488.09h-10.07c-4.53,0-8.55,2.77-12.23,5.77l-7,5.76V498.2c0-6.52-2.84-10.11-8-10.11-8,0-8,7.73-8,11V551.7c0,6.88,2.7,10.37,8,10.37s8-3.49,8-10.37v-31l16.9-14c2.15-1.77,3.47-2.61,5.17-2.61h3.67c2.63,0,5.12,0,6.17,1.5s1,2.48,1,4.48c0,5.83,3.12,9.45,8.14,9.45,5.23,0,7.88-3.53,7.88-10.49,0-6.55-1.83-11.19-6.13-15.49A18.25,18.25,0,0,0,1161.29,488.09Z"/><path class="cls-1" d="M1258.36,462.19c-5.32,0-8,3.49-8,10.37v22.12c-4.12-4-7.95-6.59-12.78-6.59h-11.12c-5.71,0-8.91,1.18-13.16,4.86l-4.32,3.67c-5.71,4.85-7.54,8.7-7.54,15.84V537.7c0,7.14,1.83,11,7.55,15.85l4.3,3.65c1.58,1.36,6.79,4.87,11.86,4.87h12.16c4.85,0,9.88-3.76,13.26-6.92l0,0c.82,4.5,3.55,7,7.76,7,5.31,0,8-3.53,8-10.5v-79C1266.37,465.68,1263.67,462.19,1258.36,462.19Zm-8,55V533c0,1.55-1.41,2.76-3,4.17l-7.22,6.17c-2.24,2-4.09,2.7-5,2.7h-8.89c-1.11,0-2.75-1.37-3.63-2.11l-3.79-3c-1.31-1-1.31-5.52-1.31-8.2v-15.3c0-2.67,0-7.15,1.3-8.19l3.82-3h0c.87-.72,2.49-2.08,3.6-2.08h8.89c.9,0,2.76.71,5,2.72l7.2,6.16C1248.93,514.4,1250.34,515.61,1250.34,517.17Z"/><path class="cls-1" d="M424.05,15.06l-.5.18Z"/><path class="cls-1" d="M390.83,54.18l-.42.15Z"/><path class="cls-1" d="M426.06,14.58h0Z"/><path class="cls-1" d="M444.89,74.18a11,11,0,0,0,1.16-1A11,11,0,0,1,444.89,74.18Z"/><path class="cls-1" d="M434.63,76.5c-.29,0-.58,0-.87-.11C434.06,76.45,434.34,76.46,434.63,76.5Z"/><path class="cls-1" d="M436.42,76.66c.12,0,.24,0,.35,0,.49,0,1,0,1.45-.08A15.35,15.35,0,0,1,436.42,76.66Z"/><path class="cls-1" d="M385,55.32h0Z"/><path class="cls-1" d="M387.63,55.1c-.18,0-.35.07-.53.09C387.28,55.17,387.45,55.13,387.63,55.1Z"/><path class="cls-1" d="M382.82,55.12l-.66-.12Z"/><path class="cls-1" d="M389.37,54.69l-.55.15Z"/><path class="cls-1" d="M428.72,14.42c-.13,0-.28,0-.4,0l-.29,0Z"/><path class="cls-1" d="M431.17,14.71l-.75-.13Z"/><path class="cls-1" d="M422,15.85l.42-.17Z"/><path class="cls-1" d="M440.45,76.24a16.7,16.7,0,0,1-2,.37A16.7,16.7,0,0,0,440.45,76.24Z"/><path class="cls-1" d="M442.48,75.55c-.48.2-1,.38-1.5.54Q441.76,75.85,442.48,75.55Z"/><path class="cls-1" d="M444.58,74.42a11.83,11.83,0,0,1-1.67,1A11.83,11.83,0,0,0,444.58,74.42Z"/><path class="cls-1" d="M447.51,71.34a9.37,9.37,0,0,1-1.11,1.48A8.8,8.8,0,0,0,447.51,71.34Z"/><path class="cls-1" d="M426,183.16c-6.46-6.92-2.77-31.34-1.37-40.5s3-19.78-7.9-23.37c-11.17-3.65-16.44,6.4-21.82,16.69L154.59,560.42c-13.81,20.8,17.18,38.57,30.11,17.46,36.92-57.19,88.42-141.29,139.6-193.74,1.06-1.09,2.14-2.11,3.23-3.13a211.72,211.72,0,0,1,29-22,108.61,108.61,0,0,1,15.11-7.8c2.56-1.06,5-2,7.44-2.74,59.69-19.82,76.59,33.69,80.49,61,1.47,10.5,13.87,14.65,21,8.57,2.46-2.11,4.78-5.41,5.8-11.14C502.41,318.52,482.11,243.23,426,183.16Z"/><path class="cls-1" d="M378.79,55.86a18.07,18.07,0,0,0,6.38,1.23,17.26,17.26,0,0,0,7.66-1.88l25.09-11.75L422.17,67a13,13,0,0,0,8.27,10.27,17.78,17.78,0,0,0,6.33,1.17c5.33,0,10-2.38,12.26-6.23a11.29,11.29,0,0,0,1.14-8L443,24.42a12.55,12.55,0,0,0-8.6-10.56,15.59,15.59,0,0,0-6.05-1.24,18.28,18.28,0,0,0-8.2,2.17l-41.5,19.43c-1.78.85-4.91,2.36-6.79,5.56-2.37,4.09-1.53,9.13,2.13,12.85A14.63,14.63,0,0,0,378.79,55.86Zm6.23-.54h0ZM382.16,55l.66.12Zm4.94.19c.18,0,.35-.06.53-.09C387.45,55.13,387.28,55.17,387.1,55.19Zm1.72-.35.55-.15Zm1.59-.51.42-.15Zm33.14-39.09.5-.18Zm2.38-.65h0Zm7.83,61.8c.29.06.58.07.87.11C434.34,76.46,434.06,76.45,433.76,76.39Zm2.66.27a15.35,15.35,0,0,0,1.8,0c-.48,0-1,.08-1.45.08C436.66,76.7,436.54,76.67,436.42,76.66Zm8.47-2.48a11,11,0,0,0,1.16-1A11,11,0,0,1,444.89,74.18Zm-6.48,2.43a16.7,16.7,0,0,0,2-.37A16.7,16.7,0,0,1,438.41,76.61Zm2.57-.52c.51-.16,1-.34,1.5-.54Q441.76,75.85,441,76.09Zm1.93-.72a11.83,11.83,0,0,0,1.67-1A11.83,11.83,0,0,1,442.91,75.37Zm3.49-2.55a9.37,9.37,0,0,0,1.11-1.48A8.8,8.8,0,0,1,446.4,72.82Zm-16-58.24.75.13Zm-1.7-.16-.69,0,.29,0C428.44,14.38,428.59,14.41,428.72,14.42Zm-6.32,1.26-.42.17Z"/><path class="cls-1" d="M348.23,144.26l.1-.14c4.35-6.27,1.46-15.12-5.55-18.12a237.33,237.33,0,0,0-57.56-16.47c-1.52-.25-3-.47-4.54-.68-.43-.07-.86-.14-1.28-.18a246.74,246.74,0,0,0-27.21-1.52c-122.07,0-222.83,91.2-237.82,209.19C4.09,402.71,100.22,537.89,348.23,144.26Z"/></svg>