<svg width="701" height="704" viewBox="0 0 701 704" fill="none" xmlns="http://www.w3.org/2000/svg">
<path fill-rule="evenodd" clip-rule="evenodd" d="M388.056 424.405C380.66 425.975 374.031 425.677 371.46 423.972C365.014 419.699 373.324 393.582 382.333 385.27C391.341 376.958 421.033 382.253 415.453 402.967C413.516 410.157 408.401 415.401 402.277 419.005L397.49 458.099L374.81 450.25L388.056 424.405Z" fill="#B28B67"/>
<path fill-rule="evenodd" clip-rule="evenodd" d="M402.773 424.228C410.002 412.549 421.099 406.723 421.82 400.634C422.54 394.545 417.654 391.309 417.654 391.309C417.654 391.309 418.764 379.127 403.065 375.57C387.366 372.013 375.965 375.099 375.169 390.294C378.832 391.562 383.712 391.767 389.042 396.153C391.579 398.241 390.886 404.294 390.886 404.294L393.65 405.251C393.65 405.251 399.981 399.974 403.28 403.095C406.578 406.216 402.085 412.298 402.085 412.298L399.833 423.21L402.773 424.228Z" fill="#191847"/>
<path d="M171.035 655.008L153.167 657.097C141.751 658.431 132.351 666.685 129.551 677.832C126.802 688.783 130.984 700.306 140.117 706.943L147.498 712.307C156.436 718.803 163.467 727.578 167.858 737.717L170.752 744.4C181.057 768.194 205.706 782.456 231.471 779.531L245.31 777.96C266.948 775.504 288.56 782.792 304.292 797.851C328.385 820.91 365.007 824.81 393.417 807.343L415.156 793.975C425.279 787.75 436.929 784.455 448.811 784.455C477.06 784.455 497.573 757.588 490.13 730.337L475.042 675.094C472.328 665.156 474.434 654.52 480.732 646.367L483.538 642.734C502.556 618.113 492.094 582.105 462.844 571.507C443.965 557.728 418.094 558.72 400.326 573.906L390.539 582.271C382.482 589.157 372.231 592.94 361.632 592.94H311.405C298.924 592.94 286.495 594.532 274.417 597.677L254.618 602.831C236.203 607.626 219.882 618.36 208.186 633.37L207.172 634.672C198.333 646.014 185.317 653.339 171.035 655.008Z" fill="#DDE3E9" fill-opacity="0.4" stroke="#DDE3E9" stroke-opacity="0.4"/>
<path fill-rule="evenodd" clip-rule="evenodd" d="M204.487 681.131C227.177 659.836 242.733 643.881 251.155 633.268C265.576 615.096 277.565 598.816 281.501 592.512C290.889 577.48 267.829 566.825 261.405 573.567C251.681 583.772 229.412 616.979 194.598 673.19L204.487 681.131Z" fill="#B28B67"/>
<path fill-rule="evenodd" clip-rule="evenodd" d="M210.763 677.201C211.887 676.874 213.087 677.513 213.339 678.657C213.799 680.742 214.375 683.854 214.153 685.537C213.8 688.218 212.229 693.246 212.229 693.246C209.118 692.836 156.31 685.882 156.31 685.882C156.31 685.882 155.079 678.389 159.851 678.433C164.623 678.477 167.79 678.423 167.79 678.423L195.306 670.259C195.847 670.098 196.412 670.416 196.557 670.96L197.694 675.233C197.694 675.233 201.775 677.834 204.493 678.192C206.147 678.409 208.879 677.75 210.763 677.201Z" fill="#191847"/>
<path fill-rule="evenodd" clip-rule="evenodd" d="M245.456 679.466L293.893 592.684C303.872 577.015 267.743 561.094 261.002 568.11C245.697 584.038 205.68 649.551 201.12 654.296L245.456 679.466Z" fill="#2F3676"/>
<path fill-rule="evenodd" clip-rule="evenodd" d="M344.763 673.86C339.037 662.59 317.841 624.419 305.697 608.181C302.207 603.515 298.793 599.028 295.557 594.84C285.938 582.39 261.467 597.964 271.195 609.431C295.421 637.989 331.126 676.936 334.084 680.379C338.231 685.204 348.361 680.943 344.763 673.86Z" fill="#B28B67"/>
<path fill-rule="evenodd" clip-rule="evenodd" d="M340.732 669C341.542 668.154 342.901 668.108 343.691 668.972C345.132 670.548 347.186 672.956 347.836 674.524C348.871 677.023 350.024 682.162 350.024 682.162C347.125 683.363 297.915 703.744 297.915 703.744C297.915 703.744 293.102 697.871 297.257 695.523C301.411 693.175 304.127 691.544 304.127 691.544L323.875 670.716C324.263 670.307 324.911 670.299 325.309 670.698L328.43 673.829C328.43 673.829 333.264 674.042 335.797 672.993C337.339 672.354 339.375 670.417 340.732 669Z" fill="#101030"/>
<path fill-rule="evenodd" clip-rule="evenodd" d="M306.381 598.981C306.381 598.981 352.707 597.565 368.468 596.877C398.418 595.57 409.028 580.943 408.507 545.912L354.577 538.81C343.464 540.492 260.08 565.269 260.08 565.269C250.016 568.715 249.955 582.773 251.082 587.556C251.151 587.848 288.076 675.711 288.076 675.711L335.895 653.416L305.862 602.282C305.862 602.282 304.81 599.21 306.381 598.981Z" fill="#5C63AB"/>
<path fill-rule="evenodd" clip-rule="evenodd" d="M278.131 539.166L312.814 520.107L317.529 538.31L284.502 547.172C274.275 556.41 268.751 560.095 267.931 558.227C267.239 556.652 268.109 555.378 268.911 554.204C269.536 553.29 270.119 552.437 269.89 551.55C269.365 549.524 263.389 548.943 257.694 548.635C251.999 548.326 253.972 546.034 255.495 544.974C261.703 542.287 269.249 540.351 278.131 539.166ZM438.592 601.925C436.463 595.648 434.134 536.898 434.134 536.898L413.404 534.252C413.404 534.252 424.436 598.724 425.467 602.716C426.805 607.901 422.488 614.611 419.561 619.16C419.108 619.864 418.689 620.516 418.328 621.103C421.316 622.942 423.068 621.425 424.914 619.826C427 618.021 429.207 616.11 433.454 618.81C435.095 619.854 436.622 621.033 438.114 622.185C443.269 626.164 448.004 629.82 455.546 626.435C456.742 625.898 458.292 623.488 455.629 621.095C448.992 615.132 439.633 604.994 438.592 601.925Z" fill="#B28B67"/>
<path fill-rule="evenodd" clip-rule="evenodd" d="M386.703 442.208L378.323 439.608C342.896 462.898 322.88 513.966 280.208 536.796L288.061 549.665C356.803 550.197 382.047 488.015 386.703 442.208Z" fill="#E87613"/>
<path fill-rule="evenodd" clip-rule="evenodd" d="M409.888 554.867C409.888 554.867 358.326 548.077 334.031 544.878C330.565 544.421 331.877 539.502 332.711 537.043C342.332 508.655 369.044 480.207 374.508 438.714L396.841 438.165C411.106 469.655 412.645 506.316 409.888 554.867Z" fill="#DDE3E9"/>
<path fill-rule="evenodd" clip-rule="evenodd" d="M415.676 576.81C418.007 585.447 420.409 593.032 422.837 598.935L439.105 601.077C448.308 544.714 432.616 498.347 418.142 469.729C422.161 469.968 425.974 468.776 428.786 464.976C438.683 451.598 436.841 443.273 428.638 439.536C424.128 437.481 419.579 437.879 414.133 438.356C409.677 438.746 404.621 439.188 398.494 438.382C398.492 438.382 398.49 438.382 398.488 438.382C397.895 438.303 397.349 438.272 396.848 438.283L389.534 437.742C389.534 437.742 346.898 533.768 355.718 568.915L415.676 576.81Z" fill="#FF9B21"/>
<path fill-rule="evenodd" clip-rule="evenodd" d="M415.676 576.81C412.618 565.478 409.682 552.335 406.973 538.803C403.452 552.848 398.829 566.812 393.266 573.859L415.676 576.81Z" fill="black" fill-opacity="0.1"/>
<path d="M577.108 434.205C577.61 431.673 576.13 429.015 573.803 428.268C571.477 427.52 569.184 428.967 568.682 431.499C568.18 434.031 569.66 436.689 571.987 437.436C574.313 438.184 576.606 436.737 577.108 434.205Z" fill="#C4C4C4"/>
<path d="M576.629 391.386C577.005 389.487 575.424 387.342 573.097 386.595C570.771 385.847 568.579 386.781 568.203 388.68C567.827 390.579 569.408 392.724 571.735 393.471C574.061 394.219 576.253 393.285 576.629 391.386Z" fill="#C4C4C4"/>
<path d="M621.433 381.686C618.888 381.332 616.779 383.162 616.723 385.772C616.667 388.382 618.685 390.785 621.231 391.14C623.776 391.494 625.885 389.664 625.941 387.054C625.997 384.444 623.979 382.041 621.433 381.686Z" fill="#C4C4C4"/>
<path d="M625.013 339.343C622.468 338.989 620.359 340.819 620.303 343.429C620.247 346.039 622.265 348.442 624.811 348.796C627.356 349.151 629.465 347.321 629.521 344.711C629.577 342.101 627.559 339.698 625.013 339.343Z" fill="#C4C4C4"/>
<path d="M539.105 365.925C539.607 363.393 538.127 360.735 535.8 359.988C533.474 359.24 531.181 360.687 530.679 363.219C530.177 365.751 531.657 368.409 533.984 369.156C536.31 369.904 538.603 368.457 539.105 365.925Z" fill="#C4C4C4"/>
<path d="M543.067 323.312C543.569 320.781 541.618 317.971 538.709 317.037C535.801 316.103 533.037 317.398 532.535 319.93C532.033 322.462 533.984 325.271 536.893 326.205C539.801 327.139 542.566 325.844 543.067 323.312Z" fill="#C4C4C4"/>
<path d="M639.094 324.898C639.596 322.366 637.645 319.557 634.736 318.623C631.828 317.689 629.064 318.984 628.562 321.516C628.06 324.048 630.011 326.857 632.92 327.791C635.828 328.725 638.592 327.43 639.094 324.898Z" fill="#C4C4C4"/>
<path d="M643.056 282.286C643.558 279.754 641.607 276.945 638.698 276.011C635.79 275.077 633.026 276.372 632.524 278.904C632.022 281.436 633.973 284.245 636.882 285.179C639.79 286.113 642.554 284.818 643.056 282.286Z" fill="#C4C4C4"/>
<path d="M642.987 474.868C643.489 472.337 641.538 469.527 638.629 468.593C635.721 467.659 632.957 468.954 632.455 471.486C631.953 474.018 633.904 476.827 636.813 477.761C639.721 478.695 642.485 477.4 642.987 474.868Z" fill="#C4C4C4"/>
<path d="M646.949 432.256C647.451 429.725 645.5 426.915 642.591 425.981C639.683 425.047 636.919 426.342 636.417 428.874C635.915 431.406 637.866 434.215 640.775 435.149C643.683 436.083 646.447 434.788 646.949 432.256Z" fill="#C4C4C4"/>
<path d="M577.108 434.205C577.61 431.673 576.13 429.015 573.803 428.268C571.477 427.52 569.184 428.967 568.682 431.499C568.18 434.031 569.66 436.689 571.987 437.436C574.313 438.184 576.606 436.737 577.108 434.205Z" fill="#C4C4C4"/>
<path d="M549.105 439.839C549.607 437.308 547.656 434.498 544.747 433.564C541.839 432.63 539.075 433.925 538.573 436.457C538.071 438.989 540.022 441.798 542.931 442.732C545.839 443.666 548.603 442.371 549.105 439.839Z" fill="#C4C4C4"/>
<path d="M505.16 435.477C505.662 432.945 504.182 430.287 501.855 429.54C499.529 428.792 497.236 430.239 496.734 432.771C496.232 435.303 497.712 437.961 500.039 438.708C502.365 439.456 504.658 438.009 505.16 435.477Z" fill="#C4C4C4"/>
<path d="M681.893 164.913C683.54 163.149 683.483 160.127 681.764 158.163C680.046 156.199 677.318 156.037 675.671 157.801C674.024 159.565 674.081 162.587 675.8 164.551C677.518 166.515 680.246 166.677 681.893 164.913Z" fill="#C4C4C4"/>
<path d="M556.545 515.37C557.047 512.838 555.567 510.18 553.24 509.433C550.914 508.685 548.621 510.132 548.119 512.664C547.617 515.196 549.097 517.854 551.424 518.601C553.75 519.349 556.043 517.902 556.545 515.37Z" fill="#C4C4C4"/>
<path d="M699.93 300.552C700.432 298.02 698.952 295.362 696.625 294.615C694.299 293.867 692.006 295.314 691.504 297.846C691.002 300.378 692.482 303.036 694.809 303.783C697.135 304.531 699.428 303.084 699.93 300.552Z" fill="#C4C4C4"/>
<path d="M696.18 421.249C696.682 418.717 695.202 416.059 692.875 415.312C690.549 414.564 688.256 416.011 687.754 418.543C687.252 421.075 688.732 423.733 691.059 424.48C693.385 425.228 695.678 423.781 696.18 421.249Z" fill="#C4C4C4"/>
<path d="M624.691 189.88C622.599 188.582 619.839 189.298 618.525 191.478C617.212 193.659 617.843 196.478 619.935 197.776C622.027 199.074 624.787 198.358 626.101 196.178C627.414 193.997 626.783 191.178 624.691 189.88Z" fill="#C4C4C4"/>
<path d="M586.791 177.217C585.222 176.244 582.886 177.222 581.572 179.403C580.259 181.583 580.466 184.14 582.035 185.113C583.604 186.086 585.94 185.108 587.254 182.927C588.567 180.747 588.36 178.19 586.791 177.217Z" fill="#C4C4C4"/>
<path d="M590.837 127.828C589.809 130.356 590.829 133.103 593.115 133.963C595.402 134.823 598.089 133.471 599.117 130.944C600.145 128.416 599.125 125.669 596.839 124.809C594.552 123.949 591.865 125.301 590.837 127.828Z" fill="#C4C4C4"/>
<path d="M554.498 111.107C553.47 113.635 554.49 116.382 556.776 117.242C559.063 118.102 561.75 116.75 562.778 114.223C563.806 111.695 562.786 108.948 560.5 108.088C558.213 107.228 555.526 108.58 554.498 111.107Z" fill="#C4C4C4"/>
<path d="M553.781 208.262C551.689 206.964 548.929 207.68 547.615 209.86C546.302 212.041 546.933 214.86 549.025 216.158C551.117 217.456 553.878 216.74 555.191 214.56C556.504 212.379 555.873 209.56 553.781 208.262Z" fill="#C4C4C4"/>
<path d="M517.312 191.063C515.22 189.765 512.193 190.923 510.551 193.648C508.909 196.374 509.274 199.635 511.366 200.933C513.458 202.231 516.485 201.073 518.127 198.348C519.769 195.622 519.404 192.361 517.312 191.063Z" fill="#C4C4C4"/>
<path d="M545.717 92.084C543.625 90.7864 540.598 91.9439 538.956 94.6694C537.314 97.3949 537.679 100.656 539.771 101.954C541.863 103.252 544.89 102.094 546.532 99.3686C548.174 96.6431 547.809 93.3817 545.717 92.084Z" fill="#C4C4C4"/>
<path d="M509.248 74.886C507.156 73.5884 504.129 74.7459 502.487 77.4714C500.845 80.1969 501.21 83.4583 503.302 84.756C505.394 86.0536 508.421 84.8961 510.063 82.1706C511.705 79.4451 511.34 76.1837 509.248 74.886Z" fill="#C4C4C4"/>
<path d="M679.084 134.137C676.992 132.839 673.965 133.997 672.323 136.722C670.681 139.448 671.046 142.709 673.138 144.007C675.23 145.305 678.257 144.147 679.899 141.422C681.541 138.696 681.176 135.435 679.084 134.137Z" fill="#C4C4C4"/>
<path d="M642.615 116.939C640.523 115.641 637.496 116.799 635.854 119.524C634.212 122.25 634.577 125.511 636.669 126.809C638.761 128.107 641.788 126.949 643.43 124.224C645.072 121.498 644.707 118.237 642.615 116.939Z" fill="#C4C4C4"/>
<path d="M624.691 189.88C622.599 188.582 619.839 189.298 618.525 191.478C617.212 193.659 617.843 196.478 619.935 197.776C622.027 199.074 624.787 198.358 626.101 196.178C627.414 193.997 626.783 191.178 624.691 189.88Z" fill="#C4C4C4"/>
<path d="M621.786 220.617C619.694 219.319 616.667 220.477 615.025 223.202C613.383 225.928 613.748 229.189 615.84 230.487C617.932 231.785 620.959 230.627 622.601 227.902C624.243 225.176 623.878 221.915 621.786 220.617Z" fill="#C4C4C4"/>
<path d="M605.579 264.796C603.487 263.498 600.727 264.214 599.413 266.394C598.1 268.575 598.731 271.394 600.823 272.692C602.915 273.99 605.675 273.274 606.989 271.094C608.302 268.913 607.671 266.094 605.579 264.796Z" fill="#C4C4C4"/>
<path d="M416.648 -1.41083C415.556 -3.65903 412.874 -4.528 410.659 -3.35171C408.443 -2.17543 407.533 0.600657 408.626 2.84886C409.719 5.09706 412.4 5.96602 414.616 4.78974C416.831 3.61346 417.741 0.83737 416.648 -1.41083Z" fill="#C4C4C4"/>
<path d="M690.495 236.121C688.403 234.823 685.643 235.539 684.329 237.719C683.016 239.9 683.647 242.719 685.739 244.017C687.831 245.315 690.591 244.599 691.905 242.419C693.218 240.238 692.587 237.419 690.495 236.121Z" fill="#C4C4C4"/>
<path d="M541.353 21.588C539.261 20.2904 536.501 21.006 535.187 23.1864C533.874 25.3668 534.505 28.1863 536.597 29.484C538.689 30.7816 541.449 30.066 542.763 27.8856C544.076 25.7052 543.445 22.8857 541.353 21.588Z" fill="#C4C4C4"/>
<path d="M646.752 62.562C644.66 61.2644 641.9 61.98 640.586 64.1604C639.273 66.3408 639.904 69.1603 641.996 70.458C644.088 71.7556 646.848 71.04 648.162 68.8596C649.475 66.6792 648.844 63.8597 646.752 62.562Z" fill="#C4C4C4"/>
<path d="M190.41 393.136C191.994 391.657 192.144 389.063 190.744 387.342C189.345 385.622 186.925 385.425 185.34 386.904C183.756 388.383 183.606 390.977 185.006 392.698C186.405 394.419 188.825 394.615 190.41 393.136Z" fill="#C4C4C4"/>
<path d="M210.448 363.475C211.636 362.366 211.465 360.072 210.065 358.351C208.665 356.63 206.567 356.134 205.378 357.243C204.19 358.352 204.361 360.646 205.761 362.367C207.161 364.088 209.259 364.584 210.448 363.475Z" fill="#C4C4C4"/>
<path d="M248.88 380.065C247.128 378.501 244.665 378.663 243.379 380.427C242.094 382.191 242.472 384.889 244.224 386.453C245.976 388.017 248.439 387.855 249.725 386.091C251.01 384.327 250.632 381.629 248.88 380.065Z" fill="#C4C4C4"/>
<path d="M271.753 352.837C270.001 351.273 267.538 351.435 266.252 353.199C264.966 354.963 265.345 357.661 267.097 359.225C268.849 360.789 271.312 360.627 272.598 358.863C273.883 357.099 273.505 354.401 271.753 352.837Z" fill="#C4C4C4"/>
<path d="M194.259 326.511C195.843 325.032 195.993 322.438 194.593 320.717C193.193 318.996 190.774 318.8 189.189 320.279C187.605 321.758 187.455 324.352 188.855 326.073C190.254 327.793 192.674 327.99 194.259 326.511Z" fill="#C4C4C4"/>
<path d="M217.548 299.296C219.133 297.817 218.999 294.874 217.249 292.723C215.5 290.572 212.796 290.027 211.212 291.506C209.627 292.985 209.761 295.928 211.511 298.079C213.26 300.23 215.964 300.775 217.548 299.296Z" fill="#C4C4C4"/>
<path d="M289.261 350.221C290.846 348.742 290.712 345.799 288.962 343.648C287.213 341.497 284.509 340.952 282.925 342.431C281.34 343.91 281.474 346.853 283.224 349.004C284.973 351.155 287.677 351.7 289.261 350.221Z" fill="#C4C4C4"/>
<path d="M312.55 323.006C314.135 321.527 314.001 318.584 312.251 316.433C310.502 314.282 307.798 313.737 306.214 315.216C304.629 316.695 304.763 319.638 306.513 321.789C308.262 323.94 310.966 324.485 312.55 323.006Z" fill="#C4C4C4"/>
<path d="M220.754 455.259C222.339 453.78 222.205 450.837 220.455 448.686C218.706 446.535 216.002 445.99 214.418 447.469C212.833 448.948 212.967 451.891 214.717 454.042C216.466 456.193 219.17 456.738 220.754 455.259Z" fill="#C4C4C4"/>
<path d="M244.044 428.044C245.629 426.565 245.495 423.622 243.745 421.471C241.996 419.32 239.292 418.775 237.708 420.254C236.123 421.733 236.257 424.676 238.007 426.827C239.756 428.978 242.46 429.523 244.044 428.044Z" fill="#C4C4C4"/>
<path d="M190.41 393.136C191.994 391.657 192.144 389.063 190.744 387.342C189.345 385.622 186.925 385.425 185.34 386.904C183.756 388.383 183.606 390.977 185.006 392.698C186.405 394.419 188.825 394.615 190.41 393.136Z" fill="#C4C4C4"/>
<path d="M166.593 382.474C168.178 380.995 168.044 378.052 166.294 375.901C164.545 373.75 161.841 373.205 160.257 374.684C158.672 376.163 158.806 379.106 160.556 381.257C162.305 383.408 165.009 383.953 166.593 382.474Z" fill="#C4C4C4"/>
<path d="M135.508 356.671C137.092 355.192 137.242 352.598 135.842 350.877C134.443 349.156 132.023 348.96 130.438 350.439C128.854 351.918 128.704 354.512 130.104 356.233C131.503 357.954 133.923 358.15 135.508 356.671Z" fill="#C4C4C4"/>
<path d="M458.799 310.448C460.361 310.18 461.335 308.147 460.974 305.906C460.613 303.665 459.054 302.066 457.491 302.334C455.929 302.602 454.955 304.635 455.316 306.876C455.677 309.117 457.236 310.716 458.799 310.448Z" fill="#C4C4C4"/>
<path d="M462.961 270.127C465.044 269.77 466.44 267.664 466.079 265.424C465.718 263.183 463.737 261.656 461.653 262.013C459.57 262.37 458.174 264.476 458.535 266.716C458.896 268.957 460.877 270.484 462.961 270.127Z" fill="#C4C4C4"/>
<path d="M496.258 260.252C498.342 259.895 499.665 257.335 499.213 254.535C498.762 251.734 496.707 249.753 494.624 250.11C492.54 250.467 491.217 253.027 491.669 255.827C492.12 258.628 494.175 260.609 496.258 260.252Z" fill="#C4C4C4"/>
<path d="M397.775 262.536C399.858 262.179 401.254 260.073 400.893 257.833C400.532 255.592 398.551 254.065 396.467 254.422C394.384 254.779 392.988 256.885 393.349 259.125C393.71 261.366 395.691 262.893 397.775 262.536Z" fill="#C4C4C4"/>
<path d="M136.226 438.219C137.81 436.74 137.96 434.146 136.56 432.425C135.16 430.704 132.741 430.508 131.156 431.987C129.572 433.466 129.422 436.06 130.822 437.781C132.221 439.502 134.641 439.698 136.226 438.219Z" fill="#C4C4C4"/>
<path d="M346.77 365.07C348.354 363.591 348.504 360.997 347.104 359.276C345.705 357.555 343.285 357.359 341.7 358.838C340.116 360.317 339.966 362.911 341.366 364.632C342.765 366.352 345.185 366.549 346.77 365.07Z" fill="#C4C4C4"/>
<path d="M286.441 446.033C288.025 444.554 288.175 441.96 286.775 440.239C285.375 438.519 282.956 438.322 281.371 439.801C279.787 441.28 279.637 443.874 281.037 445.595C282.436 447.316 284.856 447.512 286.441 446.033Z" fill="#C4C4C4"/>
<path d="M342.713 250C341.752 248.023 339.328 247.082 337.298 247.898C335.268 248.714 334.401 250.979 335.361 252.956C336.322 254.933 338.746 255.874 340.776 255.058C342.806 254.242 343.673 251.977 342.713 250Z" fill="#C4C4C4"/>
<path d="M320.144 221.632C319.423 220.149 317.194 219.609 315.164 220.425C313.134 221.241 312.072 223.105 312.793 224.588C313.513 226.071 315.743 226.611 317.772 225.795C319.802 224.979 320.864 223.115 320.144 221.632Z" fill="#C4C4C4"/>
<path d="M346.726 189.805C344.746 191.008 344.207 193.424 345.523 195.202C346.839 196.979 349.51 197.445 351.49 196.243C353.471 195.04 354.009 192.624 352.693 190.846C351.377 189.069 348.706 188.603 346.726 189.805Z" fill="#C4C4C4"/>
<path d="M327.268 159.461C325.287 160.664 324.749 163.08 326.065 164.858C327.381 166.635 330.052 167.101 332.032 165.899C334.013 164.696 334.551 162.28 333.235 160.502C331.919 158.725 329.248 158.259 327.268 159.461Z" fill="#C4C4C4"/>
<path d="M280.444 225.826C279.483 223.849 277.059 222.908 275.029 223.724C272.999 224.54 272.132 226.805 273.093 228.782C274.053 230.759 276.477 231.7 278.507 230.884C280.537 230.068 281.404 227.803 280.444 225.826Z" fill="#C4C4C4"/>
<path d="M261.115 195.086C260.155 193.109 257.319 192.333 254.782 193.353C252.244 194.373 250.966 196.803 251.927 198.78C252.887 200.757 255.723 201.533 258.26 200.513C260.798 199.493 262.076 197.063 261.115 195.086Z" fill="#C4C4C4"/>
<path d="M329.703 141.836C328.743 139.859 325.907 139.083 323.37 140.103C320.832 141.123 319.554 143.553 320.515 145.53C321.475 147.507 324.311 148.283 326.848 147.263C329.386 146.243 330.664 143.813 329.703 141.836Z" fill="#C4C4C4"/>
<path d="M310.374 111.096C309.414 109.119 306.578 108.343 304.041 109.363C301.503 110.383 300.225 112.813 301.186 114.79C302.146 116.767 304.982 117.543 307.519 116.523C310.057 115.503 311.335 113.073 310.374 111.096Z" fill="#C4C4C4"/>
<path d="M410.315 239.938C409.355 237.961 406.519 237.185 403.982 238.205C401.444 239.225 400.166 241.655 401.127 243.632C402.087 245.609 404.923 246.385 407.46 245.365C409.998 244.345 411.276 241.915 410.315 239.938Z" fill="#C4C4C4"/>
<path d="M390.987 209.197C390.027 207.22 387.191 206.444 384.654 207.464C382.116 208.484 380.838 210.914 381.799 212.891C382.759 214.868 385.595 215.644 388.132 214.624C390.67 213.604 391.948 211.174 390.987 209.197Z" fill="#C4C4C4"/>
<path d="M342.713 250C341.752 248.023 339.328 247.082 337.298 247.898C335.268 248.714 334.401 250.979 335.361 252.956C336.322 254.933 338.746 255.874 340.776 255.058C342.806 254.242 343.673 251.977 342.713 250Z" fill="#C4C4C4"/>
<path d="M325.877 269.606C324.917 267.629 322.081 266.853 319.544 267.873C317.006 268.893 315.728 271.323 316.689 273.3C317.649 275.277 320.485 276.053 323.022 275.033C325.56 274.013 326.838 271.583 325.877 269.606Z" fill="#C4C4C4"/>
<path d="M292.601 291.542C291.64 289.565 289.216 288.624 287.186 289.44C285.156 290.256 284.289 292.521 285.249 294.498C286.21 296.475 288.634 297.416 290.664 296.6C292.694 295.784 293.561 293.519 292.601 291.542Z" fill="#C4C4C4"/>
<path d="M276.841 10.6287C277.087 8.51726 275.477 6.52863 273.245 6.18695C271.013 5.84527 269.004 7.27993 268.757 9.39135C268.511 11.5028 270.121 13.4914 272.353 13.8331C274.585 14.1748 276.594 12.7401 276.841 10.6287Z" fill="#C4C4C4"/>
<path d="M370.343 315.914C369.383 313.937 366.959 312.996 364.929 313.812C362.899 314.628 362.032 316.893 362.992 318.87C363.953 320.847 366.377 321.788 368.407 320.972C370.437 320.156 371.304 317.891 370.343 315.914Z" fill="#C4C4C4"/>
<path d="M359.995 91.1463C359.034 89.1692 356.61 88.2281 354.58 89.0442C352.55 89.8603 351.683 92.1246 352.643 94.1017C353.604 96.0788 356.028 97.0199 358.058 96.2038C360.088 95.3877 360.955 93.1234 359.995 91.1463Z" fill="#C4C4C4"/>
<path d="M420.015 173.992C419.054 172.015 416.63 171.074 414.6 171.89C412.57 172.706 411.703 174.971 412.664 176.948C413.624 178.925 416.048 179.866 418.078 179.05C420.108 178.234 420.975 175.969 420.015 173.992Z" fill="#C4C4C4"/>
<path d="M89.6627 28.1482C88.7943 30.1431 89.674 32.6005 91.6277 33.637C93.5813 34.6735 95.869 33.8966 96.7374 31.9018C97.6057 29.907 96.726 27.4496 94.7723 26.4131C92.8187 25.3765 90.531 26.1534 89.6627 28.1482Z" fill="#C4C4C4"/>
<path d="M82.9796 63.5062C82.3284 65.0024 83.3841 67.0555 85.3377 68.092C87.2914 69.1285 89.4031 68.7559 90.0544 67.2598C90.7056 65.7637 89.6499 63.7106 87.6963 62.674C85.7426 61.6375 83.6309 62.0101 82.9796 63.5062Z" fill="#C4C4C4"/>
<path d="M41.3606 63.3901C43.5747 64.1422 45.7616 63.017 46.2451 60.8769C46.7286 58.7367 45.3256 56.3921 43.1114 55.6399C40.8973 54.8878 38.7104 56.013 38.2269 58.1531C37.7434 60.2933 39.1464 62.6379 41.3606 63.3901Z" fill="#C4C4C4"/>
<path d="M31.1316 97.6221C33.3458 98.3742 35.5326 97.249 36.0161 95.1089C36.4996 92.9687 35.0966 90.6241 32.8825 89.8719C30.6683 89.1198 28.4814 90.245 27.9979 92.3851C27.5144 94.5252 28.9174 96.8699 31.1316 97.6221Z" fill="#C4C4C4"/>
<path d="M112.261 91.2682C111.392 93.2631 112.272 95.7204 114.226 96.757C116.179 97.7935 118.467 97.0166 119.335 95.0218C120.204 93.027 119.324 90.5696 117.37 89.5331C115.417 88.4966 113.129 89.2734 112.261 91.2682Z" fill="#C4C4C4"/>
<path d="M101.646 125.653C100.778 127.648 102.054 130.315 104.496 131.611C106.938 132.907 109.621 132.34 110.49 130.345C111.358 128.35 110.082 125.683 107.64 124.387C105.198 123.091 102.515 123.658 101.646 125.653Z" fill="#C4C4C4"/>
<path d="M16.1593 106.974C15.2909 108.969 16.5666 111.636 19.0087 112.932C21.4507 114.228 24.1343 113.661 25.0027 111.666C25.8711 109.671 24.5954 107.004 22.1533 105.708C19.7113 104.412 17.0277 104.979 16.1593 106.974Z" fill="#C4C4C4"/>
<path d="M5.54633 141.359C4.67796 143.354 5.95365 146.021 8.39567 147.317C10.8377 148.613 13.5213 148.046 14.3897 146.051C15.258 144.056 13.9824 141.389 11.5403 140.093C9.09831 138.797 6.41471 139.364 5.54633 141.359Z" fill="#C4C4C4"/>
<path d="M26.9723 17.1181C26.104 19.1129 27.3796 21.7803 29.8217 23.076C32.2637 24.3716 34.9473 23.8048 35.8157 21.81C36.6841 19.8152 35.4084 17.1477 32.9663 15.8521C30.5243 14.5564 27.8407 15.1232 26.9723 17.1181Z" fill="#C4C4C4"/>
<path d="M89.6627 28.1482C88.7943 30.1431 89.674 32.6005 91.6277 33.637C93.5813 34.6735 95.869 33.8966 96.7374 31.9018C97.6057 29.907 96.726 27.4496 94.7723 26.4131C92.8187 25.3765 90.531 26.1534 89.6627 28.1482Z" fill="#C4C4C4"/>
<path d="M115.604 28.573C114.736 30.5679 116.012 33.2353 118.454 34.531C120.896 35.8266 123.579 35.2598 124.448 33.265C125.316 31.2701 124.04 28.6027 121.598 27.3071C119.156 26.0114 116.473 26.5782 115.604 28.573Z" fill="#C4C4C4"/>
<path d="M154.122 40.1162C153.253 42.1111 154.133 44.5684 156.087 45.605C158.04 46.6415 160.328 45.8646 161.196 43.8698C162.065 41.8749 161.185 39.4176 159.231 38.381C157.278 37.3445 154.99 38.1214 154.122 40.1162Z" fill="#C4C4C4"/>
<path d="M6.60176 220.799C8.25438 222.246 10.8384 222.156 12.3733 220.598C13.9083 219.039 13.8129 216.603 12.1603 215.155C10.5076 213.708 7.92362 213.798 6.38868 215.356C4.85374 216.915 4.94914 219.351 6.60176 220.799Z" fill="#C4C4C4"/>
<path d="M38.3428 238.087C39.5822 239.172 41.8313 238.789 43.3663 237.231C44.9012 235.672 45.1408 233.529 43.9013 232.443C42.6618 231.358 40.4127 231.741 38.8778 233.299C37.3428 234.858 37.1033 237.001 38.3428 238.087Z" fill="#C4C4C4"/>
<path d="M26.5285 278.038C27.8663 276.142 27.4114 273.695 25.5123 272.573C23.6133 271.45 20.9893 272.078 19.6515 273.974C18.3137 275.87 18.7687 278.317 20.6677 279.439C22.5667 280.562 25.1907 279.934 26.5285 278.038Z" fill="#C4C4C4"/>
<path d="M56.2025 298.386C57.5403 296.49 57.0854 294.043 55.1863 292.921C53.2873 291.798 50.6633 292.426 49.3255 294.322C47.9877 296.218 48.4426 298.665 50.3417 299.787C52.2407 300.91 54.8647 300.282 56.2025 298.386Z" fill="#C4C4C4"/>
<path d="M72.9747 218.487C74.6274 219.934 77.2114 219.844 78.7463 218.286C80.2813 216.727 80.1859 214.291 78.5333 212.843C76.8806 211.396 74.2966 211.486 72.7617 213.044C71.2267 214.603 71.3221 217.039 72.9747 218.487Z" fill="#C4C4C4"/>
<path d="M102.685 239.251C104.338 240.699 107.233 240.293 109.151 238.345C111.07 236.397 111.286 233.644 109.633 232.197C107.98 230.749 105.085 231.155 103.167 233.103C101.248 235.051 101.032 237.804 102.685 239.251Z" fill="#C4C4C4"/>
<path d="M60.8849 315.645C62.5375 317.093 65.4327 316.687 67.3513 314.739C69.27 312.791 69.4857 310.038 67.8331 308.591C66.1804 307.143 63.2853 307.549 61.3666 309.497C59.448 311.445 59.2323 314.198 60.8849 315.645Z" fill="#C4C4C4"/>
<path d="M90.5949 336.41C92.2476 337.858 95.1427 337.452 97.0614 335.504C98.98 333.556 99.1957 330.803 97.5431 329.356C95.8905 327.908 92.9954 328.314 91.0767 330.262C89.158 332.21 88.9423 334.963 90.5949 336.41Z" fill="#C4C4C4"/>
<path d="M6.60176 220.799C8.25438 222.246 10.8384 222.156 12.3733 220.598C13.9083 219.039 13.8129 216.603 12.1603 215.155C10.5076 213.708 7.92362 213.798 6.38868 215.356C4.85374 216.915 4.94914 219.351 6.60176 220.799Z" fill="#C4C4C4"/>
<path d="M14.2999 196.005C15.9526 197.453 18.8477 197.047 20.7664 195.099C22.6851 193.151 22.9007 190.398 21.2481 188.951C19.5955 187.503 16.7004 187.909 14.7817 189.857C12.863 191.805 12.6473 194.558 14.2999 196.005Z" fill="#C4C4C4"/>
<path d="M36.1077 162.546C37.7604 163.993 40.3444 163.903 41.8793 162.345C43.4143 160.786 43.3189 158.35 41.6663 156.902C40.0136 155.455 37.4296 155.545 35.8947 157.103C34.3597 158.662 34.4551 161.098 36.1077 162.546Z" fill="#C4C4C4"/>
<path d="M120.516 481.443C120.968 482.98 123.097 483.766 125.27 483.197C127.444 482.629 128.839 480.923 128.388 479.385C127.936 477.848 125.807 477.063 123.634 477.631C121.46 478.199 120.065 479.906 120.516 481.443Z" fill="#C4C4C4"/>
<path d="M160.904 481.876C161.507 483.925 163.757 485.126 165.931 484.558C168.104 483.99 169.378 481.868 168.776 479.818C168.173 477.769 165.923 476.568 163.749 477.136C161.576 477.704 160.302 479.826 160.904 481.876Z" fill="#C4C4C4"/>
<path d="M160.615 416.012C161.218 418.061 163.468 419.262 165.642 418.694C167.815 418.126 169.089 416.004 168.487 413.954C167.884 411.905 165.634 410.704 163.46 411.272C161.287 411.84 160.013 413.962 160.615 416.012Z" fill="#C4C4C4"/>
<path d="M53.0747 374.505C54.7274 375.952 57.3114 375.862 58.8464 374.304C60.3813 372.745 60.2859 370.309 58.6333 368.861C56.9807 367.414 54.3966 367.504 52.8617 369.062C51.3267 370.621 51.4221 373.057 53.0747 374.505Z" fill="#C4C4C4"/>
<path d="M528.762 135.206C531.311 135.225 533.364 133.23 533.348 130.75C533.333 128.27 531.254 126.244 528.706 126.226C526.157 126.207 524.104 128.202 524.12 130.682C524.135 133.162 526.214 135.188 528.762 135.206Z" fill="#C4C4C4"/>
<path d="M432.227 192.867C434.776 192.886 436.829 190.891 436.813 188.411C436.798 185.931 434.719 183.905 432.171 183.887C429.622 183.868 427.569 185.863 427.585 188.343C427.6 190.823 429.679 192.849 432.227 192.867Z" fill="#C4C4C4"/>
<path d="M477.862 112.38C480.411 112.399 482.464 110.404 482.448 107.924C482.433 105.444 480.354 103.418 477.806 103.4C475.257 103.381 473.204 105.376 473.22 107.856C473.235 110.336 475.314 112.362 477.862 112.38Z" fill="#C4C4C4"/>
<path d="M390.555 170.109C393.104 170.128 395.157 168.133 395.141 165.653C395.126 163.173 393.047 161.147 390.499 161.129C387.95 161.11 385.897 163.105 385.913 165.585C385.928 168.065 388.007 170.091 390.555 170.109Z" fill="#C4C4C4"/>
<path d="M358.509 210.285C361.058 210.304 363.111 208.309 363.095 205.829C363.08 203.349 361.001 201.323 358.453 201.305C355.904 201.286 353.851 203.281 353.867 205.761C353.882 208.241 355.961 210.267 358.509 210.285Z" fill="#C4C4C4"/>
<path d="M346.746 174.277C350.569 174.305 353.649 171.312 353.626 167.592C353.602 163.872 350.484 160.834 346.661 160.805C342.839 160.777 339.759 163.77 339.782 167.49C339.806 171.21 342.924 174.248 346.746 174.277Z" fill="#C4C4C4"/>
<path d="M-5.79995 313.607C-8.13597 314.599 -9.2301 317.257 -8.24375 319.543C-7.2574 321.83 -4.56409 322.879 -2.22806 321.887C0.107958 320.895 1.20208 318.237 0.215735 315.951C-0.770614 313.664 -3.46393 312.615 -5.79995 313.607Z" fill="#C4C4C4"/>
<path d="M7.73406 263.772C5.39803 264.764 4.3039 267.422 5.29025 269.708C6.2766 271.995 8.96992 273.044 11.306 272.052C13.642 271.06 14.7361 268.402 13.7498 266.116C12.7634 263.829 10.0701 262.78 7.73406 263.772Z" fill="#C4C4C4"/>
<path d="M32.5961 292.404C29.092 293.892 27.4509 297.878 28.9304 301.308C30.4099 304.738 34.4499 306.312 37.9539 304.824C41.4579 303.336 43.0991 299.35 41.6196 295.92C40.1401 292.49 36.1001 290.916 32.5961 292.404Z" fill="#C4C4C4"/>
<path d="M669.454 72.8889C671.753 71.1799 672.353 67.8215 670.796 65.3876C669.239 62.9538 666.114 62.3661 663.816 64.0751C661.517 65.7841 660.917 69.1425 662.474 71.5764C664.031 74.0102 667.156 74.5979 669.454 72.8889Z" fill="#C4C4C4"/>
<path d="M617.906 78.7039C620.205 76.9949 620.805 73.6365 619.248 71.2026C617.691 68.7688 614.566 68.1811 612.268 69.8901C609.969 71.5991 609.369 74.9575 610.926 77.3914C612.483 79.8252 615.608 80.4129 617.906 78.7039Z" fill="#C4C4C4"/>
<path d="M614.152 140.027C616.451 138.318 617.051 134.959 615.494 132.526C613.937 130.092 610.812 129.504 608.514 131.213C606.215 132.922 605.615 136.281 607.172 138.714C608.729 141.148 611.854 141.736 614.152 140.027Z" fill="#C4C4C4"/>
<path d="M581.193 112.507C584.64 109.944 585.542 104.906 583.206 101.255C580.87 97.6047 576.182 96.7232 572.735 99.2867C569.288 101.85 568.386 106.888 570.722 110.539C573.058 114.189 577.746 115.071 581.193 112.507Z" fill="#C4C4C4"/>
</svg>
