<svg width="1166" height="843" viewBox="0 0 1166 843" fill="none" xmlns="http://www.w3.org/2000/svg">
<path fill-rule="evenodd" clip-rule="evenodd" d="M1131.04 214.256C1130.25 213.686 1128.39 213.483 1127.53 213.313C1123.93 212.603 1120.22 212.294 1116.55 212.294C1105.24 212.311 1093.74 213.422 1082.61 215.344C1075.55 216.564 1067.01 220.67 1059.98 218.44C1047.74 214.555 1035.37 214.745 1023.76 220.293C1013.14 225.365 1005.08 234.999 1000.37 245.408C999.662 246.979 996.783 252.763 995.967 256.661C995.619 257.458 995.284 258.261 994.982 259.076C994.126 261.388 993.358 263.742 992.644 266.1C992.339 267.106 991.572 269.327 992.483 269.756C991.027 272.442 989.737 275.21 988.663 278.068C985.538 286.38 982.121 295.497 981.023 304.306C980.616 307.567 980.601 310.848 980.978 314.116C981.165 315.732 981.088 318.98 982.183 320.208C984.507 322.814 985.7 319.166 985.438 317.428C983.438 304.183 987.301 291.746 991.88 279.296C994.841 271.245 999.706 263.88 1005.16 257.21C1009.57 251.811 1014.3 247.559 1020.34 243.979C1027.74 239.602 1035.64 236.063 1043.47 232.513C1048.62 230.177 1053.78 227.904 1059.08 225.892C1060.25 225.444 1062.11 224.296 1063.41 224.292C1066.17 224.282 1070.08 226.319 1072.75 227.077C1081.52 229.57 1090.4 232.763 1099.47 234.037C1105.28 234.854 1110.73 233.934 1116.17 231.997C1116.72 231.8 1117.65 231.291 1118.8 230.564C1122.83 229.011 1126.65 227.057 1129.98 224.238C1131.89 222.613 1133.63 220.513 1135.22 218.592C1135.69 218.017 1135.9 217.359 1135.91 216.733C1136.27 216.545 1136.5 216.326 1136.56 216.07C1136.95 214.178 1133.35 214.144 1131.04 214.256Z" fill="#89C5CC"/>
<path fill-rule="evenodd" clip-rule="evenodd" d="M211.99 371.913C209.771 373.71 207.594 375.546 205.47 377.456C203.851 378.913 200.987 380.655 200.406 382.861C199.802 385.153 201.709 387.298 203.215 388.684C211.181 396.013 220.152 400.968 231.19 401.792C248.187 403.061 262.979 398.721 277.726 390.18C288.085 384.181 294.947 375.307 296.445 363.325C308.782 368.452 320.714 375.519 330.853 384.192C335.856 388.472 340.165 393.214 344.15 398.47C346.703 401.836 349.172 405.258 351.463 408.81C352.46 410.354 353.472 413.091 355.117 413.98C357.047 415.024 359.38 413.387 359.285 411.241C359.205 409.455 357.276 407.382 356.374 405.922C354.876 403.497 353.355 401.087 351.754 398.729C349.163 394.911 346.485 391.146 343.564 387.573C337.001 379.545 328.649 372.913 319.992 367.257C303.383 356.407 285.155 349.572 264.946 348.993C252.519 348.637 242.066 352.882 231.439 359.222C224.823 363.17 217.994 367.051 211.99 371.913Z" fill="#DDE3E9"/>
<path fill-rule="evenodd" clip-rule="evenodd" d="M373.181 319.435C360.232 306.099 347.237 292.929 332.769 281.186C324.243 274.267 315.257 267.974 306.457 261.413C307.473 262.303 308.468 263.218 309.44 264.155C306.693 262.291 303.097 261.237 300.185 259.511C296.936 257.586 293.831 255.383 290.785 253.163C284.84 248.831 278.984 244.417 272.872 240.31C266.063 235.736 259.007 231.509 252.082 227.107C246.205 223.371 240.256 219.281 233.968 216.227C230.542 214.563 227.107 212.589 223.666 210.853C222.514 210.272 210.83 202.894 210.859 202.872C211.505 202.385 217.385 205.148 218.294 205.519C220.951 206.604 223.491 207.902 226.045 209.196C224.643 206.431 223.533 203.526 222.929 200.468C222.743 199.524 221.248 192.653 222.013 192.077C222.395 191.789 226.123 204.082 226.314 205.264C226.469 206.224 226.446 207.607 226.76 208.516C227.268 209.984 227.242 209.54 228.36 210.367C230.408 211.883 233.128 212.831 235.345 214.098C236.54 214.765 240.242 217.412 242.472 218.167C249.218 221.443 256.056 226.484 262.466 230.67C260.784 227.508 259.504 224.202 258.57 220.737C258.348 219.915 255.952 212.536 256.533 212.098C257.188 211.605 261.753 222.875 262.023 223.941C262.525 225.923 262.629 228.129 263.258 230.057C263.949 232.173 266.103 232.923 268.044 234.157C275.187 238.696 282.085 243.518 288.868 248.562C296.269 235.399 287.736 219.504 280.543 208.46C275.359 200.501 268.38 193.677 261.011 187.719C251.177 179.768 239.925 173.416 228.687 167.606C215.592 160.836 201.439 156.642 186.725 154.704C179.03 153.69 171.157 153.719 163.384 154.044C159.586 154.202 155.941 154.705 152.302 155.944C150.662 156.503 149.077 157.207 147.532 157.995C146.359 158.595 143.52 159.227 142.845 160.12C137.29 167.35 134.448 174.554 134.882 183.64C135.293 192.24 138.009 200.845 141.695 208.516C145.8 217.058 151.08 224.811 157.985 231.318C163.253 236.283 169.143 240.604 174.994 244.868C195.804 260.034 222.188 273.225 249.142 269.836C257.866 268.739 266.165 265.688 273.92 261.542C275.747 260.565 277.563 259.577 279.288 258.423C280.451 257.646 283.56 254.141 284.73 254.014C286.333 253.84 289.787 257.101 291.292 258.094C302.723 265.64 313.856 273.595 324.755 281.872C336.351 290.679 347.378 300.084 358.081 309.931C362.632 314.12 367.155 318.318 371.576 322.647C372.604 323.654 375.121 327.364 376.986 327.532C378.166 327.638 378.962 326.63 378.793 325.539C378.501 323.64 374.507 320.8 373.181 319.435Z" fill="#C1DEE2"/>
<path fill-rule="evenodd" clip-rule="evenodd" d="M1117.44 267.676C1112.43 266.58 1106.89 266.664 1101.78 266.755C1074.38 267.127 1047.47 280.101 1029.95 300.83C1015.05 318.478 1010.95 340.419 1008 362.598C1007.71 364.8 1007.58 366.989 1007.42 369.195C1007.38 369.669 1007.33 370.091 1007.27 370.489C1006.12 371.525 1005.51 372.732 1006.19 374.058C1003.64 379.642 1001.48 385.368 999.631 391.273C994.18 408.656 988.635 426.369 992.051 444.647C992.849 434.588 994.527 424.303 996.535 414.409C996.651 413.841 996.775 413.278 996.905 412.716C996.918 412.657 996.931 412.598 996.944 412.539C997.655 409.509 998.579 406.57 999.702 403.677C999.714 403.646 999.725 403.615 999.738 403.583C999.886 403.203 1000.04 402.824 1000.2 402.445C1000.52 401.662 1000.85 400.879 1001.2 400.101C1001.32 399.835 1001.43 399.568 1001.54 399.298C1003.18 395.289 1003.87 390.773 1005.34 386.625C1005.69 385.682 1006.05 384.742 1006.44 383.808C1006.46 383.753 1006.48 383.698 1006.5 383.643C1007.54 381.128 1008.69 378.644 1009.9 376.186C1010.56 375.69 1010.91 374.462 1011.48 373.346C1011.6 373.126 1012.52 371.659 1012.79 370.813C1013.5 369.432 1014.22 368.051 1014.93 366.672C1014.91 366.68 1014.89 366.688 1014.87 366.696C1015.59 365.373 1016.31 364.054 1017.03 362.741C1017.18 362.453 1017.34 362.164 1017.5 361.875C1017.76 361.415 1018.02 360.955 1018.27 360.496C1020.67 356.2 1023.22 351.991 1025.86 347.833C1026.8 346.35 1029.06 344.223 1029.49 342.557C1029.51 342.494 1029.51 342.437 1029.52 342.377C1035.25 334.323 1041.86 326.893 1049.77 321.006C1048.82 322.041 1046.78 325.551 1046.25 326.247C1044.6 328.375 1042.81 330.356 1041.02 332.361C1037.81 335.954 1034.67 339.66 1031.88 343.579C1026.79 350.747 1022.39 358.29 1018.23 365.985C1018.2 366.03 1018.15 366.073 1018.11 366.119C1016.03 368.694 1014.71 372.585 1013.21 375.531C1019.16 372.775 1025.74 370.979 1031.84 368.532C1037.94 366.092 1043.86 363.375 1049.58 360.185C1057.18 355.945 1065.07 351.157 1072.25 345.739C1080.48 340.633 1087.4 333.605 1093.5 326.23C1100.73 317.505 1107.35 308.702 1111.44 298.107C1113.45 292.901 1115.04 287.472 1115.97 281.98C1116.02 281.74 1116.07 281.481 1116.13 281.211C1117.08 279.314 1117.94 277.375 1118.66 275.39C1119.81 272.244 1122.51 268.782 1117.44 267.676Z" fill="#69A1AC"/>
<path fill-rule="evenodd" clip-rule="evenodd" d="M267.483 304.542C265.912 302.841 264.147 301.306 262.075 300.211C261.551 299.934 257.648 298.08 257.394 298.487C256.802 299.434 267.011 303.999 267.483 304.542ZM285.985 293.176C285.972 293.248 287.325 295.544 287.694 296.25C288.478 297.751 289.202 299.281 289.883 300.814C288.874 298.107 287.838 295.595 285.985 293.176ZM191.36 311.866C190.057 312.286 188.49 310.632 190.181 310.224C191.549 309.897 191.481 309.82 192.096 308.718C192.594 307.824 192.902 306.732 193.339 305.794C194.267 303.802 195.32 301.903 196.613 300.124C199.383 296.309 202.758 293.022 206.543 290.252C213.149 285.419 220.556 281.001 228.413 278.781C240.906 275.252 255.124 275.034 267.637 277.481C275.386 278.996 282.468 281.63 287.614 287.87C290.186 290.988 292.204 294.641 293.087 298.664C293.317 299.715 293.274 300.884 293.563 301.914C294.006 303.496 293.81 303.075 295.661 303.383C297.683 303.719 299.702 304.062 301.721 304.411C307.008 305.326 312.325 306.297 317.476 307.781C319.172 308.269 320.83 308.865 322.449 309.559C323.675 310.083 328.553 311.728 329.145 313.319C330.132 315.967 326.826 314.767 325.799 314.19C324.899 313.685 323.975 313.214 323.038 312.78C320.678 311.688 318.219 310.843 315.704 310.171C312.987 309.444 310.214 308.901 307.452 308.358C304.876 307.852 302.291 307.391 299.702 306.951C298.264 306.706 296.824 306.468 295.385 306.23C294.893 306.149 294.026 305.723 294.092 306.363C291.065 305.779 287.793 305.864 284.71 305.703C280.935 305.506 277.145 305.344 273.357 305.462C270.625 305.548 267.891 305.727 265.172 306.094C263.584 306.309 262.021 306.622 260.463 307.02C259.607 307.238 256.231 307.701 255.765 308.448C255.965 308.127 259.69 308.438 260.165 308.42C262.061 308.348 263.943 308.161 265.833 307.949C269.339 307.558 272.847 307.353 276.365 307.383C276.351 308 273.949 309.1 273.362 309.509C272.047 310.427 270.788 311.429 269.612 312.527C267.542 314.461 265.064 316.856 263.632 319.148C264.054 318.473 266.135 317.594 266.874 317.078C268.058 316.251 269.217 315.369 270.314 314.426C271.327 313.555 272.272 312.615 273.201 311.655C274.131 310.693 275.392 308.695 276.613 308.055C276.687 308.017 277.219 308.437 277.521 308.294C277.826 308.15 278.206 307.43 278.283 307.4C279.42 306.962 281.579 307.507 282.774 307.563C285.873 307.705 288.968 307.892 292.065 308.063C293.025 308.115 293.84 307.897 294.202 308.605C294.588 309.36 293.881 311.344 293.68 312.166C292.933 315.219 291.607 317.957 289.519 320.322C285.61 324.752 280.789 327.706 275.343 329.682C254.484 337.25 232.292 340.28 211.439 332.408C202.805 329.149 189.804 323.325 191.36 311.866Z" fill="#89C5CC"/>
<g opacity="0.6">
<path opacity="0.6" fill-rule="evenodd" clip-rule="evenodd" d="M1146.46 668.401C1160.65 764.465 816.496 827.125 520.276 783.396C224.056 739.667 88.1645 568.902 229.516 477.912C370.867 386.921 1132.27 572.336 1146.46 668.401Z" fill="#DDE3E9"/>
</g>
<path d="M541 38.7646H330.706C324.208 38.7646 318.941 44.0319 318.941 50.5294V471.118C318.941 477.615 324.208 482.882 330.706 482.882H541C547.497 482.882 552.765 477.615 552.765 471.118V50.5294C552.765 44.0319 547.497 38.7646 541 38.7646Z" fill="#F2F2F2"/>
<path d="M435.118 454.941C447.3 454.941 457.176 445.065 457.176 432.882C457.176 420.7 447.3 410.823 435.118 410.823C422.935 410.823 413.059 420.7 413.059 432.882C413.059 445.065 422.935 454.941 435.118 454.941Z" fill="white"/>
<path d="M416 68.1764C417.624 68.1764 418.941 66.8596 418.941 65.2352C418.941 63.6109 417.624 62.2941 416 62.2941C414.376 62.2941 413.059 63.6109 413.059 65.2352C413.059 66.8596 414.376 68.1764 416 68.1764Z" fill="white"/>
<path d="M454.235 62.2941H429.235C427.611 62.2941 426.294 63.6109 426.294 65.2352C426.294 66.8596 427.611 68.1764 429.235 68.1764H454.235C455.86 68.1764 457.176 66.8596 457.176 65.2352C457.176 63.6109 455.86 62.2941 454.235 62.2941Z" fill="white"/>
<path d="M526.294 79.9412H345.412C342.163 79.9412 339.529 82.5748 339.529 85.8235V153.471C339.529 156.719 342.163 159.353 345.412 159.353H526.294C529.543 159.353 532.176 156.719 532.176 153.471V85.8235C532.176 82.5748 529.543 79.9412 526.294 79.9412Z" fill="white"/>
<path d="M499.824 103.765H401.294C398.858 103.765 396.882 105.74 396.882 108.176V111.265C396.882 113.701 398.858 115.676 401.294 115.676H499.824C502.26 115.676 504.235 113.701 504.235 111.265V108.176C504.235 105.74 502.26 103.765 499.824 103.765Z" fill="#DDE3E9"/>
<path d="M464.529 123.618H401.294C398.858 123.618 396.882 125.593 396.882 128.029V131.118C396.882 133.554 398.858 135.529 401.294 135.529H464.529C466.966 135.529 468.941 133.554 468.941 131.118V128.029C468.941 125.593 466.966 123.618 464.529 123.618Z" fill="#DDE3E9"/>
<path d="M370.412 137.294C380.158 137.294 388.059 129.393 388.059 119.647C388.059 109.901 380.158 102 370.412 102C360.666 102 352.765 109.901 352.765 119.647C352.765 129.393 360.666 137.294 370.412 137.294Z" fill="#C5CFD6"/>
<path d="M526.294 171.118H345.412C342.163 171.118 339.529 173.751 339.529 177V227C339.529 230.249 342.163 232.882 345.412 232.882H526.294C529.543 232.882 532.176 230.249 532.176 227V177C532.176 173.751 529.543 171.118 526.294 171.118Z" fill="white"/>
<path d="M499.824 189.647H401.294C398.858 189.647 396.882 191.622 396.882 194.059V194.5C396.882 196.937 398.858 198.912 401.294 198.912H499.824C502.26 198.912 504.235 196.937 504.235 194.5V194.059C504.235 191.622 502.26 189.647 499.824 189.647Z" fill="#DDE3E9"/>
<path d="M464.529 205.088H401.294C398.858 205.088 396.882 207.063 396.882 209.5V209.941C396.882 212.378 398.858 214.353 401.294 214.353H464.529C466.966 214.353 468.941 212.378 468.941 209.941V209.5C468.941 207.063 466.966 205.088 464.529 205.088Z" fill="#DDE3E9"/>
<path d="M370.412 219.647C380.158 219.647 388.059 211.746 388.059 202C388.059 192.254 380.158 184.353 370.412 184.353C360.666 184.353 352.765 192.254 352.765 202C352.765 211.746 360.666 219.647 370.412 219.647Z" fill="#C5CFD6"/>
<path d="M526.294 244.647H345.412C342.163 244.647 339.529 247.281 339.529 250.529V300.529C339.529 303.778 342.163 306.412 345.412 306.412H526.294C529.543 306.412 532.176 303.778 532.176 300.529V250.529C532.176 247.281 529.543 244.647 526.294 244.647Z" fill="white"/>
<path d="M499.824 263.177H401.294C398.858 263.177 396.882 265.152 396.882 267.588V268.029C396.882 270.466 398.858 272.441 401.294 272.441H499.824C502.26 272.441 504.235 270.466 504.235 268.029V267.588C504.235 265.152 502.26 263.177 499.824 263.177Z" fill="#DDE3E9"/>
<path d="M464.529 278.618H401.294C398.858 278.618 396.882 280.593 396.882 283.029V283.471C396.882 285.907 398.858 287.882 401.294 287.882H464.529C466.966 287.882 468.941 285.907 468.941 283.471V283.029C468.941 280.593 466.966 278.618 464.529 278.618Z" fill="#DDE3E9"/>
<path d="M370.412 293.177C380.158 293.177 388.059 285.276 388.059 275.529C388.059 265.783 380.158 257.882 370.412 257.882C360.666 257.882 352.765 265.783 352.765 275.529C352.765 285.276 360.666 293.177 370.412 293.177Z" fill="#AFB9C5"/>
<path d="M526.294 318.177H345.412C342.163 318.177 339.529 320.81 339.529 324.059V374.059C339.529 377.308 342.163 379.941 345.412 379.941H526.294C529.543 379.941 532.176 377.308 532.176 374.059V324.059C532.176 320.81 529.543 318.177 526.294 318.177Z" fill="white"/>
<path d="M499.824 336.706H401.294C398.858 336.706 396.882 338.681 396.882 341.118V341.559C396.882 343.995 398.858 345.971 401.294 345.971H499.824C502.26 345.971 504.235 343.995 504.235 341.559V341.118C504.235 338.681 502.26 336.706 499.824 336.706Z" fill="#DDE3E9"/>
<path d="M464.529 352.147H401.294C398.858 352.147 396.882 354.122 396.882 356.559V357C396.882 359.437 398.858 361.412 401.294 361.412H464.529C466.966 361.412 468.941 359.437 468.941 357V356.559C468.941 354.122 466.966 352.147 464.529 352.147Z" fill="#DDE3E9"/>
<path d="M370.412 366.706C380.158 366.706 388.059 358.805 388.059 349.059C388.059 339.313 380.158 331.412 370.412 331.412C360.666 331.412 352.765 339.313 352.765 349.059C352.765 358.805 360.666 366.706 370.412 366.706Z" fill="#C5CFD6"/>
<path fill-rule="evenodd" clip-rule="evenodd" d="M363.265 397.588C361.316 397.588 359.374 397.627 357.428 397.728C355.945 397.806 353.678 397.499 352.423 398.423C351.119 399.383 351.209 401.349 351.413 402.737C352.49 410.078 355.118 416.587 360.616 421.788C369.082 429.796 378.787 433.865 390.271 435.677C398.338 436.949 405.785 435.182 411.724 429.445C416.063 437.498 419.354 446.41 421.006 455.404C421.821 459.843 422.069 464.227 421.926 468.746C421.834 471.641 421.674 474.529 421.364 477.41C421.229 478.662 420.591 480.557 421.081 481.739C421.656 483.129 423.596 483.263 424.467 482.078C425.191 481.093 425.058 479.156 425.207 477.99C425.454 476.051 425.682 474.112 425.846 472.165C426.111 469.013 426.308 465.853 426.293 462.689C426.26 455.581 424.68 448.445 422.518 441.698C418.371 428.753 411.642 417.249 401.177 408.223C394.743 402.672 387.378 400.424 379.023 399.218C373.821 398.467 368.534 397.588 363.265 397.588Z" fill="#89C5CC"/>
<path fill-rule="evenodd" clip-rule="evenodd" d="M393.311 449.059C372.283 449.059 358.121 466.006 351.425 483.62C348.9 490.259 348.309 497.55 347.336 504.521C347.024 506.758 347.139 510.168 346.231 512.161C345.902 512.883 345.146 513.143 345.507 514.128C345.726 514.724 346.155 515.089 346.799 515.208C348.122 515.451 349.992 514.011 351.126 513.442C360.532 508.725 366.712 501.431 371.754 492.507C374.879 486.976 378.05 481.234 379.906 475.162C381.04 471.452 381.7 467.545 382.088 463.697C382.24 462.182 382.388 460.63 382.379 459.105C382.37 457.593 381.666 456.793 381.161 455.476C388.177 452.82 396.097 452.096 403.204 454.849C409.777 457.394 415.238 462.313 418.296 468.493C419.09 470.1 419.703 471.795 420.149 473.523C420.441 474.655 420.455 476.124 420.996 477.148C422.309 479.629 425.071 477.97 424.806 475.66C424.066 469.217 420.38 462.748 415.669 458.268C409.727 452.619 401.673 449.059 393.311 449.059Z" fill="#89C5CC"/>
<path d="M638.059 77H427.765C421.267 77 416 82.2672 416 88.7647V509.353C416 515.85 421.267 521.118 427.765 521.118H638.059C644.556 521.118 649.824 515.85 649.824 509.353V88.7647C649.824 82.2672 644.556 77 638.059 77Z" fill="#DDE3E9"/>
<path d="M532.176 493.176C544.359 493.176 554.235 483.3 554.235 471.118C554.235 458.935 544.359 449.059 532.176 449.059C519.994 449.059 510.118 458.935 510.118 471.118C510.118 483.3 519.994 493.176 532.176 493.176Z" fill="white"/>
<path d="M513.059 106.412C514.683 106.412 516 105.095 516 103.471C516 101.846 514.683 100.529 513.059 100.529C511.434 100.529 510.118 101.846 510.118 103.471C510.118 105.095 511.434 106.412 513.059 106.412Z" fill="white"/>
<path d="M551.294 100.529H526.294C524.67 100.529 523.353 101.846 523.353 103.471C523.353 105.095 524.67 106.412 526.294 106.412H551.294C552.918 106.412 554.235 105.095 554.235 103.471C554.235 101.846 552.918 100.529 551.294 100.529Z" fill="white"/>
<path d="M623.353 118.177H442.471C439.222 118.177 436.588 120.81 436.588 124.059V191.706C436.588 194.955 439.222 197.588 442.471 197.588H623.353C626.602 197.588 629.235 194.955 629.235 191.706V124.059C629.235 120.81 626.602 118.177 623.353 118.177Z" fill="white"/>
<path d="M552.765 142H454.235C451.799 142 449.824 143.975 449.824 146.412V149.5C449.824 151.937 451.799 153.912 454.235 153.912H552.765C555.201 153.912 557.176 151.937 557.176 149.5V146.412C557.176 143.975 555.201 142 552.765 142Z" fill="#DDE3E9"/>
<path d="M517.471 161.853H454.235C451.799 161.853 449.824 163.828 449.824 166.265V169.353C449.824 171.789 451.799 173.765 454.235 173.765H517.471C519.907 173.765 521.882 171.789 521.882 169.353V166.265C521.882 163.828 519.907 161.853 517.471 161.853Z" fill="#DDE3E9"/>
<path d="M608.647 168.177C614.332 168.177 618.941 163.568 618.941 157.882C618.941 152.197 614.332 147.588 608.647 147.588C602.962 147.588 598.353 152.197 598.353 157.882C598.353 163.568 602.962 168.177 608.647 168.177Z" fill="#DDE3E9"/>
<path d="M608.647 162.294C611.084 162.294 613.059 160.319 613.059 157.882C613.059 155.446 611.084 153.471 608.647 153.471C606.211 153.471 604.235 155.446 604.235 157.882C604.235 160.319 606.211 162.294 608.647 162.294Z" fill="#F2F2F2"/>
<path d="M623.353 209.353H442.471C439.222 209.353 436.588 211.987 436.588 215.235V265.235C436.588 268.484 439.222 271.118 442.471 271.118H623.353C626.602 271.118 629.235 268.484 629.235 265.235V215.235C629.235 211.987 626.602 209.353 623.353 209.353Z" fill="white"/>
<path d="M596.882 227.882H498.353C495.916 227.882 493.941 229.858 493.941 232.294V232.735C493.941 235.172 495.916 237.147 498.353 237.147H596.882C599.319 237.147 601.294 235.172 601.294 232.735V232.294C601.294 229.858 599.319 227.882 596.882 227.882Z" fill="#DDE3E9"/>
<path d="M561.588 243.324H498.353C495.916 243.324 493.941 245.299 493.941 247.735V248.177C493.941 250.613 495.916 252.588 498.353 252.588H561.588C564.025 252.588 566 250.613 566 248.177V247.735C566 245.299 564.025 243.324 561.588 243.324Z" fill="#DDE3E9"/>
<path d="M467.471 257.882C477.217 257.882 485.118 249.982 485.118 240.235C485.118 230.489 477.217 222.588 467.471 222.588C457.724 222.588 449.824 230.489 449.824 240.235C449.824 249.982 457.724 257.882 467.471 257.882Z" fill="#C5CFD6"/>
<path d="M623.353 282.882H442.471C439.222 282.882 436.588 285.516 436.588 288.765V338.765C436.588 342.014 439.222 344.647 442.471 344.647H623.353C626.602 344.647 629.235 342.014 629.235 338.765V288.765C629.235 285.516 626.602 282.882 623.353 282.882Z" fill="white"/>
<path d="M552.765 301.412H454.235C451.799 301.412 449.824 303.387 449.824 305.824V306.265C449.824 308.701 451.799 310.677 454.235 310.677H552.765C555.201 310.677 557.176 308.701 557.176 306.265V305.824C557.176 303.387 555.201 301.412 552.765 301.412Z" fill="#DDE3E9"/>
<path d="M517.471 316.853H454.235C451.799 316.853 449.824 318.828 449.824 321.265V321.706C449.824 324.142 451.799 326.118 454.235 326.118H517.471C519.907 326.118 521.882 324.142 521.882 321.706V321.265C521.882 318.828 519.907 316.853 517.471 316.853Z" fill="#AFB9C5"/>
<path d="M608.647 324.059C614.332 324.059 618.941 319.45 618.941 313.765C618.941 308.08 614.332 303.471 608.647 303.471C602.962 303.471 598.353 308.08 598.353 313.765C598.353 319.45 602.962 324.059 608.647 324.059Z" fill="#DDE3E9"/>
<path d="M608.647 318.177C611.084 318.177 613.059 316.201 613.059 313.765C613.059 311.328 611.084 309.353 608.647 309.353C606.211 309.353 604.235 311.328 604.235 313.765C604.235 316.201 606.211 318.177 608.647 318.177Z" fill="#F2F2F2"/>
<path d="M623.353 356.412H442.471C439.222 356.412 436.588 359.045 436.588 362.294V412.294C436.588 415.543 439.222 418.177 442.471 418.177H623.353C626.602 418.177 629.235 415.543 629.235 412.294V362.294C629.235 359.045 626.602 356.412 623.353 356.412Z" fill="white"/>
<path d="M596.882 374.941H498.353C495.916 374.941 493.941 376.916 493.941 379.353V379.794C493.941 382.231 495.916 384.206 498.353 384.206H596.882C599.319 384.206 601.294 382.231 601.294 379.794V379.353C601.294 376.916 599.319 374.941 596.882 374.941Z" fill="#DDE3E9"/>
<path d="M561.588 390.382H498.353C495.916 390.382 493.941 392.358 493.941 394.794V395.235C493.941 397.672 495.916 399.647 498.353 399.647H561.588C564.025 399.647 566 397.672 566 395.235V394.794C566 392.358 564.025 390.382 561.588 390.382Z" fill="#DDE3E9"/>
<path d="M467.471 404.941C477.217 404.941 485.118 397.04 485.118 387.294C485.118 377.548 477.217 369.647 467.471 369.647C457.724 369.647 449.824 377.548 449.824 387.294C449.824 397.04 457.724 404.941 467.471 404.941Z" fill="#C5CFD6"/>
<path d="M993.941 113.765H524.824C518.326 113.765 513.059 119.032 513.059 125.529V610.824C513.059 617.321 518.326 622.588 524.824 622.588H993.941C1000.44 622.588 1005.71 617.321 1005.71 610.824V125.529C1005.71 119.032 1000.44 113.765 993.941 113.765Z" fill="#F2F2F2"/>
<path d="M970.412 177H891C884.503 177 879.235 182.267 879.235 188.765V284.353C879.235 290.85 884.503 296.118 891 296.118H970.412C976.909 296.118 982.177 290.85 982.177 284.353V188.765C982.177 182.267 976.909 177 970.412 177Z" fill="white"/>
<path d="M930.706 246.118C943.701 246.118 954.235 235.583 954.235 222.588C954.235 209.593 943.701 199.059 930.706 199.059C917.711 199.059 907.176 209.593 907.176 222.588C907.176 235.583 917.711 246.118 930.706 246.118Z" fill="#DDE3E9"/>
<path d="M963.059 252H898.353C895.916 252 893.941 253.975 893.941 256.412C893.941 258.848 895.916 260.823 898.353 260.823H963.059C965.495 260.823 967.471 258.848 967.471 256.412C967.471 253.975 965.495 252 963.059 252Z" fill="#DDE3E9"/>
<path d="M951.294 266.706H910.118C907.681 266.706 905.706 268.681 905.706 271.118C905.706 273.554 907.681 275.529 910.118 275.529H951.294C953.731 275.529 955.706 273.554 955.706 271.118C955.706 268.681 953.731 266.706 951.294 266.706Z" fill="#DDE3E9"/>
<path fill-rule="evenodd" clip-rule="evenodd" d="M524.824 113.765H993.941C1000.44 113.765 1005.71 119.032 1005.71 125.529V153.471H513.059V125.529C513.059 119.032 518.326 113.765 524.824 113.765Z" fill="#C5CFD6"/>
<path d="M532.176 140.235C535.425 140.235 538.059 137.602 538.059 134.353C538.059 131.104 535.425 128.471 532.176 128.471C528.928 128.471 526.294 131.104 526.294 134.353C526.294 137.602 528.928 140.235 532.176 140.235Z" fill="#F2F2F2"/>
<path d="M549.824 140.235C553.072 140.235 555.706 137.602 555.706 134.353C555.706 131.104 553.072 128.471 549.824 128.471C546.575 128.471 543.941 131.104 543.941 134.353C543.941 137.602 546.575 140.235 549.824 140.235Z" fill="#F2F2F2"/>
<path d="M567.471 140.235C570.719 140.235 573.353 137.602 573.353 134.353C573.353 131.104 570.719 128.471 567.471 128.471C564.222 128.471 561.588 131.104 561.588 134.353C561.588 137.602 564.222 140.235 567.471 140.235Z" fill="#F2F2F2"/>
<path d="M970.412 307.882H891C884.503 307.882 879.235 313.15 879.235 319.647V581.412C879.235 587.909 884.503 593.176 891 593.176H970.412C976.909 593.176 982.177 587.909 982.177 581.412V319.647C982.177 313.15 976.909 307.882 970.412 307.882Z" fill="white"/>
<path d="M949.824 334.353H911.588C908.34 334.353 905.706 336.987 905.706 340.235V366.706C905.706 369.955 908.34 372.588 911.588 372.588H949.824C953.072 372.588 955.706 369.955 955.706 366.706V340.235C955.706 336.987 953.072 334.353 949.824 334.353Z" fill="#DDE3E9"/>
<path d="M949.824 384.353H911.588C908.34 384.353 905.706 386.987 905.706 390.235V415.235C905.706 418.484 908.34 421.118 911.588 421.118H949.824C953.072 421.118 955.706 418.484 955.706 415.235V390.235C955.706 386.987 953.072 384.353 949.824 384.353Z" fill="#AFB9C5"/>
<path d="M949.824 432.882H911.588C908.34 432.882 905.706 435.516 905.706 438.765V463.765C905.706 467.013 908.34 469.647 911.588 469.647H949.824C953.072 469.647 955.706 467.013 955.706 463.765V438.765C955.706 435.516 953.072 432.882 949.824 432.882Z" fill="#DDE3E9"/>
<path d="M949.824 529.941H911.588C908.34 529.941 905.706 532.575 905.706 535.824V560.824C905.706 564.072 908.34 566.706 911.588 566.706H949.824C953.072 566.706 955.706 564.072 955.706 560.824V535.824C955.706 532.575 953.072 529.941 949.824 529.941Z" fill="#DDE3E9"/>
<path d="M949.824 481.412H911.588C908.34 481.412 905.706 484.045 905.706 487.294V512.294C905.706 515.543 908.34 518.176 911.588 518.176H949.824C953.072 518.176 955.706 515.543 955.706 512.294V487.294C955.706 484.045 953.072 481.412 949.824 481.412Z" fill="#C5CFD6"/>
<path d="M861.588 178.471H542.471C539.222 178.471 536.588 181.104 536.588 184.353V241.706C536.588 244.955 539.222 247.588 542.471 247.588H861.588C864.837 247.588 867.471 244.955 867.471 241.706V184.353C867.471 181.104 864.837 178.471 861.588 178.471Z" fill="white"/>
<path d="M791 199.206H554.235C551.799 199.206 549.824 201.181 549.824 203.618V205.162C549.824 207.598 551.799 209.573 554.235 209.573H791C793.437 209.573 795.412 207.598 795.412 205.162V203.618C795.412 201.181 793.437 199.206 791 199.206Z" fill="#DDE3E9"/>
<path d="M710.259 216.485H554.235C551.799 216.485 549.824 218.46 549.824 220.897V222.441C549.824 224.878 551.799 226.853 554.235 226.853H710.259C712.695 226.853 714.67 224.878 714.67 222.441V220.897C714.67 218.46 712.695 216.485 710.259 216.485Z" fill="#DDE3E9"/>
<path d="M832.109 223.324C837.794 223.324 842.403 218.715 842.403 213.029C842.403 207.344 837.794 202.735 832.109 202.735C826.424 202.735 821.815 207.344 821.815 213.029C821.815 218.715 826.424 223.324 832.109 223.324Z" fill="#DDE3E9"/>
<path d="M832.109 217.441C834.546 217.441 836.521 215.466 836.521 213.029C836.521 210.593 834.546 208.618 832.109 208.618C829.673 208.618 827.697 210.593 827.697 213.029C827.697 215.466 829.673 217.441 832.109 217.441Z" fill="#F2F2F2"/>
<path d="M861.588 259.353H542.471C539.222 259.353 536.588 261.987 536.588 265.235V310.824C536.588 314.072 539.222 316.706 542.471 316.706H861.588C864.837 316.706 867.471 314.072 867.471 310.824V265.235C867.471 261.987 864.837 259.353 861.588 259.353Z" fill="white"/>
<path d="M791.11 276.559H554.125C551.749 276.559 549.824 278.485 549.824 280.86C549.824 283.236 551.749 285.162 554.125 285.162H791.11C793.486 285.162 795.412 283.236 795.412 280.86C795.412 278.485 793.486 276.559 791.11 276.559Z" fill="#DDE3E9"/>
<path d="M710.369 290.897H554.125C551.749 290.897 549.824 292.823 549.824 295.199C549.824 297.574 551.749 299.5 554.125 299.5H710.369C712.745 299.5 714.67 297.574 714.67 295.199C714.67 292.823 712.745 290.897 710.369 290.897Z" fill="#DDE3E9"/>
<path d="M832.109 298.323C837.794 298.323 842.403 293.715 842.403 288.029C842.403 282.344 837.794 277.735 832.109 277.735C826.424 277.735 821.815 282.344 821.815 288.029C821.815 293.715 826.424 298.323 832.109 298.323Z" fill="#DDE3E9"/>
<path d="M832.109 292.441C834.546 292.441 836.521 290.466 836.521 288.029C836.521 285.593 834.546 283.618 832.109 283.618C829.673 283.618 827.697 285.593 827.697 288.029C827.697 290.466 829.673 292.441 832.109 292.441Z" fill="#F2F2F2"/>
<path d="M861.588 328.471H542.471C539.222 328.471 536.588 331.104 536.588 334.353V379.941C536.588 383.19 539.222 385.823 542.471 385.823H861.588C864.837 385.823 867.471 383.19 867.471 379.941V334.353C867.471 331.104 864.837 328.471 861.588 328.471Z" fill="white"/>
<path d="M791.11 345.676H554.125C551.749 345.676 549.824 347.602 549.824 349.978C549.824 352.353 551.749 354.279 554.125 354.279H791.11C793.486 354.279 795.412 352.353 795.412 349.978C795.412 347.602 793.486 345.676 791.11 345.676Z" fill="#DDE3E9"/>
<path d="M710.369 360.015H554.125C551.749 360.015 549.824 361.94 549.824 364.316C549.824 366.692 551.749 368.618 554.125 368.618H710.369C712.745 368.618 714.67 366.692 714.67 364.316C714.67 361.94 712.745 360.015 710.369 360.015Z" fill="#DDE3E9"/>
<path d="M832.109 367.441C837.794 367.441 842.403 362.832 842.403 357.147C842.403 351.462 837.794 346.853 832.109 346.853C826.424 346.853 821.815 351.462 821.815 357.147C821.815 362.832 826.424 367.441 832.109 367.441Z" fill="#DDE3E9"/>
<path d="M832.109 361.559C834.546 361.559 836.521 359.584 836.521 357.147C836.521 354.711 834.546 352.735 832.109 352.735C829.673 352.735 827.697 354.711 827.697 357.147C827.697 359.584 829.673 361.559 832.109 361.559Z" fill="#AFB9C5"/>
<path d="M861.588 535.823H542.471C539.222 535.823 536.588 538.457 536.588 541.706V587.294C536.588 590.543 539.222 593.176 542.471 593.176H861.588C864.837 593.176 867.471 590.543 867.471 587.294V541.706C867.471 538.457 864.837 535.823 861.588 535.823Z" fill="white"/>
<path d="M791.11 553.029H554.125C551.749 553.029 549.824 554.955 549.824 557.331C549.824 559.706 551.749 561.632 554.125 561.632H791.11C793.486 561.632 795.412 559.706 795.412 557.331C795.412 554.955 793.486 553.029 791.11 553.029Z" fill="#DDE3E9"/>
<path d="M710.369 567.367H554.125C551.749 567.367 549.824 569.293 549.824 571.669C549.824 574.045 551.749 575.97 554.125 575.97H710.369C712.745 575.97 714.67 574.045 714.67 571.669C714.67 569.293 712.745 567.367 710.369 567.367Z" fill="#DDE3E9"/>
<path d="M832.109 574.794C837.794 574.794 842.403 570.185 842.403 564.5C842.403 558.815 837.794 554.206 832.109 554.206C826.424 554.206 821.815 558.815 821.815 564.5C821.815 570.185 826.424 574.794 832.109 574.794Z" fill="#DDE3E9"/>
<path d="M832.109 568.912C834.546 568.912 836.521 566.936 836.521 564.5C836.521 562.063 834.546 560.088 832.109 560.088C829.673 560.088 827.697 562.063 827.697 564.5C827.697 566.936 829.673 568.912 832.109 568.912Z" fill="#F2F2F2"/>
<path d="M861.588 466.706H542.471C539.222 466.706 536.588 469.34 536.588 472.588V518.177C536.588 521.425 539.222 524.059 542.471 524.059H861.588C864.837 524.059 867.471 521.425 867.471 518.177V472.588C867.471 469.34 864.837 466.706 861.588 466.706Z" fill="white"/>
<path d="M791.11 483.912H554.125C551.749 483.912 549.824 485.838 549.824 488.213C549.824 490.589 551.749 492.515 554.125 492.515H791.11C793.486 492.515 795.412 490.589 795.412 488.213C795.412 485.838 793.486 483.912 791.11 483.912Z" fill="#DDE3E9"/>
<path d="M710.369 498.25H554.125C551.749 498.25 549.824 500.176 549.824 502.551C549.824 504.927 551.749 506.853 554.125 506.853H710.369C712.745 506.853 714.67 504.927 714.67 502.551C714.67 500.176 712.745 498.25 710.369 498.25Z" fill="#DDE3E9"/>
<path d="M832.109 505.676C837.794 505.676 842.403 501.068 842.403 495.382C842.403 489.697 837.794 485.088 832.109 485.088C826.424 485.088 821.815 489.697 821.815 495.382C821.815 501.068 826.424 505.676 832.109 505.676Z" fill="#DDE3E9"/>
<path d="M832.109 499.794C834.546 499.794 836.521 497.819 836.521 495.382C836.521 492.946 834.546 490.971 832.109 490.971C829.673 490.971 827.697 492.946 827.697 495.382C827.697 497.819 829.673 499.794 832.109 499.794Z" fill="#F2F2F2"/>
<path d="M861.588 397.588H542.471C539.222 397.588 536.588 400.222 536.588 403.471V449.059C536.588 452.308 539.222 454.941 542.471 454.941H861.588C864.837 454.941 867.471 452.308 867.471 449.059V403.471C867.471 400.222 864.837 397.588 861.588 397.588Z" fill="white"/>
<path d="M791.11 414.794H554.125C551.749 414.794 549.824 416.72 549.824 419.096C549.824 421.471 551.749 423.397 554.125 423.397H791.11C793.486 423.397 795.412 421.471 795.412 419.096C795.412 416.72 793.486 414.794 791.11 414.794Z" fill="#DDE3E9"/>
<path d="M710.369 429.132H554.125C551.749 429.132 549.824 431.058 549.824 433.434C549.824 435.81 551.749 437.735 554.125 437.735H710.369C712.745 437.735 714.67 435.81 714.67 433.434C714.67 431.058 712.745 429.132 710.369 429.132Z" fill="#DDE3E9"/>
<path d="M832.109 436.559C837.794 436.559 842.403 431.95 842.403 426.265C842.403 420.579 837.794 415.971 832.109 415.971C826.424 415.971 821.815 420.579 821.815 426.265C821.815 431.95 826.424 436.559 832.109 436.559Z" fill="#DDE3E9"/>
<path d="M832.109 430.677C834.546 430.677 836.521 428.701 836.521 426.265C836.521 423.828 834.546 421.853 832.109 421.853C829.673 421.853 827.697 423.828 827.697 426.265C827.697 428.701 829.673 430.677 832.109 430.677Z" fill="#F2F2F2"/>
<path fill-rule="evenodd" clip-rule="evenodd" d="M1127.74 364.317C1121.94 360.384 1114.23 359.353 1107.29 359.353C1080.18 359.353 1054.69 369.412 1032.68 384.4C1020.62 392.612 1009.82 403.071 1000.3 413.959C994.798 420.245 989.894 427.045 986.423 434.607C984.08 439.712 982.472 445.03 981.382 450.516C980.054 457.201 978.999 464.022 978.522 470.819C978.334 473.495 976.779 487.697 981.229 487.938C981.203 488.288 981.197 488.622 981.224 488.921C971.562 504.029 965.592 521.735 960.056 538.523C955.24 553.131 950.948 567.862 948.161 582.975C944.493 602.871 942.084 623.067 940.938 643.249C940.692 647.587 940.523 651.926 940.378 656.27C940.255 659.974 940.13 663.679 940.008 667.383C939.872 671.535 939.141 676.314 939.802 680.441C940.376 684.036 943.487 683.492 943.625 679.915C943.791 675.596 943.764 671.268 943.953 666.945C944.204 661.208 944.463 655.471 944.744 649.736C946.698 609.895 954.03 570.64 967.561 533.006C973.036 517.777 979.311 503.36 987.375 489.272C994.465 476.885 1002.99 464.893 1011.71 453.725C1020.18 442.871 1028.99 432.269 1039.38 423.073C1047.8 415.611 1057.07 409.111 1066.59 403.062C1078.69 395.38 1090.77 387.884 1103.88 381.987C1110.69 378.921 1117.63 376.177 1124.5 373.236C1125.73 372.707 1127.05 372.194 1128.24 371.581C1132.21 369.537 1130.9 366.458 1127.74 364.317Z" fill="#C1DEE2"/>
<path fill-rule="evenodd" clip-rule="evenodd" d="M1018.67 503.471C1029.67 503.471 1039.45 504.899 1049.59 509.269C1058.33 513.041 1066.3 518.034 1074.04 523.469C1084.92 531.114 1093.5 540.012 1099.5 551.801C1103.08 558.844 1105.71 568.811 1103.31 576.493C1100.47 585.54 1092.68 593.086 1082.43 591.492C1076.08 590.507 1070.27 586.309 1065.45 582.357C1059.68 577.63 1055.07 571.946 1051.25 565.633C1045.04 555.334 1041.38 543.693 1036.1 532.932C1033.59 527.824 1031.17 522.68 1028.17 517.827C1026.68 515.423 1025.1 513.042 1022.85 511.256C1021.64 510.301 1016.56 508.647 1018.5 506.501C989.985 506.876 964.723 528.776 959.249 555.883C958.739 558.41 958.341 560.957 957.92 563.499C957.654 565.105 957.761 571.024 956.326 572.05C953.162 574.312 954.492 567.44 954.628 566.45C954.979 563.893 955.353 561.338 955.746 558.787C957.884 544.914 964.06 532.017 974.36 522.123C986.139 510.809 1002.03 503.471 1018.67 503.471Z" fill="#89C5CC"/>
<path d="M889.529 54.9412C889.529 52.5046 887.554 50.5294 885.118 50.5294C882.681 50.5294 880.706 52.5046 880.706 54.9412V82.8823C880.706 85.3189 882.681 87.2941 885.118 87.2941C887.554 87.2941 889.529 85.3189 889.529 82.8823V54.9412Z" fill="#DDE3E9"/>
<path d="M910.118 31.4118C910.118 28.9752 908.142 27 905.706 27C903.269 27 901.294 28.9752 901.294 31.4118V82.8823C901.294 85.3189 903.269 87.2941 905.706 87.2941C908.142 87.2941 910.118 85.3189 910.118 82.8823V31.4118Z" fill="#DDE3E9"/>
<path d="M930.706 19.6471C930.706 17.2106 928.731 15.2354 926.294 15.2354C923.858 15.2354 921.882 17.2106 921.882 19.6471V82.8824C921.882 85.3189 923.858 87.2942 926.294 87.2942C928.731 87.2942 930.706 85.3189 930.706 82.8824V19.6471Z" fill="#DDE3E9"/>
<path d="M951.294 31.4118C951.294 28.9752 949.319 27 946.882 27C944.446 27 942.471 28.9752 942.471 31.4118V82.8823C942.471 85.3189 944.446 87.2941 946.882 87.2941C949.319 87.2941 951.294 85.3189 951.294 82.8823V31.4118Z" fill="#DDE3E9"/>
<path d="M971.882 7.88235C971.882 5.4458 969.907 3.47058 967.471 3.47058C965.034 3.47058 963.059 5.4458 963.059 7.88235V82.8823C963.059 85.3189 965.034 87.2941 967.471 87.2941C969.907 87.2941 971.882 85.3189 971.882 82.8823V7.88235Z" fill="#C5CFD6"/>
<path fill-rule="evenodd" clip-rule="evenodd" d="M157.176 453.848C157.176 437.467 170.415 424.059 186.588 424.059V453.848L166.488 475.529C160.771 470.229 157.176 462.452 157.176 453.848Z" fill="#F2F2F2"/>
<path fill-rule="evenodd" clip-rule="evenodd" d="M185.81 453.471H215.512C215.512 461.149 212.38 468.343 207.428 473.571C201.983 479.288 194.227 482.882 185.81 482.882C178.056 482.882 170.959 479.781 165.512 474.878L185.81 453.471Z" fill="#AFB9C5"/>
<path fill-rule="evenodd" clip-rule="evenodd" d="M216 453.471C216 437.297 202.762 424.059 186.588 424.059V453.471H216ZM171.882 424.059L183.647 450.529L157.176 438.765C159.794 431.903 165.672 426.676 171.882 424.059Z" fill="#C5CFD6"/>
<path fill-rule="evenodd" clip-rule="evenodd" d="M1114.19 466.969C1111.36 469.969 1107.36 471.853 1102.9 471.853C1094.35 471.853 1087.41 464.94 1087.41 456.412C1087.41 447.884 1094.35 440.971 1102.9 440.971V412.294C1078.57 412.294 1058.65 432.152 1058.65 456.412C1058.65 480.672 1078.57 500.529 1102.9 500.529C1115.69 500.529 1127.24 495.138 1135.12 486.562L1114.19 466.969Z" fill="#F2F2F2"/>
<path fill-rule="evenodd" clip-rule="evenodd" d="M1102.76 412.294V440.971C1111.29 440.971 1118.21 447.884 1118.21 456.412H1146.88C1146.88 432.152 1127.03 412.294 1102.76 412.294Z" fill="#AFB9C5"/>
<path fill-rule="evenodd" clip-rule="evenodd" d="M1117.61 456.412C1117.61 461.422 1115.25 465.876 1111.59 468.751L1129.62 491.706C1140.12 483.488 1146.88 470.749 1146.88 456.412H1117.61Z" fill="#C5CFD6"/>
<path fill-rule="evenodd" clip-rule="evenodd" d="M833.722 61.5646C831.549 63.8646 828.469 65.3088 825.044 65.3088C818.464 65.3088 813.129 60.0087 813.129 53.4706C813.129 46.9325 818.464 41.6324 825.044 41.6324V19.6471C806.323 19.6471 791 34.8711 791 53.4706C791 72.0702 806.323 87.2941 825.044 87.2941C834.878 87.2941 843.765 83.1609 849.824 76.5856L833.722 61.5646Z" fill="#F2F2F2"/>
<path fill-rule="evenodd" clip-rule="evenodd" d="M824.824 19.6471V41.6324C831.362 41.6324 836.662 46.9325 836.662 53.4706H858.647C858.647 34.8711 843.423 19.6471 824.824 19.6471Z" fill="#AFB9C5"/>
<path fill-rule="evenodd" clip-rule="evenodd" d="M836.695 53.4706C836.695 57.2283 834.926 60.5685 832.177 62.7251L845.701 79.9412C853.573 73.7777 858.647 64.2235 858.647 53.4706H836.695Z" fill="#C5CFD6"/>
<path fill-rule="evenodd" clip-rule="evenodd" d="M298.363 87.274C298.357 87.2887 298.351 87.3034 298.343 87.321C298.351 87.3063 298.363 87.2475 298.363 87.274Z" fill="#C5CFD6"/>
<path fill-rule="evenodd" clip-rule="evenodd" d="M298.35 87.2963C298.35 87.2993 298.347 87.3051 298.347 87.311C298.347 87.2963 298.373 87.2522 298.35 87.2963Z" fill="#C5CFD6"/>
<path fill-rule="evenodd" clip-rule="evenodd" d="M298.452 87.0475C298.431 87.1063 298.405 87.1622 298.381 87.221C298.393 87.1916 298.405 87.1681 298.416 87.1387C298.111 87.9034 298.305 87.4063 298.452 87.0475Z" fill="#C5CFD6"/>
<path fill-rule="evenodd" clip-rule="evenodd" d="M298.386 87.2246C298.374 87.2511 298.362 87.2805 298.351 87.307C298.265 87.4717 298.386 87.2246 298.386 87.2246Z" fill="#C5CFD6"/>
<path fill-rule="evenodd" clip-rule="evenodd" d="M298.352 87.297C298.352 87.2941 298.351 87.2941 298.354 87.2911C298.351 87.2941 298.352 87.2941 298.352 87.297Z" fill="#C5CFD6"/>
<path fill-rule="evenodd" clip-rule="evenodd" d="M298.338 87.3181C298.32 87.3534 298.42 87.1829 298.338 87.3181Z" fill="#C5CFD6"/>
<path fill-rule="evenodd" clip-rule="evenodd" d="M298.35 87.297L298.356 87.2911C298.353 87.2941 298.353 87.297 298.35 87.297Z" fill="#C5CFD6"/>
<path d="M361.588 10.8235H233.647C230.398 10.8235 227.765 13.4571 227.765 16.7058V97.5882C227.765 100.837 230.398 103.471 233.647 103.471H361.588C364.837 103.471 367.471 100.837 367.471 97.5882V16.7058C367.471 13.4571 364.837 10.8235 361.588 10.8235Z" fill="#DDE3E9"/>
<path fill-rule="evenodd" clip-rule="evenodd" d="M280.706 37.2941L239.529 103.471H321.882L280.706 37.2941Z" fill="#AFB9C5"/>
<path fill-rule="evenodd" clip-rule="evenodd" d="M321.147 54.9412L285.118 103.471H357.176L321.147 54.9412Z" fill="#C5CFD6"/>
<path d="M336.588 54.9412C343.898 54.9412 349.824 49.0155 349.824 41.7059C349.824 34.3962 343.898 28.4706 336.588 28.4706C329.279 28.4706 323.353 34.3962 323.353 41.7059C323.353 49.0155 329.279 54.9412 336.588 54.9412Z" fill="white"/>
<path fill-rule="evenodd" clip-rule="evenodd" d="M999.813 715.215C999.819 715.23 999.825 715.245 999.834 715.262C999.825 715.247 999.813 715.189 999.813 715.215Z" fill="#C5CFD6"/>
<path fill-rule="evenodd" clip-rule="evenodd" d="M999.827 715.238C999.827 715.241 999.83 715.246 999.83 715.252C999.83 715.238 999.803 715.194 999.827 715.238Z" fill="#C5CFD6"/>
<path fill-rule="evenodd" clip-rule="evenodd" d="M999.725 714.989C999.745 715.047 999.772 715.103 999.795 715.162C999.784 715.133 999.772 715.109 999.76 715.08C1000.07 715.845 999.872 715.348 999.725 714.989Z" fill="#C5CFD6"/>
<path fill-rule="evenodd" clip-rule="evenodd" d="M999.791 715.166C999.802 715.192 999.814 715.222 999.826 715.248C999.911 715.413 999.791 715.166 999.791 715.166Z" fill="#C5CFD6"/>
<path fill-rule="evenodd" clip-rule="evenodd" d="M999.825 715.238C999.825 715.235 999.825 715.235 999.822 715.232C999.825 715.235 999.825 715.235 999.825 715.238Z" fill="#C5CFD6"/>
<path fill-rule="evenodd" clip-rule="evenodd" d="M999.839 715.259C999.857 715.295 999.757 715.124 999.839 715.259Z" fill="#C5CFD6"/>
<path fill-rule="evenodd" clip-rule="evenodd" d="M999.826 715.238L999.821 715.232C999.824 715.235 999.824 715.238 999.826 715.238Z" fill="#C5CFD6"/>
<path d="M901.294 602H1098.35C1101.6 602 1104.24 604.634 1104.24 607.882V734.353C1104.24 737.602 1101.6 740.235 1098.35 740.235H901.294C898.045 740.235 895.412 737.602 895.412 734.353V607.882C895.412 604.634 898.045 602 901.294 602Z" fill="#DDE3E9"/>
<path fill-rule="evenodd" clip-rule="evenodd" d="M1026.7 641.706L1087.07 740.235H966.322L1026.7 641.706Z" fill="#AFB9C5"/>
<path fill-rule="evenodd" clip-rule="evenodd" d="M964.447 668.098L1017.82 740.235H911.072L964.447 668.098Z" fill="#C5CFD6"/>
<path d="M941.735 668.177C930.771 668.177 921.882 659.288 921.882 648.324C921.882 637.359 930.771 628.471 941.735 628.471C952.7 628.471 961.588 637.359 961.588 648.324C961.588 659.288 952.7 668.177 941.735 668.177Z" fill="white"/>
<g filter="url(#filter0_d)">
<path fill-rule="evenodd" clip-rule="evenodd" d="M436.124 464.937C430.365 458.176 426.466 449.89 427.118 440.606C428.994 413.855 466.232 419.74 473.476 433.242C480.719 446.743 479.859 480.99 470.497 483.404C466.764 484.366 458.81 482.009 450.716 477.13L455.797 513.074H425.797L436.124 464.937Z" fill="#B28B67"/>
<path fill-rule="evenodd" clip-rule="evenodd" d="M466.715 424.339C466.028 423.928 464.591 423.063 463.862 422.75C463.69 422.674 462.483 421.813 462.451 421.824C461.537 422.133 458.891 423.271 458.664 424.254C458.629 424.329 458.594 424.398 458.561 424.46C458.186 425.141 457.842 425.84 457.514 426.547C456.793 428.098 456.172 429.72 455.578 431.33C454.422 434.464 453.417 437.671 452.494 440.885C451.553 444.157 450.755 447.467 449.862 450.753C448.576 455.481 446.931 460.093 445.654 464.819C444.839 467.836 444.385 470.889 444.599 473.995C444.602 474.033 444.603 474.069 444.606 474.107C444.607 474.123 444.609 474.138 444.611 474.154C444.647 474.631 444.699 475.11 444.768 475.59C444.829 476 444.889 476.412 444.954 476.824C446.12 474.499 447.011 471.936 447.956 469.504C448.048 469.266 448.136 469.026 448.222 468.786C448.527 468.292 448.838 467.803 449.152 467.315C451.133 464.239 453.121 461.174 455.021 458.042C458.438 452.409 461.822 446.657 465.873 441.484C467.069 439.957 468.293 438.453 469.474 436.913C470.146 436.036 470.801 435.145 471.434 434.238C471.887 433.59 473.855 431.33 473.143 429.972C472.778 429.277 468.498 425.403 466.715 424.339Z" fill="#2C2C2C"/>
<path fill-rule="evenodd" clip-rule="evenodd" d="M464.079 422.863C464.747 423.088 464.422 421.697 463.775 421.208C460.776 418.941 449.312 418.118 439.336 420.189C432.653 421.576 424.88 425.029 419.542 429.468C414.73 433.47 411.421 439.886 409.717 446.084C407.928 452.592 407.657 459.377 408.654 466.051C408.873 467.517 409.343 468.914 409.605 470.349C409.901 471.965 410.052 473.52 410.578 475.092C410.901 476.055 411.448 476.998 411.723 477.966C412.037 479.071 411.846 480.092 411.617 481.216C411.244 483.047 410.781 484.874 410.124 486.623C409.137 489.249 407.939 491.708 407.188 494.433C406.189 498.059 402.009 509.858 405.064 513.074H463.212C461.748 509.08 457.353 504.38 456.463 500.104C455.939 497.585 455.69 492.085 455.635 491.885C454.324 482.852 451.766 478.538 450.163 476.973C448.561 475.408 446.426 474.926 446.316 473.568C445.862 467.952 448.095 462.571 449.733 457.329C451.684 451.082 453.115 444.68 455.127 438.454C456.018 435.698 460.609 421.697 464.079 422.863Z" fill="#8991DC"/>
<path fill-rule="evenodd" clip-rule="evenodd" d="M443.692 429.324C441.499 436.282 441.027 439.996 441.499 449.502H440.423C438.414 440.531 440.202 432.085 442.34 429.324H443.692ZM414.274 447.28C418.36 457.195 420.223 463.05 431.634 471.073L430.753 471.69C419.425 465.27 416.127 457.612 413.415 447.693L414.274 447.28ZM431.063 437.19C432.919 451.263 433.461 459.302 443.13 474.696L442.101 475.011C432.15 461.607 430.573 450.667 430.103 437.267L431.063 437.19ZM420.383 478.995L421.263 477.925C433.273 481.686 431.935 489.452 447.061 497.317L445.797 498.083C432.552 492.617 429.456 480.893 420.383 478.995Z" fill="black" fill-opacity="0.2"/>
<path fill-rule="evenodd" clip-rule="evenodd" d="M371.575 669.324H468.143L480.797 824.324H337.047L371.575 669.324Z" fill="#C5CFD6"/>
<path fill-rule="evenodd" clip-rule="evenodd" d="M371.575 669.324H401.275L419.051 824.324H337.047L371.575 669.324Z" fill="black" fill-opacity="0.1"/>
<path fill-rule="evenodd" clip-rule="evenodd" d="M578.238 642.769C588.534 636.587 605.808 644.53 605.797 653.372C605.761 679.828 581.617 804.513 580.357 812.395C579.096 820.277 565.592 822.359 564.806 812.421C563.555 796.608 561.23 741.866 563.556 716.527C564.516 706.068 565.55 696.108 566.568 687.221C553.899 710.1 534.306 742.857 507.788 785.491L493.392 778.914C504.697 741.669 513.966 715.375 521.201 700.032C533.588 673.761 545.203 651.264 550.092 643.339C557.781 630.874 571.166 635.223 578.238 642.769Z" fill="#B28B67"/>
<path fill-rule="evenodd" clip-rule="evenodd" d="M494.421 758.231L543.831 641.183C555.667 622.143 588.854 645.058 584.818 656.101C575.653 681.173 529.046 762.342 526.316 769.812L494.421 758.231Z" fill="#1F28CF"/>
<path fill-rule="evenodd" clip-rule="evenodd" d="M491.688 771.528C488.608 774.058 486.605 776.125 485.677 777.729C484.548 779.679 483.227 782.713 481.712 786.831C483.976 788.139 504.324 799.896 542.754 822.102C547.372 817.777 548.094 814.419 544.918 812.027C541.742 809.634 539.121 807.616 537.055 805.973L515.997 776.94C515.592 776.381 514.81 776.257 514.251 776.661C514.241 776.668 514.232 776.675 514.222 776.683L509.841 780.05C505.824 779.697 502.826 778.949 500.848 777.806C499.241 776.877 497.397 774.946 495.315 772.013L495.315 772.013C494.517 770.887 492.956 770.621 491.83 771.42C491.781 771.454 491.734 771.49 491.688 771.528Z" fill="#810F0F"/>
<path fill-rule="evenodd" clip-rule="evenodd" d="M561.644 806.077C560.246 809.81 559.547 812.603 559.547 814.456C559.547 816.71 559.922 820 560.673 824.324C563.288 824.324 586.789 824.324 631.175 824.324C633.007 818.267 631.95 814.997 628.003 814.514C624.055 814.032 620.776 813.595 618.165 813.206L585.397 798.598C584.766 798.317 584.027 798.6 583.746 799.23C583.741 799.241 583.736 799.252 583.732 799.263L581.626 804.373C577.971 806.077 575.002 806.93 572.717 806.93C570.861 806.93 568.298 806.18 565.027 804.681L565.027 804.681C563.772 804.106 562.288 804.657 561.713 805.912C561.688 805.966 561.665 806.021 561.644 806.077Z" fill="#810F0F"/>
<path fill-rule="evenodd" clip-rule="evenodd" d="M609.26 662.365C609.26 695.574 593.489 773.037 593.479 780.349L559.547 780.375C564.513 711.256 566.274 676.324 564.83 675.579C562.663 674.462 476.016 684.23 450.03 684.23C412.556 684.23 397.054 660.6 395.797 616.824H470.03C485.144 618.442 563.983 634.343 593.262 639.81C605.797 642.15 609.26 653.217 609.26 662.365Z" fill="#2B44FF"/>
<path fill-rule="evenodd" clip-rule="evenodd" d="M532.663 601.15L568.073 635.693C578.376 640.088 586.818 644.941 593.398 650.251C594.878 652.037 596.489 655.457 589.526 653.926C582.564 652.396 575.171 651.099 573.862 653.363C572.554 655.628 576.41 659.098 573.991 662.061C572.379 664.037 566.956 657.753 557.724 643.209L520.902 621.499L532.663 601.15ZM359.509 569.886L386.881 569.989C366.033 637.531 354.967 672.895 353.681 676.081C350.789 683.249 356.91 694.166 359.527 700.033C351.002 703.848 351.911 689.72 341.156 694.723C331.341 699.29 323.874 707.565 312.533 700.567C311.139 699.707 309.611 696.468 313.302 693.936C322.499 687.63 335.753 676.592 337.544 672.959C339.986 668.005 347.308 633.647 359.509 569.886Z" fill="#B28B67"/>
<path fill-rule="evenodd" clip-rule="evenodd" d="M442.915 492.239L453.724 490.385C470.752 550.575 558.237 591.603 563.608 614.103C565.578 622.355 559.639 626.526 562.707 629.039L548.657 639.324C546.278 636.548 541.201 641.626 530.598 638.074C519.996 634.522 442.915 563.509 442.915 492.239Z" fill="#DB2721"/>
<path fill-rule="evenodd" clip-rule="evenodd" d="M461.097 500.241C459.851 579.928 505.916 600.255 495.656 632.222C487.183 658.62 406.081 686.998 392.047 661.121C386.366 650.647 383.788 637.979 383.496 624.206C379.909 634.787 377.072 643.896 374.985 651.534C371.386 664.709 357.429 666.803 357.429 671.878L339.042 666.803C340.289 659.907 331.621 656.55 333.946 641.145C344.359 572.124 372.338 522.092 417.883 491.05L418.354 484.312C418.547 481.557 420.936 479.48 423.691 479.673L457.359 482.027C460.114 482.22 462.191 484.609 461.998 487.364L461.097 500.241Z" fill="#FF4133"/>
</g>
<g filter="url(#filter1_d)">
<path fill-rule="evenodd" clip-rule="evenodd" d="M838.087 352.113C842.007 343.738 843.645 334.343 840.455 325.197C831.262 298.845 795.583 314.999 792.021 330.552C788.459 346.105 798.683 380.267 808.717 380.115C812.718 380.055 820.038 375.5 826.81 368.373L831.548 405.873L861.589 397.621L838.087 352.113Z" fill="#D4A181"/>
<path fill-rule="evenodd" clip-rule="evenodd" d="M827.321 353.072C833.008 359.227 839.649 363.224 844.819 361.825C854.638 359.168 858.062 344.177 854.236 330.09C854.102 329.595 853.959 329.106 853.807 328.623C866.126 332.926 877.939 344.781 891.683 341.062C910.381 336.002 907.586 296.354 881.461 303.423C863.695 308.231 855.657 313.181 849.164 319.042C846.543 315.265 843.324 312.364 839.888 310.66C839.018 310.092 837.802 309.652 836.304 309.345C835.379 309.123 834.448 308.99 833.518 308.952C828.523 308.516 821.625 309.121 814.206 310.854C812.821 311.177 811.47 311.528 810.16 311.901C808.261 304.996 801.122 300.921 794.192 302.797C787.249 304.676 783.145 311.816 785.027 318.745C786.847 325.446 793.598 329.496 800.32 328.055C804.428 328.197 809.531 327.736 815.03 326.636C815.04 328.746 815.362 331.059 816.048 333.585C816.654 335.816 817.543 338.115 818.65 340.395C819.444 338.688 820.764 337.357 822.354 336.927C826.801 335.724 830.889 338.537 831.941 342.414C833.278 347.334 831.398 351.663 827.321 353.072Z" fill="#191847"/>
<path fill-rule="evenodd" clip-rule="evenodd" d="M900.137 513.133L852.384 677.685L829.924 801.233H807.38L829.883 513.133H900.137Z" fill="#BA8B72"/>
<path fill-rule="evenodd" clip-rule="evenodd" d="M921.597 513.133C918.265 598.617 919.579 645.242 920.325 653.009C921.071 660.775 925.304 712.791 954.154 803.84H930.707C892.5 716.494 879.163 664.478 874.781 653.009C870.399 641.539 857.457 594.914 838.562 513.133H921.597Z" fill="#D4A181"/>
<path fill-rule="evenodd" clip-rule="evenodd" d="M901.162 513.133C888.741 569.756 867.257 660.14 836.712 784.286H803.739C801.304 656.862 811.664 572.996 829.605 513.133H901.162Z" fill="#69A1AC"/>
<path fill-rule="evenodd" clip-rule="evenodd" d="M921.764 513.133C918.501 598.617 926.958 682.835 953.154 785.617H917.974C879.698 699.574 852.264 615.772 833.514 513.133H921.764Z" fill="#89C5CC"/>
<path fill-rule="evenodd" clip-rule="evenodd" d="M957.496 820.787L956.202 799.93C948.628 802.145 939.14 801.276 927.74 797.322C915.482 806.005 900.051 811.934 881.446 815.109L881.446 815.109C880.027 815.351 879.073 816.698 879.315 818.118C879.331 818.21 879.351 818.301 879.377 818.39L881.165 824.698H927.74H954.908L957.496 820.787Z" fill="#191847"/>
<path fill-rule="evenodd" clip-rule="evenodd" d="M834.956 820.787L833.662 799.93C826.087 802.145 816.6 801.276 805.2 797.322C792.942 806.005 777.511 811.934 758.906 815.109L758.906 815.109C757.487 815.351 756.532 816.698 756.775 818.118C756.79 818.21 756.811 818.301 756.836 818.39L758.625 824.698H805.2H832.368L834.956 820.787Z" fill="#191847"/>
<path fill-rule="evenodd" clip-rule="evenodd" d="M806.754 439.685L757.906 423.333C748.934 415.89 740.423 410.386 732.373 406.82C730.015 406.299 726.079 406.433 730.809 412.146C735.538 417.86 740.255 424.082 738.779 426.368C737.303 428.653 732.254 426.734 730.658 430.378C729.594 432.808 737.996 434.84 755.863 436.474L793.49 460.225L806.754 439.685ZM740.775 472.68L719.312 465.465C714.701 455.543 710.482 450.891 706.658 451.508C703.485 450.673 710.949 462.917 705.191 462.77C699.434 462.624 684.075 454.99 682.107 457.451C679.195 461.092 683.942 469.82 688.401 473.786C696.734 481.199 702.88 483.143 717.455 484.521C725.076 485.241 733.65 487.884 743.178 492.451L740.775 472.68Z" fill="#D4A181"/>
<path fill-rule="evenodd" clip-rule="evenodd" d="M827.536 430.564C811.925 433.18 790.558 433.608 765.871 423.538L760.637 444.442C778.644 456.839 802.377 465.429 821.084 461.548C835.827 458.49 840.193 439.278 827.536 430.564Z" fill="#2026A2"/>
<path fill-rule="evenodd" clip-rule="evenodd" d="M812.063 465.527C796.273 472.613 767.682 472.727 726.289 465.869C720.22 487.558 718.311 502.586 720.565 510.955C757.071 522.394 787.073 525.031 810.734 521.316C812.494 535.429 816.583 548.425 824.482 559.552C840.722 582.429 905.407 546.939 929.37 547.341C935.42 497.689 903.964 483.596 898.539 453.494C892.597 420.529 857.006 374.534 853.109 375.233L817.574 381.608C820.132 407.139 815.243 436.659 812.063 465.527Z" fill="#1F28CF"/>
</g>
<g filter="url(#filter2_d)">
<path fill-rule="evenodd" clip-rule="evenodd" d="M138.587 346.426C130.682 341.029 124.3 333.53 122.402 323.719C116.933 295.451 157.53 291.114 168.861 303.085C180.192 315.055 188.808 350.813 179.683 355.94C176.044 357.985 167.068 357.77 157.242 354.98L172.547 390.832L141.157 399.243L138.587 346.426Z" fill="#784931"/>
<path fill-rule="evenodd" clip-rule="evenodd" d="M152.376 291.157C147.74 291.01 141.395 292.239 138.856 293.238C139.398 289.3 138.933 285.2 137.422 281.491C135.955 277.887 133.422 275.162 130.976 272.251C129.848 270.909 128.627 269.601 127.101 268.753C125.547 267.888 123.774 267.517 122.036 267.58C120.257 267.644 118.513 268.145 116.928 268.945C116.227 269.298 115.651 269.813 114.973 270.195C114.278 270.587 113.793 270.221 113.127 269.901C111.522 269.131 109.462 269.09 107.759 269.334C105.848 269.608 104.001 270.4 102.397 271.476C100.835 272.524 99.4396 273.92 98.5692 275.643C98.1816 276.409 97.868 277.248 97.7498 278.112C97.7014 278.467 97.7299 278.662 97.4401 278.865C97.1721 279.053 96.8256 279.149 96.5467 279.334C93.8498 281.123 91.9242 284.071 91.3254 287.355C90.976 289.27 91.3967 292.366 92.4 295.692C93.4034 299.019 98.805 306.954 102.519 309.38C105.834 311.547 110.088 312.422 113.928 312.276C112.255 315.641 111.567 319.471 111.312 323.246C111.034 327.348 111.285 331.465 112.057 335.521C112.791 339.375 113.836 343.379 115.721 346.838C117.484 350.073 120.033 352.431 123.5 353.431C125.089 353.889 126.726 354.114 128.358 354.284C129.965 354.451 131.574 354.602 133.185 354.505C136.235 354.323 139.539 353.329 141.155 350.451C141.738 349.413 142.344 348.144 142.66 346.982C142.774 346.565 142.837 346.294 142.487 346.01C142.067 345.669 141.485 345.478 141.002 345.252C138.252 343.968 136.187 341.822 135.035 338.923C133.866 335.982 133.639 331.842 136.262 329.719C139.501 327.098 144.053 327.891 147.79 328.765C147.877 323.535 149.556 318.396 153.43 314.97C157.715 311.179 163.314 309.37 167.83 305.893C169.007 304.986 170.188 303.999 170.863 302.615C171.144 302.036 171.459 301.299 171.456 300.635C171.451 299.762 170.737 299.22 170.157 298.694C167.08 295.906 157.013 291.304 152.376 291.157Z" fill="#191847"/>
<path fill-rule="evenodd" clip-rule="evenodd" d="M148.316 508.545L197.406 680.149L233.223 806.63H259.346L221.286 508.545H148.316Z" fill="#191847"/>
<path fill-rule="evenodd" clip-rule="evenodd" d="M135.188 508.545C134.052 596.991 130.18 645.233 128.988 653.268C127.796 661.304 109.769 712.425 74.9089 806.63H101.971C146.351 716.256 171.125 665.136 176.293 653.268C181.462 641.401 197.411 593.16 221.433 508.545H135.188Z" fill="#2F3676"/>
<path fill-rule="evenodd" clip-rule="evenodd" d="M72.4901 831.117L73.8441 802.683H102.279C115.762 812.161 133.364 819.834 155.086 825.701V831.117H103.633L86.0304 828.409V831.117H72.4901Z" fill="#191847"/>
<path fill-rule="evenodd" clip-rule="evenodd" d="M229.558 831.117L230.912 802.683H259.346C272.829 812.161 290.432 819.834 312.153 825.701V831.117H260.7L243.098 828.409V831.117H229.558Z" fill="#191847"/>
<path fill-rule="evenodd" clip-rule="evenodd" d="M258.685 472.797L304.925 499.657C316.902 501.557 327.043 504.423 335.347 508.254C337.368 509.734 339.955 512.889 332.236 513.111C324.518 513.332 316.409 513.911 315.625 516.621C314.84 519.332 319.8 521.951 318.031 525.684C316.852 528.172 309.512 523.019 296.009 510.225L251.637 497.157L258.685 472.797ZM73.821 490.243L98.0408 489.491C82.34 548.695 73.8527 580.038 72.5787 583.52C69.7122 591.354 76.7402 602.88 79.7899 609.099C70.7028 613.538 71.1649 598.282 59.7088 604.087C49.2522 609.385 41.475 618.588 28.9412 611.486C27.4002 610.612 25.6269 607.182 29.5294 604.312C39.2522 597.163 53.1913 584.762 54.9957 580.778C57.4564 575.347 63.7315 545.168 73.821 490.243Z" fill="#B28B67"/>
<path fill-rule="evenodd" clip-rule="evenodd" d="M155.641 377.03L169.426 369.634C197.98 415.481 236.005 458.007 292.583 489.613L284.054 512.771C236.086 494.953 191.442 482.414 168 447.12C160.132 435.275 157.889 392.456 155.641 377.03Z" fill="#C5CFD6"/>
<path fill-rule="evenodd" clip-rule="evenodd" d="M129.865 524.776C172.567 521.807 205.564 515.989 228.856 507.321C231.742 506.247 231.336 501.196 229.358 498.067C198.561 449.351 175.712 406.135 169.28 369.66C165.678 372.339 158.814 373.856 148.688 374.21C128.762 416.48 124.161 461.761 129.865 524.776Z" fill="#323337"/>
<path fill-rule="evenodd" clip-rule="evenodd" d="M141.531 372.223L152.598 370.272C157.833 384.897 201.967 587.67 238.835 650.046L103.082 673.983C95.2349 612.27 105.489 534.666 118.161 469.006C100.704 491.609 88.2366 526.891 80.7582 574.852L54.1849 572.841C58.7969 488.439 87.1623 421.999 139.281 373.522C139.357 373.206 139.432 372.892 139.507 372.58L140.487 372.407C140.807 372.114 141.127 371.82 141.449 371.528L141.531 372.223V372.223Z" fill="#DDE3E9"/>
</g>
<defs>
<filter id="filter0_d" x="307" y="419" width="329.047" height="413.324" filterUnits="userSpaceOnUse" color-interpolation-filters="sRGB">
<feFlood flood-opacity="0" result="BackgroundImageFix"/>
<feColorMatrix in="SourceAlpha" type="matrix" values="0 0 0 0 0 0 0 0 0 0 0 0 0 0 0 0 0 0 127 0"/>
<feOffset dy="4"/>
<feGaussianBlur stdDeviation="2"/>
<feColorMatrix type="matrix" values="0 0 0 0 0 0 0 0 0 0 0 0 0 0 0 0 0 0 0.25 0"/>
<feBlend mode="normal" in2="BackgroundImageFix" result="effect1_dropShadow"/>
<feBlend mode="normal" in="SourceGraphic" in2="effect1_dropShadow" result="shape"/>
</filter>
<filter id="filter1_d" x="618" y="236" width="483" height="608" filterUnits="userSpaceOnUse" color-interpolation-filters="sRGB">
<feFlood flood-opacity="0" result="BackgroundImageFix"/>
<feColorMatrix in="SourceAlpha" type="matrix" values="0 0 0 0 0 0 0 0 0 0 0 0 0 0 0 0 0 0 127 0"/>
<feOffset dy="4"/>
<feGaussianBlur stdDeviation="2"/>
<feColorMatrix type="matrix" values="0 0 0 0 0 0 0 0 0 0 0 0 0 0 0 0 0 0 0.25 0"/>
<feBlend mode="normal" in2="BackgroundImageFix" result="effect1_dropShadow"/>
<feBlend mode="normal" in="SourceGraphic" in2="effect1_dropShadow" result="shape"/>
</filter>
<filter id="filter2_d" x="-88" y="233" width="483" height="608" filterUnits="userSpaceOnUse" color-interpolation-filters="sRGB">
<feFlood flood-opacity="0" result="BackgroundImageFix"/>
<feColorMatrix in="SourceAlpha" type="matrix" values="0 0 0 0 0 0 0 0 0 0 0 0 0 0 0 0 0 0 127 0"/>
<feOffset dy="4"/>
<feGaussianBlur stdDeviation="2"/>
<feColorMatrix type="matrix" values="0 0 0 0 0 0 0 0 0 0 0 0 0 0 0 0 0 0 0.25 0"/>
<feBlend mode="normal" in2="BackgroundImageFix" result="effect1_dropShadow"/>
<feBlend mode="normal" in="SourceGraphic" in2="effect1_dropShadow" result="shape"/>
</filter>
</defs>
</svg>
