<svg width="1218" height="1194" viewBox="0 0 1218 1194" fill="none" xmlns="http://www.w3.org/2000/svg">
<g clip-path="url(#clip0)">
<path fill-rule="evenodd" clip-rule="evenodd" d="M679.056 608.405C671.66 609.975 665.031 609.677 662.46 607.972C656.014 603.699 664.324 577.582 673.333 569.27C682.341 560.958 712.033 566.253 706.453 586.967C704.516 594.157 699.401 599.401 693.277 603.005L688.49 642.099L665.81 634.25L679.056 608.405Z" fill="#B28B67"/>
<path fill-rule="evenodd" clip-rule="evenodd" d="M693.773 608.228C701.002 596.549 712.099 590.723 712.82 584.634C713.54 578.545 708.654 575.309 708.654 575.309C708.654 575.309 709.764 563.127 694.065 559.57C678.366 556.013 666.965 559.099 666.169 574.294C669.832 575.562 674.712 575.767 680.042 580.153C682.579 582.241 681.886 588.294 681.886 588.294L684.65 589.251C684.65 589.251 690.981 583.974 694.28 587.095C697.578 590.216 693.085 596.298 693.085 596.298L690.833 607.21L693.773 608.228Z" fill="#191847"/>
<path d="M462.035 839.008L444.167 841.097C432.751 842.431 423.351 850.685 420.551 861.832C417.802 872.783 421.984 884.306 431.117 890.943L438.498 896.307C447.436 902.803 454.467 911.578 458.858 921.717L461.752 928.4C472.057 952.194 496.706 966.456 522.471 963.531L536.31 961.96C557.948 959.504 579.56 966.792 595.292 981.851C619.385 1004.91 656.007 1008.81 684.417 991.343L706.156 977.975C716.279 971.75 727.929 968.455 739.811 968.455C768.06 968.455 788.573 941.588 781.13 914.337L766.042 859.094C763.328 849.156 765.434 838.52 771.732 830.367L774.538 826.734C793.556 802.113 783.094 766.105 753.844 755.507C734.965 741.728 709.094 742.72 691.326 757.906L681.539 766.271C673.482 773.157 663.231 776.94 652.632 776.94L602.405 776.94C589.924 776.94 577.495 778.532 565.417 781.677L545.618 786.831C527.203 791.626 510.882 802.36 499.186 817.37L498.172 818.672C489.333 830.014 476.317 837.339 462.035 839.008Z" fill="#DDE3E9" fill-opacity="0.4" stroke="#DDE3E9" stroke-opacity="0.4"/>
<path fill-rule="evenodd" clip-rule="evenodd" d="M495.487 865.131C518.177 843.836 533.733 827.881 542.155 817.268C556.576 799.096 568.565 782.816 572.501 776.512C581.889 761.48 558.829 750.825 552.405 757.567C542.681 767.772 520.412 800.979 485.598 857.19L495.487 865.131Z" fill="#B28B67"/>
<path fill-rule="evenodd" clip-rule="evenodd" d="M501.763 861.201C502.887 860.874 504.087 861.513 504.339 862.657C504.799 864.742 505.375 867.854 505.153 869.537C504.8 872.218 503.229 877.246 503.229 877.246C500.118 876.836 447.31 869.882 447.31 869.882C447.31 869.882 446.079 862.389 450.851 862.433C455.623 862.477 458.79 862.423 458.79 862.423L486.306 854.259C486.847 854.098 487.412 854.416 487.557 854.96L488.694 859.233C488.694 859.233 492.775 861.834 495.493 862.192C497.147 862.409 499.879 861.75 501.763 861.201Z" fill="#191847"/>
<path fill-rule="evenodd" clip-rule="evenodd" d="M536.456 863.466L584.893 776.684C594.872 761.015 558.743 745.094 552.002 752.11C536.697 768.038 496.68 833.551 492.12 838.296L536.456 863.466Z" fill="#2F3676"/>
<path fill-rule="evenodd" clip-rule="evenodd" d="M635.763 857.86C630.037 846.59 608.841 808.419 596.697 792.181C593.207 787.515 589.793 783.028 586.557 778.84C576.938 766.39 552.467 781.964 562.195 793.431C586.421 821.989 622.126 860.936 625.084 864.379C629.231 869.204 639.361 864.943 635.763 857.86Z" fill="#B28B67"/>
<path fill-rule="evenodd" clip-rule="evenodd" d="M631.732 853C632.542 852.154 633.901 852.108 634.691 852.972C636.132 854.548 638.186 856.956 638.836 858.524C639.871 861.023 641.024 866.162 641.024 866.162C638.125 867.363 588.915 887.744 588.915 887.744C588.915 887.744 584.102 881.871 588.257 879.523C592.411 877.175 595.127 875.544 595.127 875.544L614.875 854.716C615.263 854.307 615.911 854.299 616.309 854.698L619.43 857.829C619.43 857.829 624.264 858.042 626.797 856.993C628.339 856.354 630.375 854.417 631.732 853Z" fill="#101030"/>
<path fill-rule="evenodd" clip-rule="evenodd" d="M597.381 782.981C597.381 782.981 643.707 781.565 659.468 780.877C689.418 779.57 700.028 764.943 699.507 729.912L645.577 722.81C634.464 724.492 551.08 749.269 551.08 749.269C541.016 752.715 540.955 766.773 542.082 771.556C542.151 771.848 579.076 859.711 579.076 859.711L626.895 837.416L596.862 786.282C596.862 786.282 595.81 783.21 597.381 782.981Z" fill="#5C63AB"/>
<path fill-rule="evenodd" clip-rule="evenodd" d="M569.131 723.166L603.814 704.107L608.529 722.31L575.502 731.172C565.275 740.41 559.751 744.095 558.931 742.227C558.239 740.652 559.109 739.378 559.911 738.204C560.536 737.29 561.119 736.437 560.89 735.55C560.365 733.524 554.389 732.943 548.694 732.635C542.999 732.326 544.972 730.034 546.495 728.974C552.703 726.287 560.249 724.351 569.131 723.166ZM729.592 785.925C727.463 779.648 725.134 720.898 725.134 720.898L704.404 718.252C704.404 718.252 715.436 782.724 716.467 786.716C717.805 791.901 713.488 798.611 710.561 803.16C710.108 803.864 709.689 804.516 709.328 805.103C712.316 806.942 714.068 805.425 715.914 803.826C718 802.021 720.207 800.11 724.454 802.81C726.095 803.854 727.622 805.033 729.114 806.185C734.269 810.164 739.004 813.82 746.546 810.435C747.742 809.898 749.292 807.488 746.629 805.095C739.992 799.132 730.633 788.994 729.592 785.925Z" fill="#B28B67"/>
<path fill-rule="evenodd" clip-rule="evenodd" d="M677.703 626.208L669.323 623.608C633.896 646.898 613.88 697.966 571.208 720.796L579.061 733.665C647.803 734.197 673.047 672.015 677.703 626.208Z" fill="#E87613"/>
<path fill-rule="evenodd" clip-rule="evenodd" d="M700.888 738.867C700.888 738.867 649.326 732.077 625.031 728.878C621.565 728.421 622.877 723.502 623.711 721.043C633.332 692.655 660.044 664.207 665.508 622.714L687.841 622.165C702.106 653.655 703.645 690.316 700.888 738.867Z" fill="#DDE3E9"/>
<path fill-rule="evenodd" clip-rule="evenodd" d="M706.676 760.81C709.007 769.447 711.409 777.032 713.837 782.935L730.105 785.077C739.308 728.714 723.616 682.347 709.142 653.729C713.161 653.968 716.974 652.776 719.786 648.976C729.683 635.598 727.841 627.273 719.638 623.536C715.128 621.481 710.579 621.879 705.133 622.356C700.677 622.746 695.621 623.188 689.494 622.382C689.492 622.382 689.49 622.382 689.488 622.382C688.895 622.303 688.349 622.272 687.848 622.283L680.534 621.742C680.534 621.742 637.898 717.768 646.718 752.915L706.676 760.81Z" fill="#FF9B21"/>
<path fill-rule="evenodd" clip-rule="evenodd" d="M706.676 760.81C703.618 749.478 700.682 736.335 697.973 722.803C694.452 736.848 689.829 750.812 684.266 757.859L706.676 760.81Z" fill="black" fill-opacity="0.1"/>
<ellipse rx="4.51767" ry="4.58379" transform="matrix(0.201059 -1.01476 0.919087 0.295188 863.895 616.852)" fill="#C4C4C4"/>
<ellipse rx="3.38825" ry="4.58379" transform="matrix(0.201059 -1.01476 0.919087 0.295188 863.416 574.033)" fill="#C4C4C4"/>
<ellipse rx="4.82501" ry="4.57867" transform="matrix(-0.955188 -0.132865 0.022155 -1.03229 912.332 570.413)" fill="#C4C4C4"/>
<ellipse rx="4.82501" ry="4.57867" transform="matrix(-0.955188 -0.132865 0.022155 -1.03229 915.912 528.07)" fill="#C4C4C4"/>
<ellipse rx="4.51767" ry="4.58379" transform="matrix(0.201059 -1.01476 0.919087 0.295188 825.892 548.572)" fill="#C4C4C4"/>
<ellipse rx="4.51767" ry="5.72973" transform="matrix(0.201059 -1.01476 0.919087 0.295188 828.801 505.621)" fill="#C4C4C4"/>
<ellipse rx="4.51767" ry="5.72973" transform="matrix(0.201059 -1.01476 0.919087 0.295188 924.828 507.207)" fill="#C4C4C4"/>
<ellipse rx="4.51767" ry="5.72973" transform="matrix(0.201059 -1.01476 0.919087 0.295188 928.79 464.595)" fill="#C4C4C4"/>
<ellipse rx="4.51767" ry="5.72973" transform="matrix(0.201059 -1.01476 0.919087 0.295188 928.721 657.177)" fill="#C4C4C4"/>
<ellipse rx="4.51767" ry="5.72973" transform="matrix(0.201059 -1.01476 0.919087 0.295188 932.683 614.565)" fill="#C4C4C4"/>
<ellipse rx="4.51767" ry="4.58379" transform="matrix(0.201059 -1.01476 0.919087 0.295188 863.895 616.852)" fill="#C4C4C4"/>
<ellipse rx="4.51767" ry="5.72973" transform="matrix(0.201059 -1.01476 0.919087 0.295188 834.839 622.148)" fill="#C4C4C4"/>
<ellipse rx="4.51767" ry="4.58379" transform="matrix(0.201059 -1.01476 0.919087 0.295188 791.947 618.124)" fill="#C4C4C4"/>
<ellipse rx="3.23714" ry="4.77399" transform="matrix(0.690969 -0.740055 0.651683 0.744832 1054.35 351.218)" fill="#C4C4C4"/>
<ellipse rx="4.31618" ry="4.77399" transform="matrix(0.690969 -0.740055 0.651683 0.744832 1032.99 308.654)" fill="#C4C4C4"/>
<ellipse rx="4.31618" ry="5.96749" transform="matrix(0.690969 -0.740055 0.651683 0.744832 1055.94 275.461)" fill="#C4C4C4"/>
<ellipse rx="4.31618" ry="4.77399" transform="matrix(0.690969 -0.740055 0.651683 0.744832 969.782 345.357)" fill="#C4C4C4"/>
<ellipse rx="4.51767" ry="4.58379" transform="matrix(0.201059 -1.01476 0.919087 0.295188 843.332 698.017)" fill="#C4C4C4"/>
<ellipse rx="4.51767" ry="4.58379" transform="matrix(0.201059 -1.01476 0.919087 0.295188 986.717 483.199)" fill="#C4C4C4"/>
<ellipse rx="4.51767" ry="4.58379" transform="matrix(0.201059 -1.01476 0.919087 0.295188 982.967 603.896)" fill="#C4C4C4"/>
<ellipse rx="4.58194" ry="4.49702" transform="matrix(-0.826698 -0.512797 0.528844 -0.877907 913.313 377.828)" fill="#C4C4C4"/>
<ellipse rx="3.43646" ry="4.49702" transform="matrix(-0.826698 -0.512797 0.528844 -0.877907 875.413 365.165)" fill="#C4C4C4"/>
<ellipse rx="4.79112" ry="4.5779" transform="matrix(-0.388549 0.955275 -0.904393 -0.340228 885.977 313.386)" fill="#C4C4C4"/>
<ellipse rx="4.79112" ry="4.5779" transform="matrix(-0.388549 0.955275 -0.904393 -0.340228 849.638 296.665)" fill="#C4C4C4"/>
<ellipse rx="4.58194" ry="4.49702" transform="matrix(-0.826698 -0.512797 0.528844 -0.877907 842.403 396.21)" fill="#C4C4C4"/>
<ellipse rx="4.58194" ry="5.62128" transform="matrix(-0.826698 -0.512797 0.528844 -0.877907 805.339 379.998)" fill="#C4C4C4"/>
<ellipse rx="4.58194" ry="5.62128" transform="matrix(-0.826698 -0.512797 0.528844 -0.877907 833.744 281.019)" fill="#C4C4C4"/>
<ellipse rx="4.58194" ry="5.62128" transform="matrix(-0.826698 -0.512797 0.528844 -0.877907 797.275 263.821)" fill="#C4C4C4"/>
<ellipse rx="4.58194" ry="5.62128" transform="matrix(-0.826698 -0.512797 0.528844 -0.877907 967.111 323.072)" fill="#C4C4C4"/>
<ellipse rx="4.58194" ry="5.62128" transform="matrix(-0.826698 -0.512797 0.528844 -0.877907 930.642 305.874)" fill="#C4C4C4"/>
<ellipse rx="4.58194" ry="4.49702" transform="matrix(-0.826698 -0.512797 0.528844 -0.877907 913.313 377.828)" fill="#C4C4C4"/>
<ellipse rx="4.58194" ry="5.62128" transform="matrix(-0.826698 -0.512797 0.528844 -0.877907 909.813 409.552)" fill="#C4C4C4"/>
<ellipse rx="4.58194" ry="4.49702" transform="matrix(-0.826698 -0.512797 0.528844 -0.877907 894.201 452.744)" fill="#C4C4C4"/>
<ellipse rx="3.36705" ry="4.58942" transform="matrix(-0.44071 -0.906744 0.874004 -0.464077 732.589 98.9281)" fill="#C4C4C4"/>
<ellipse rx="4.48939" ry="4.58942" transform="matrix(-0.44071 -0.906744 0.874004 -0.464077 689.042 107.967)" fill="#C4C4C4"/>
<ellipse rx="4.48939" ry="4.58942" transform="matrix(-0.44071 -0.906744 0.874004 -0.464077 703.637 184.719)" fill="#C4C4C4"/>
<ellipse rx="4.58194" ry="4.49702" transform="matrix(-0.826698 -0.512797 0.528844 -0.877907 979.117 424.069)" fill="#C4C4C4"/>
<ellipse rx="4.58194" ry="4.49702" transform="matrix(-0.826698 -0.512797 0.528844 -0.877907 829.975 209.536)" fill="#C4C4C4"/>
<ellipse rx="4.58194" ry="4.49702" transform="matrix(-0.826698 -0.512797 0.528844 -0.877907 935.374 250.51)" fill="#C4C4C4"/>
<ellipse rx="3.95243" ry="3.99068" transform="matrix(0.725982 -0.677474 0.635154 0.780781 478.875 574.02)" fill="#C4C4C4"/>
<ellipse rx="2.96432" ry="3.99068" transform="matrix(0.725982 -0.677474 0.635154 0.780781 498.913 544.359)" fill="#C4C4C4"/>
<ellipse rx="4.22502" ry="3.97926" transform="matrix(-0.75092 -0.670343 0.585089 -0.802685 537.552 567.259)" fill="#C4C4C4"/>
<ellipse rx="4.22502" ry="3.97926" transform="matrix(-0.75092 -0.670343 0.585089 -0.802685 560.425 540.031)" fill="#C4C4C4"/>
<ellipse rx="3.95243" ry="3.99068" transform="matrix(0.725982 -0.677474 0.635154 0.780781 482.724 507.395)" fill="#C4C4C4"/>
<ellipse rx="3.95243" ry="4.98835" transform="matrix(0.725982 -0.677474 0.635154 0.780781 505.38 479.401)" fill="#C4C4C4"/>
<ellipse rx="3.95243" ry="4.98835" transform="matrix(0.725982 -0.677474 0.635154 0.780781 577.093 530.326)" fill="#C4C4C4"/>
<ellipse rx="3.95243" ry="4.98835" transform="matrix(0.725982 -0.677474 0.635154 0.780781 600.382 503.111)" fill="#C4C4C4"/>
<ellipse rx="3.95243" ry="4.98835" transform="matrix(0.725982 -0.677474 0.635154 0.780781 508.586 635.364)" fill="#C4C4C4"/>
<ellipse rx="3.95243" ry="4.98835" transform="matrix(0.725982 -0.677474 0.635154 0.780781 531.876 608.149)" fill="#C4C4C4"/>
<ellipse rx="3.95243" ry="3.99068" transform="matrix(0.725982 -0.677474 0.635154 0.780781 478.875 574.02)" fill="#C4C4C4"/>
<ellipse rx="3.95243" ry="4.98835" transform="matrix(0.725982 -0.677474 0.635154 0.780781 454.425 562.579)" fill="#C4C4C4"/>
<ellipse rx="3.95243" ry="3.99068" transform="matrix(0.725982 -0.677474 0.635154 0.780781 423.973 537.555)" fill="#C4C4C4"/>
<ellipse rx="2.87779" ry="4.10173" transform="matrix(0.983134 -0.168463 0.159415 0.989134 749.145 490.391)" fill="#C4C4C4"/>
<ellipse rx="3.83705" ry="4.10173" transform="matrix(0.983134 -0.168463 0.159415 0.989134 753.307 450.07)" fill="#C4C4C4"/>
<ellipse rx="3.83705" ry="5.12716" transform="matrix(0.983134 -0.168463 0.159415 0.989134 786.441 439.181)" fill="#C4C4C4"/>
<ellipse rx="3.83705" ry="4.10173" transform="matrix(0.983134 -0.168463 0.159415 0.989134 688.121 442.479)" fill="#C4C4C4"/>
<ellipse rx="3.95243" ry="3.99068" transform="matrix(0.725982 -0.677474 0.635154 0.780781 424.691 619.103)" fill="#C4C4C4"/>
<ellipse rx="3.95243" ry="3.99068" transform="matrix(0.725982 -0.677474 0.635154 0.780781 635.235 545.954)" fill="#C4C4C4"/>
<ellipse rx="3.95243" ry="3.99068" transform="matrix(0.725982 -0.677474 0.635154 0.780781 574.906 626.917)" fill="#C4C4C4"/>
<ellipse rx="3.95951" ry="3.98121" transform="matrix(-0.439252 -0.904102 0.923216 -0.371167 630.037 435.478)" fill="#C4C4C4"/>
<ellipse rx="2.96963" ry="3.98121" transform="matrix(-0.439252 -0.904102 0.923216 -0.371167 607.468 407.11)" fill="#C4C4C4"/>
<ellipse rx="4.22133" ry="3.97917" transform="matrix(-0.84931 0.515904 -0.598731 -0.808853 640.108 377.024)" fill="#C4C4C4"/>
<ellipse rx="4.22133" ry="3.97917" transform="matrix(-0.84931 0.515904 -0.598731 -0.808853 620.65 346.68)" fill="#C4C4C4"/>
<ellipse rx="3.95951" ry="3.98121" transform="matrix(-0.439252 -0.904102 0.923216 -0.371167 567.768 411.304)" fill="#C4C4C4"/>
<ellipse rx="3.95951" ry="4.97651" transform="matrix(-0.439252 -0.904102 0.923216 -0.371167 547.521 380.933)" fill="#C4C4C4"/>
<ellipse rx="3.95951" ry="4.97651" transform="matrix(-0.439252 -0.904102 0.923216 -0.371167 616.109 327.683)" fill="#C4C4C4"/>
<ellipse rx="3.95951" ry="4.97651" transform="matrix(-0.439252 -0.904102 0.923216 -0.371167 596.78 296.943)" fill="#C4C4C4"/>
<ellipse rx="3.95951" ry="4.97651" transform="matrix(-0.439252 -0.904102 0.923216 -0.371167 696.721 425.785)" fill="#C4C4C4"/>
<ellipse rx="3.95951" ry="4.97651" transform="matrix(-0.439252 -0.904102 0.923216 -0.371167 677.393 395.044)" fill="#C4C4C4"/>
<ellipse rx="3.95951" ry="3.98121" transform="matrix(-0.439252 -0.904102 0.923216 -0.371167 630.037 435.478)" fill="#C4C4C4"/>
<ellipse rx="3.95951" ry="4.97651" transform="matrix(-0.439252 -0.904102 0.923216 -0.371167 612.283 455.453)" fill="#C4C4C4"/>
<ellipse rx="3.95951" ry="3.98121" transform="matrix(-0.439252 -0.904102 0.923216 -0.371167 579.925 477.02)" fill="#C4C4C4"/>
<ellipse rx="2.89204" ry="4.08149" transform="matrix(0.115702 -0.991444 0.990248 0.151578 626.518 150.105)" fill="#C4C4C4"/>
<ellipse rx="3.85606" ry="4.08149" transform="matrix(0.115702 -0.991444 0.990248 0.151578 589.348 133.714)" fill="#C4C4C4"/>
<ellipse rx="3.85606" ry="4.08149" transform="matrix(0.115702 -0.991444 0.990248 0.151578 563.799 194.01)" fill="#C4C4C4"/>
<ellipse rx="3.95951" ry="3.98121" transform="matrix(-0.439252 -0.904102 0.923216 -0.371167 657.668 501.392)" fill="#C4C4C4"/>
<ellipse rx="3.95951" ry="3.98121" transform="matrix(-0.439252 -0.904102 0.923216 -0.371167 647.319 276.624)" fill="#C4C4C4"/>
<ellipse rx="3.95951" ry="3.98121" transform="matrix(-0.439252 -0.904102 0.923216 -0.371167 707.339 359.47)" fill="#C4C4C4"/>
<ellipse rx="3.9513" ry="3.99402" transform="matrix(-0.397929 0.914118 -0.885662 -0.469895 384.2 214.025)" fill="#C4C4C4"/>
<ellipse rx="2.96348" ry="3.99402" transform="matrix(-0.397929 0.914118 -0.885662 -0.469895 377.517 249.383)" fill="#C4C4C4"/>
<ellipse rx="4.22297" ry="3.98419" transform="matrix(0.949354 0.322494 -0.219724 0.972611 333.236 243.515)" fill="#C4C4C4"/>
<ellipse rx="4.22297" ry="3.98419" transform="matrix(0.949354 0.322494 -0.219724 0.972611 323.007 277.747)" fill="#C4C4C4"/>
<ellipse rx="3.9513" ry="3.99402" transform="matrix(-0.397929 0.914118 -0.885662 -0.469895 406.798 277.145)" fill="#C4C4C4"/>
<ellipse rx="3.9513" ry="4.99252" transform="matrix(-0.397929 0.914118 -0.885662 -0.469895 397.068 311.999)" fill="#C4C4C4"/>
<ellipse rx="3.9513" ry="4.99252" transform="matrix(-0.397929 0.914118 -0.885662 -0.469895 311.581 293.32)" fill="#C4C4C4"/>
<ellipse rx="3.9513" ry="4.99252" transform="matrix(-0.397929 0.914118 -0.885662 -0.469895 300.968 327.705)" fill="#C4C4C4"/>
<ellipse rx="3.9513" ry="4.99252" transform="matrix(-0.397929 0.914118 -0.885662 -0.469895 333.008 169.08)" fill="#C4C4C4"/>
<ellipse rx="3.9513" ry="4.99252" transform="matrix(-0.397929 0.914118 -0.885662 -0.469895 322.394 203.464)" fill="#C4C4C4"/>
<ellipse rx="3.9513" ry="3.99402" transform="matrix(-0.397929 0.914118 -0.885662 -0.469895 384.2 214.025)" fill="#C4C4C4"/>
<ellipse rx="3.9513" ry="4.99252" transform="matrix(-0.397929 0.914118 -0.885662 -0.469895 411.026 214.919)" fill="#C4C4C4"/>
<ellipse rx="3.9513" ry="3.99402" transform="matrix(-0.397929 0.914118 -0.885662 -0.469895 448.659 225.993)" fill="#C4C4C4"/>
<ellipse rx="2.86662" ry="4.11777" transform="matrix(-0.83554 0.54724 -0.53129 -0.848014 170.023 398.382)" fill="#C4C4C4"/>
<ellipse rx="3.82217" ry="4.11777" transform="matrix(-0.83554 0.54724 -0.53129 -0.848014 182.024 437.307)" fill="#C4C4C4"/>
<ellipse rx="3.82217" ry="5.14721" transform="matrix(-0.83554 0.54724 -0.53129 -0.848014 156.017 460.497)" fill="#C4C4C4"/>
<ellipse rx="3.82217" ry="4.11777" transform="matrix(-0.83554 0.54724 -0.53129 -0.848014 244.563 418.509)" fill="#C4C4C4"/>
<ellipse rx="3.9513" ry="3.99402" transform="matrix(-0.397929 0.914118 -0.885662 -0.469895 416.04 150.887)" fill="#C4C4C4"/>
<ellipse rx="3.9513" ry="3.99402" transform="matrix(-0.397929 0.914118 -0.885662 -0.469895 252.329 301.899)" fill="#C4C4C4"/>
<ellipse rx="3.9513" ry="3.99402" transform="matrix(-0.397929 0.914118 -0.885662 -0.469895 275.72 203.155)" fill="#C4C4C4"/>
<ellipse rx="3.96964" ry="3.96945" transform="matrix(0.753807 0.660199 -0.700164 0.710888 300.381 401.977)" fill="#C4C4C4"/>
<ellipse rx="2.97723" ry="3.96945" transform="matrix(0.753807 0.660199 -0.700164 0.710888 332.122 419.265)" fill="#C4C4C4"/>
<ellipse rx="4.21338" ry="3.98397" transform="matrix(0.574915 -0.814862 0.863084 0.510052 314.09 460.006)" fill="#C4C4C4"/>
<ellipse rx="4.21338" ry="3.98397" transform="matrix(0.574915 -0.814862 0.863084 0.510052 343.764 480.354)" fill="#C4C4C4"/>
<ellipse rx="3.96964" ry="3.96945" transform="matrix(0.753807 0.660199 -0.700164 0.710888 366.754 399.665)" fill="#C4C4C4"/>
<ellipse rx="3.96964" ry="4.96181" transform="matrix(0.753807 0.660199 -0.700164 0.710888 397.159 419.724)" fill="#C4C4C4"/>
<ellipse rx="3.96964" ry="4.96181" transform="matrix(0.753807 0.660199 -0.700164 0.710888 355.359 496.118)" fill="#C4C4C4"/>
<ellipse rx="3.96964" ry="4.96181" transform="matrix(0.753807 0.660199 -0.700164 0.710888 385.069 516.883)" fill="#C4C4C4"/>
<ellipse rx="3.96964" ry="4.96181" transform="matrix(0.753807 0.660199 -0.700164 0.710888 243.248 437.349)" fill="#C4C4C4"/>
<ellipse rx="3.96964" ry="4.96181" transform="matrix(0.753807 0.660199 -0.700164 0.710888 272.958 458.114)" fill="#C4C4C4"/>
<ellipse rx="3.96964" ry="3.96945" transform="matrix(0.753807 0.660199 -0.700164 0.710888 300.381 401.977)" fill="#C4C4C4"/>
<ellipse rx="3.96964" ry="4.96181" transform="matrix(0.753807 0.660199 -0.700164 0.710888 308.774 376.478)" fill="#C4C4C4"/>
<ellipse rx="3.96964" ry="3.96945" transform="matrix(0.753807 0.660199 -0.700164 0.710888 329.887 343.724)" fill="#C4C4C4"/>
<ellipse rx="2.90355" ry="4.06531" transform="matrix(0.281766 0.958611 -0.968079 0.253055 415.452 664.414)" fill="#C4C4C4"/>
<ellipse rx="3.8714" ry="4.06531" transform="matrix(0.281766 0.958611 -0.968079 0.253055 455.84 664.847)" fill="#C4C4C4"/>
<ellipse rx="3.8714" ry="4.06531" transform="matrix(0.281766 0.958611 -0.968079 0.253055 455.551 598.983)" fill="#C4C4C4"/>
<ellipse rx="3.96964" ry="3.96945" transform="matrix(0.753807 0.660199 -0.700164 0.710888 249.298 351.982)" fill="#C4C4C4"/>
<ellipse rx="3.96964" ry="3.96945" transform="matrix(0.753807 0.660199 -0.700164 0.710888 346.854 555.683)" fill="#C4C4C4"/>
<ellipse rx="3.96964" ry="3.96945" transform="matrix(0.753807 0.660199 -0.700164 0.710888 259.539 502.863)" fill="#C4C4C4"/>
<ellipse rx="4.61536" ry="4.49125" transform="matrix(0.999804 0.00736721 0.00630575 0.999809 819.734 314.716)" fill="#C4C4C4"/>
<ellipse rx="4.61536" ry="4.49125" transform="matrix(0.999804 0.00736721 0.00630575 0.999809 723.199 372.377)" fill="#C4C4C4"/>
<ellipse rx="4.61536" ry="4.49125" transform="matrix(0.999804 0.00736721 0.00630575 0.999809 768.834 291.89)" fill="#C4C4C4"/>
<ellipse rx="4.61536" ry="4.49125" transform="matrix(0.999804 0.00736721 0.00630575 0.999809 681.527 349.619)" fill="#C4C4C4"/>
<ellipse rx="4.61536" ry="4.49125" transform="matrix(0.999804 0.00736721 0.00630575 0.999809 649.481 389.795)" fill="#C4C4C4"/>
<ellipse rx="6.92304" ry="6.73687" transform="matrix(0.999804 0.00736721 0.00630575 0.999809 637.704 351.541)" fill="#C4C4C4"/>
<ellipse rx="4.59627" ry="4.50967" transform="matrix(-0.920255 0.390778 -0.396025 -0.918072 174.381 588.752)" fill="#C4C4C4"/>
<ellipse rx="4.59627" ry="4.50967" transform="matrix(-0.920255 0.390778 -0.396025 -0.918072 239.988 497.211)" fill="#C4C4C4"/>
<ellipse rx="4.59627" ry="4.50967" transform="matrix(-0.920255 0.390778 -0.396025 -0.918072 229.838 589.696)" fill="#C4C4C4"/>
<ellipse rx="4.59627" ry="4.50967" transform="matrix(-0.920255 0.390778 -0.396025 -0.918072 286.986 501.747)" fill="#C4C4C4"/>
<ellipse rx="4.59627" ry="4.50967" transform="matrix(-0.920255 0.390778 -0.396025 -0.918072 300.52 451.912)" fill="#C4C4C4"/>
<ellipse rx="6.89441" ry="6.76451" transform="matrix(-0.920255 0.390778 -0.396025 -0.918072 326.275 482.614)" fill="#C4C4C4"/>
<ellipse rx="5.18569" ry="5.23163" transform="matrix(0.802452 -0.596716 0.538924 0.842355 1008.37 130.211)" fill="#C4C4C4"/>
<ellipse rx="5.18569" ry="5.23163" transform="matrix(0.802452 -0.596716 0.538924 0.842355 957.635 252.482)" fill="#C4C4C4"/>
<ellipse rx="5.18569" ry="5.23163" transform="matrix(0.802452 -0.596716 0.538924 0.842355 948.498 142.214)" fill="#C4C4C4"/>
<ellipse rx="5.18569" ry="5.23163" transform="matrix(0.802452 -0.596716 0.538924 0.842355 906.087 258.297)" fill="#C4C4C4"/>
<ellipse rx="5.18569" ry="5.23163" transform="matrix(0.802452 -0.596716 0.538924 0.842355 902.333 319.62)" fill="#C4C4C4"/>
<ellipse rx="7.77853" ry="7.84744" transform="matrix(0.802452 -0.596716 0.538924 0.842355 867.964 289.897)" fill="#C4C4C4"/>
</g>
<defs>
<clipPath id="clip0">
<rect width="1218" height="1194" fill="white"/>
</clipPath>
</defs>
</svg>
