<svg width="817" height="825" viewBox="0 0 817 825" fill="none" xmlns="http://www.w3.org/2000/svg">
<path fill-rule="evenodd" clip-rule="evenodd" d="M456.056 430.405C448.66 431.975 442.031 431.677 439.46 429.972C433.014 425.699 441.324 399.582 450.333 391.27C459.341 382.958 489.033 388.253 483.453 408.967C481.516 416.157 476.401 421.401 470.277 425.005L465.49 464.099L442.81 456.25L456.056 430.405Z" fill="#B28B67"/>
<path fill-rule="evenodd" clip-rule="evenodd" d="M470.773 430.228C478.002 418.549 489.099 412.723 489.82 406.634C490.54 400.545 485.654 397.309 485.654 397.309C485.654 397.309 486.764 385.127 471.065 381.57C455.366 378.013 443.965 381.099 443.169 396.294C446.832 397.562 451.712 397.767 457.042 402.153C459.579 404.241 458.886 410.294 458.886 410.294L461.65 411.251C461.65 411.251 467.981 405.974 471.28 409.095C474.578 412.216 470.085 418.298 470.085 418.298L467.833 429.21L470.773 430.228Z" fill="#191847"/>
<path d="M239.035 661.008L221.167 663.097C209.751 664.431 200.351 672.685 197.551 683.832C194.802 694.783 198.984 706.306 208.117 712.943L215.498 718.307C224.436 724.803 231.467 733.578 235.858 743.717L238.752 750.4C249.057 774.194 273.706 788.456 299.471 785.531L313.31 783.96C334.948 781.504 356.56 788.792 372.292 803.851C396.385 826.91 433.007 830.81 461.417 813.343L483.156 799.975C493.279 793.75 504.929 790.455 516.811 790.455C545.06 790.455 565.573 763.588 558.13 736.337L543.042 681.094C540.328 671.156 542.434 660.52 548.732 652.367L551.538 648.734C570.556 624.113 560.094 588.105 530.844 577.507C511.965 563.728 486.094 564.72 468.326 579.906L458.539 588.271C450.482 595.157 440.231 598.94 429.632 598.94H379.405C366.924 598.94 354.495 600.532 342.417 603.677L322.618 608.831C304.203 613.626 287.882 624.36 276.186 639.37L275.172 640.672C266.333 652.014 253.317 659.339 239.035 661.008Z" fill="#DDE3E9" fill-opacity="0.4" stroke="#DDE3E9" stroke-opacity="0.4"/>
<path fill-rule="evenodd" clip-rule="evenodd" d="M272.487 687.131C295.177 665.836 310.733 649.881 319.155 639.268C333.576 621.096 345.565 604.816 349.501 598.512C358.889 583.48 335.829 572.825 329.405 579.567C319.681 589.772 297.412 622.979 262.598 679.19L272.487 687.131Z" fill="#B28B67"/>
<path fill-rule="evenodd" clip-rule="evenodd" d="M278.763 683.201C279.887 682.874 281.087 683.513 281.339 684.657C281.799 686.742 282.375 689.854 282.153 691.537C281.8 694.218 280.229 699.246 280.229 699.246C277.118 698.836 224.31 691.882 224.31 691.882C224.31 691.882 223.079 684.389 227.851 684.433C232.623 684.477 235.79 684.423 235.79 684.423L263.306 676.259C263.847 676.098 264.412 676.416 264.557 676.96L265.694 681.233C265.694 681.233 269.775 683.834 272.493 684.192C274.147 684.409 276.879 683.75 278.763 683.201Z" fill="#191847"/>
<path fill-rule="evenodd" clip-rule="evenodd" d="M313.456 685.466L361.893 598.684C371.872 583.015 335.743 567.094 329.002 574.11C313.697 590.038 273.68 655.551 269.12 660.296L313.456 685.466Z" fill="#2F3676"/>
<path fill-rule="evenodd" clip-rule="evenodd" d="M412.763 679.86C407.037 668.59 385.841 630.419 373.697 614.181C370.207 609.515 366.793 605.028 363.557 600.84C353.938 588.39 329.467 603.964 339.195 615.431C363.421 643.989 399.126 682.936 402.084 686.379C406.231 691.204 416.361 686.943 412.763 679.86Z" fill="#B28B67"/>
<path fill-rule="evenodd" clip-rule="evenodd" d="M408.732 675C409.542 674.154 410.901 674.108 411.691 674.972C413.132 676.548 415.186 678.956 415.836 680.524C416.871 683.023 418.024 688.162 418.024 688.162C415.125 689.363 365.915 709.744 365.915 709.744C365.915 709.744 361.102 703.871 365.257 701.523C369.411 699.175 372.127 697.544 372.127 697.544L391.875 676.716C392.263 676.307 392.911 676.299 393.309 676.698L396.43 679.829C396.43 679.829 401.264 680.042 403.797 678.993C405.339 678.354 407.375 676.417 408.732 675Z" fill="#101030"/>
<path fill-rule="evenodd" clip-rule="evenodd" d="M374.381 604.981C374.381 604.981 420.707 603.565 436.468 602.877C466.418 601.57 477.028 586.943 476.507 551.912L422.577 544.81C411.464 546.492 328.08 571.269 328.08 571.269C318.016 574.715 317.955 588.773 319.082 593.556C319.151 593.848 356.076 681.711 356.076 681.711L403.895 659.416L373.862 608.282C373.862 608.282 372.81 605.21 374.381 604.981Z" fill="#5C63AB"/>
<path fill-rule="evenodd" clip-rule="evenodd" d="M346.131 545.166L380.814 526.107L385.529 544.31L352.502 553.172C342.275 562.41 336.751 566.095 335.931 564.227C335.239 562.652 336.109 561.378 336.911 560.204C337.536 559.29 338.119 558.437 337.89 557.55C337.365 555.524 331.389 554.943 325.694 554.635C319.999 554.326 321.972 552.034 323.495 550.974C329.703 548.287 337.249 546.351 346.131 545.166ZM506.592 607.925C504.463 601.648 502.134 542.898 502.134 542.898L481.404 540.252C481.404 540.252 492.436 604.724 493.467 608.716C494.805 613.901 490.488 620.611 487.561 625.16C487.108 625.864 486.689 626.516 486.328 627.103C489.316 628.942 491.068 627.425 492.914 625.826C495 624.021 497.207 622.11 501.454 624.81C503.095 625.854 504.622 627.033 506.114 628.185C511.269 632.164 516.004 635.82 523.546 632.435C524.742 631.898 526.292 629.488 523.629 627.095C516.992 621.132 507.633 610.994 506.592 607.925Z" fill="#B28B67"/>
<path fill-rule="evenodd" clip-rule="evenodd" d="M454.703 448.208L446.323 445.608C410.896 468.898 390.88 519.966 348.208 542.796L356.061 555.665C424.803 556.197 450.047 494.015 454.703 448.208Z" fill="#E87613"/>
<path fill-rule="evenodd" clip-rule="evenodd" d="M477.888 560.867C477.888 560.867 426.326 554.077 402.031 550.878C398.565 550.421 399.877 545.502 400.711 543.043C410.332 514.655 437.044 486.207 442.508 444.714L464.841 444.165C479.106 475.655 480.645 512.316 477.888 560.867Z" fill="#DDE3E9"/>
<path fill-rule="evenodd" clip-rule="evenodd" d="M483.676 582.81C486.007 591.447 488.409 599.032 490.837 604.935L507.105 607.077C516.308 550.714 500.616 504.347 486.142 475.729C490.161 475.968 493.974 474.776 496.786 470.976C506.683 457.598 504.841 449.273 496.638 445.536C492.128 443.481 487.579 443.879 482.133 444.356C477.677 444.746 472.621 445.188 466.494 444.382C466.492 444.382 466.49 444.382 466.488 444.382C465.895 444.303 465.349 444.272 464.848 444.283L457.534 443.742C457.534 443.742 414.898 539.768 423.718 574.915L483.676 582.81Z" fill="#FF9B21"/>
<path fill-rule="evenodd" clip-rule="evenodd" d="M483.676 582.81C480.618 571.478 477.682 558.335 474.973 544.803C471.452 558.848 466.829 572.812 461.266 579.859L483.676 582.81Z" fill="black" fill-opacity="0.1"/>
<path d="M645.108 440.205C645.61 437.673 644.13 435.015 641.803 434.268C639.477 433.52 637.184 434.967 636.682 437.499C636.18 440.031 637.66 442.689 639.987 443.436C642.313 444.184 644.606 442.737 645.108 440.205Z" fill="white"/>
<path d="M644.629 397.386C645.005 395.487 643.424 393.342 641.097 392.595C638.771 391.847 636.579 392.781 636.203 394.68C635.827 396.579 637.408 398.724 639.735 399.471C642.061 400.219 644.253 399.285 644.629 397.386Z" fill="white"/>
<path d="M689.433 387.686C686.888 387.332 684.779 389.162 684.723 391.772C684.667 394.382 686.685 396.785 689.231 397.14C691.776 397.494 693.885 395.664 693.941 393.054C693.997 390.444 691.979 388.041 689.433 387.686Z" fill="white"/>
<path d="M693.013 345.343C690.468 344.989 688.359 346.819 688.303 349.429C688.247 352.039 690.265 354.442 692.811 354.796C695.356 355.151 697.465 353.321 697.521 350.711C697.577 348.101 695.559 345.698 693.013 345.343Z" fill="white"/>
<path d="M607.105 371.925C607.607 369.393 606.127 366.735 603.8 365.988C601.474 365.24 599.181 366.687 598.679 369.219C598.177 371.751 599.657 374.409 601.984 375.156C604.31 375.904 606.603 374.457 607.105 371.925Z" fill="white"/>
<path d="M611.067 329.312C611.569 326.781 609.618 323.971 606.709 323.037C603.801 322.103 601.037 323.398 600.535 325.93C600.033 328.462 601.984 331.271 604.893 332.205C607.801 333.139 610.566 331.844 611.067 329.312Z" fill="white"/>
<path d="M707.094 330.898C707.596 328.366 705.645 325.557 702.736 324.623C699.828 323.689 697.064 324.984 696.562 327.516C696.06 330.048 698.011 332.857 700.92 333.791C703.828 334.725 706.592 333.43 707.094 330.898Z" fill="white"/>
<path d="M711.056 288.286C711.558 285.754 709.607 282.945 706.698 282.011C703.79 281.077 701.026 282.372 700.524 284.904C700.022 287.436 701.973 290.245 704.882 291.179C707.79 292.113 710.554 290.818 711.056 288.286Z" fill="white"/>
<path d="M710.987 480.868C711.489 478.337 709.538 475.527 706.629 474.593C703.721 473.659 700.957 474.954 700.455 477.486C699.953 480.018 701.904 482.827 704.813 483.761C707.721 484.695 710.485 483.4 710.987 480.868Z" fill="white"/>
<path d="M714.949 438.256C715.451 435.725 713.5 432.915 710.591 431.981C707.683 431.047 704.919 432.342 704.417 434.874C703.915 437.406 705.866 440.215 708.775 441.149C711.683 442.083 714.447 440.788 714.949 438.256Z" fill="white"/>
<path d="M645.108 440.205C645.61 437.673 644.13 435.015 641.803 434.268C639.477 433.52 637.184 434.967 636.682 437.499C636.18 440.031 637.66 442.689 639.987 443.436C642.313 444.184 644.606 442.737 645.108 440.205Z" fill="white"/>
<path d="M617.105 445.839C617.607 443.308 615.656 440.498 612.747 439.564C609.839 438.63 607.075 439.925 606.573 442.457C606.071 444.989 608.022 447.798 610.931 448.732C613.839 449.666 616.603 448.371 617.105 445.839Z" fill="white"/>
<path d="M573.16 441.477C573.662 438.945 572.182 436.287 569.855 435.54C567.529 434.792 565.236 436.239 564.734 438.771C564.232 441.303 565.712 443.961 568.039 444.708C570.365 445.456 572.658 444.009 573.16 441.477Z" fill="white"/>
<path d="M813.101 134.21C814.748 132.446 814.691 129.424 812.972 127.46C811.254 125.496 808.526 125.334 806.879 127.098C805.232 128.862 805.289 131.884 807.008 133.848C808.726 135.812 811.454 135.974 813.101 134.21Z" fill="white"/>
<path d="M749.893 170.913C751.54 169.149 751.483 166.127 749.764 164.163C748.046 162.199 745.318 162.037 743.671 163.801C742.024 165.565 742.081 168.587 743.8 170.551C745.518 172.515 748.246 172.677 749.893 170.913Z" fill="white"/>
<path d="M624.545 521.37C625.047 518.838 623.567 516.18 621.24 515.433C618.914 514.685 616.621 516.132 616.119 518.664C615.617 521.196 617.097 523.854 619.424 524.601C621.75 525.349 624.043 523.902 624.545 521.37Z" fill="white"/>
<path d="M767.93 306.552C768.432 304.02 766.952 301.362 764.625 300.615C762.299 299.867 760.006 301.314 759.504 303.846C759.002 306.378 760.482 309.036 762.809 309.783C765.135 310.531 767.428 309.084 767.93 306.552Z" fill="white"/>
<path d="M764.18 427.249C764.682 424.717 763.202 422.059 760.875 421.312C758.549 420.564 756.256 422.011 755.754 424.543C755.252 427.075 756.732 429.733 759.059 430.48C761.385 431.228 763.678 429.781 764.18 427.249Z" fill="white"/>
<path d="M692.691 195.88C690.599 194.582 687.839 195.298 686.525 197.478C685.212 199.659 685.843 202.478 687.935 203.776C690.027 205.074 692.787 204.358 694.101 202.178C695.414 199.997 694.783 197.178 692.691 195.88Z" fill="white"/>
<path d="M654.791 183.217C653.222 182.244 650.886 183.222 649.572 185.403C648.259 187.583 648.466 190.14 650.035 191.113C651.604 192.086 653.94 191.108 655.254 188.927C656.567 186.747 656.36 184.19 654.791 183.217Z" fill="white"/>
<path d="M658.837 133.828C657.809 136.356 658.829 139.103 661.115 139.963C663.402 140.823 666.089 139.471 667.117 136.944C668.145 134.416 667.125 131.669 664.839 130.809C662.552 129.949 659.865 131.301 658.837 133.828Z" fill="white"/>
<path d="M622.498 117.107C621.47 119.635 622.49 122.382 624.776 123.242C627.063 124.102 629.75 122.75 630.778 120.223C631.806 117.695 630.786 114.948 628.5 114.088C626.213 113.228 623.526 114.58 622.498 117.107Z" fill="white"/>
<path d="M621.781 214.262C619.689 212.964 616.929 213.68 615.615 215.86C614.302 218.041 614.933 220.86 617.025 222.158C619.117 223.456 621.878 222.74 623.191 220.56C624.504 218.379 623.873 215.56 621.781 214.262Z" fill="white"/>
<path d="M585.312 197.063C583.22 195.765 580.193 196.923 578.551 199.648C576.909 202.374 577.274 205.635 579.366 206.933C581.458 208.231 584.485 207.073 586.127 204.348C587.769 201.622 587.404 198.361 585.312 197.063Z" fill="white"/>
<path d="M613.717 98.084C611.625 96.7864 608.598 97.9439 606.956 100.669C605.314 103.395 605.679 106.656 607.771 107.954C609.863 109.252 612.89 108.094 614.532 105.369C616.174 102.643 615.809 99.3817 613.717 98.084Z" fill="white"/>
<path d="M577.248 80.886C575.156 79.5884 572.129 80.7459 570.487 83.4714C568.845 86.1969 569.21 89.4583 571.302 90.756C573.394 92.0536 576.421 90.8961 578.063 88.1706C579.705 85.4451 579.34 82.1837 577.248 80.886Z" fill="white"/>
<path d="M747.084 140.137C744.992 138.839 741.965 139.997 740.323 142.722C738.681 145.448 739.046 148.709 741.138 150.007C743.23 151.305 746.257 150.147 747.899 147.422C749.541 144.696 749.176 141.435 747.084 140.137Z" fill="white"/>
<path d="M710.615 122.939C708.523 121.641 705.496 122.799 703.854 125.524C702.212 128.25 702.577 131.511 704.669 132.809C706.761 134.107 709.788 132.949 711.43 130.224C713.072 127.498 712.707 124.237 710.615 122.939Z" fill="white"/>
<path d="M692.691 195.88C690.599 194.582 687.839 195.298 686.525 197.478C685.212 199.659 685.843 202.478 687.935 203.776C690.027 205.074 692.787 204.358 694.101 202.178C695.414 199.997 694.783 197.178 692.691 195.88Z" fill="white"/>
<path d="M689.786 226.617C687.694 225.319 684.667 226.477 683.025 229.202C681.383 231.928 681.748 235.189 683.84 236.487C685.932 237.785 688.959 236.627 690.601 233.902C692.243 231.176 691.878 227.915 689.786 226.617Z" fill="white"/>
<path d="M673.579 270.796C671.487 269.498 668.727 270.214 667.413 272.394C666.1 274.575 666.731 277.394 668.823 278.692C670.915 279.99 673.675 279.274 674.989 277.094C676.302 274.913 675.671 272.094 673.579 270.796Z" fill="white"/>
<path d="M484.648 4.58917C483.556 2.34097 480.874 1.472 478.659 2.64829C476.443 3.82457 475.533 6.60066 476.626 8.84886C477.719 11.0971 480.4 11.966 482.616 10.7897C484.831 9.61346 485.741 6.83737 484.648 4.58917Z" fill="white"/>
<path d="M758.495 242.121C756.403 240.823 753.643 241.539 752.329 243.719C751.016 245.9 751.647 248.719 753.739 250.017C755.831 251.315 758.591 250.599 759.905 248.419C761.218 246.238 760.587 243.419 758.495 242.121Z" fill="white"/>
<path d="M609.353 27.588C607.261 26.2904 604.501 27.006 603.187 29.1864C601.874 31.3668 602.505 34.1863 604.597 35.484C606.689 36.7816 609.449 36.066 610.763 33.8856C612.076 31.7052 611.445 28.8857 609.353 27.588Z" fill="white"/>
<path d="M714.752 68.562C712.66 67.2644 709.9 67.98 708.586 70.1604C707.273 72.3408 707.904 75.1603 709.996 76.458C712.088 77.7556 714.848 77.04 716.162 74.8596C717.475 72.6792 716.844 69.8597 714.752 68.562Z" fill="white"/>
<path d="M258.41 399.136C259.994 397.657 260.144 395.063 258.744 393.342C257.345 391.622 254.925 391.425 253.34 392.904C251.756 394.383 251.606 396.977 253.006 398.698C254.405 400.419 256.825 400.615 258.41 399.136Z" fill="white"/>
<path d="M278.448 369.475C279.636 368.366 279.465 366.072 278.065 364.351C276.665 362.63 274.567 362.134 273.378 363.243C272.19 364.352 272.361 366.646 273.761 368.367C275.161 370.088 277.259 370.584 278.448 369.475Z" fill="white"/>
<path d="M316.88 386.065C315.128 384.501 312.665 384.663 311.379 386.427C310.094 388.191 310.472 390.889 312.224 392.453C313.976 394.017 316.439 393.855 317.725 392.091C319.01 390.327 318.632 387.629 316.88 386.065Z" fill="white"/>
<path d="M339.753 358.837C338.001 357.273 335.538 357.435 334.252 359.199C332.966 360.963 333.345 363.661 335.097 365.225C336.849 366.789 339.312 366.627 340.598 364.863C341.883 363.099 341.505 360.401 339.753 358.837Z" fill="white"/>
<path d="M262.259 332.511C263.843 331.032 263.993 328.438 262.593 326.717C261.193 324.996 258.774 324.8 257.189 326.279C255.605 327.758 255.455 330.352 256.855 332.073C258.254 333.793 260.674 333.99 262.259 332.511Z" fill="white"/>
<path d="M285.548 305.296C287.133 303.817 286.999 300.874 285.249 298.723C283.5 296.572 280.796 296.027 279.212 297.506C277.627 298.985 277.761 301.928 279.511 304.079C281.26 306.23 283.964 306.775 285.548 305.296Z" fill="white"/>
<path d="M357.261 356.221C358.846 354.742 358.712 351.799 356.962 349.648C355.213 347.497 352.509 346.952 350.925 348.431C349.34 349.91 349.474 352.853 351.224 355.004C352.973 357.155 355.677 357.7 357.261 356.221Z" fill="white"/>
<path d="M380.55 329.006C382.135 327.527 382.001 324.584 380.251 322.433C378.502 320.282 375.798 319.737 374.214 321.216C372.629 322.695 372.763 325.638 374.513 327.789C376.262 329.94 378.966 330.485 380.55 329.006Z" fill="white"/>
<path d="M288.754 461.259C290.339 459.78 290.205 456.837 288.455 454.686C286.706 452.535 284.002 451.99 282.418 453.469C280.833 454.948 280.967 457.891 282.717 460.042C284.466 462.193 287.17 462.738 288.754 461.259Z" fill="white"/>
<path d="M312.044 434.044C313.629 432.565 313.495 429.622 311.745 427.471C309.996 425.32 307.292 424.775 305.708 426.254C304.123 427.733 304.257 430.676 306.007 432.827C307.756 434.978 310.46 435.523 312.044 434.044Z" fill="white"/>
<path d="M258.41 399.136C259.994 397.657 260.144 395.063 258.744 393.342C257.345 391.622 254.925 391.425 253.34 392.904C251.756 394.383 251.606 396.977 253.006 398.698C254.405 400.419 256.825 400.615 258.41 399.136Z" fill="white"/>
<path d="M234.593 388.474C236.178 386.995 236.044 384.052 234.294 381.901C232.545 379.75 229.841 379.205 228.257 380.684C226.672 382.163 226.806 385.106 228.556 387.257C230.305 389.408 233.009 389.953 234.593 388.474Z" fill="white"/>
<path d="M203.508 362.671C205.092 361.192 205.242 358.598 203.842 356.877C202.443 355.156 200.023 354.96 198.438 356.439C196.854 357.918 196.704 360.512 198.104 362.233C199.503 363.954 201.923 364.15 203.508 362.671Z" fill="white"/>
<path d="M526.799 316.448C528.361 316.18 529.335 314.147 528.974 311.906C528.613 309.665 527.054 308.066 525.491 308.334C523.929 308.602 522.955 310.635 523.316 312.876C523.677 315.117 525.236 316.716 526.799 316.448Z" fill="white"/>
<path d="M530.961 276.127C533.044 275.77 534.44 273.664 534.079 271.424C533.718 269.183 531.737 267.656 529.653 268.013C527.57 268.37 526.174 270.476 526.535 272.716C526.896 274.957 528.877 276.484 530.961 276.127Z" fill="white"/>
<path d="M564.258 266.252C566.342 265.895 567.665 263.335 567.213 260.535C566.762 257.734 564.707 255.753 562.624 256.11C560.54 256.467 559.217 259.027 559.669 261.827C560.12 264.628 562.175 266.609 564.258 266.252Z" fill="white"/>
<path d="M465.775 268.536C467.858 268.179 469.254 266.073 468.893 263.833C468.532 261.592 466.551 260.065 464.467 260.422C462.384 260.779 460.988 262.885 461.349 265.125C461.71 267.366 463.691 268.893 465.775 268.536Z" fill="white"/>
<path d="M204.226 444.219C205.81 442.74 205.96 440.146 204.56 438.425C203.16 436.704 200.741 436.508 199.156 437.987C197.572 439.466 197.422 442.06 198.822 443.781C200.221 445.502 202.641 445.698 204.226 444.219Z" fill="white"/>
<path d="M414.77 371.07C416.354 369.591 416.504 366.997 415.104 365.276C413.705 363.555 411.285 363.359 409.7 364.838C408.116 366.317 407.966 368.911 409.366 370.632C410.765 372.352 413.185 372.549 414.77 371.07Z" fill="white"/>
<path d="M354.441 452.033C356.025 450.554 356.175 447.96 354.775 446.239C353.375 444.519 350.956 444.322 349.371 445.801C347.787 447.28 347.637 449.874 349.037 451.595C350.436 453.316 352.856 453.512 354.441 452.033Z" fill="white"/>
<path d="M410.713 256C409.752 254.023 407.328 253.082 405.298 253.898C403.268 254.714 402.401 256.979 403.361 258.956C404.322 260.933 406.746 261.874 408.776 261.058C410.806 260.242 411.673 257.977 410.713 256Z" fill="white"/>
<path d="M388.144 227.632C387.423 226.149 385.194 225.609 383.164 226.425C381.134 227.241 380.072 229.105 380.793 230.588C381.513 232.071 383.743 232.611 385.772 231.795C387.802 230.979 388.864 229.115 388.144 227.632Z" fill="white"/>
<path d="M414.726 195.805C412.746 197.008 412.207 199.424 413.523 201.202C414.839 202.979 417.51 203.445 419.49 202.243C421.471 201.04 422.009 198.624 420.693 196.846C419.377 195.069 416.706 194.603 414.726 195.805Z" fill="white"/>
<path d="M395.268 165.461C393.287 166.664 392.749 169.08 394.065 170.858C395.381 172.635 398.052 173.101 400.032 171.899C402.013 170.696 402.551 168.28 401.235 166.502C399.919 164.725 397.248 164.259 395.268 165.461Z" fill="white"/>
<path d="M348.444 231.826C347.483 229.849 345.059 228.908 343.029 229.724C340.999 230.54 340.132 232.805 341.093 234.782C342.053 236.759 344.477 237.7 346.507 236.884C348.537 236.068 349.404 233.803 348.444 231.826Z" fill="white"/>
<path d="M329.115 201.086C328.155 199.109 325.319 198.333 322.782 199.353C320.244 200.373 318.966 202.803 319.927 204.78C320.887 206.757 323.723 207.533 326.26 206.513C328.798 205.493 330.076 203.063 329.115 201.086Z" fill="white"/>
<path d="M397.703 147.836C396.743 145.859 393.907 145.083 391.37 146.103C388.832 147.123 387.554 149.553 388.515 151.53C389.475 153.507 392.311 154.283 394.848 153.263C397.386 152.243 398.664 149.813 397.703 147.836Z" fill="white"/>
<path d="M378.374 117.096C377.414 115.119 374.578 114.343 372.041 115.363C369.503 116.383 368.225 118.813 369.186 120.79C370.146 122.767 372.982 123.543 375.519 122.523C378.057 121.503 379.335 119.073 378.374 117.096Z" fill="white"/>
<path d="M478.315 245.938C477.355 243.961 474.519 243.185 471.982 244.205C469.444 245.225 468.166 247.655 469.127 249.632C470.087 251.609 472.923 252.385 475.46 251.365C477.998 250.345 479.276 247.915 478.315 245.938Z" fill="white"/>
<path d="M458.987 215.197C458.027 213.22 455.191 212.444 452.654 213.464C450.116 214.484 448.838 216.914 449.799 218.891C450.759 220.868 453.595 221.644 456.132 220.624C458.67 219.604 459.948 217.174 458.987 215.197Z" fill="white"/>
<path d="M410.713 256C409.752 254.023 407.328 253.082 405.298 253.898C403.268 254.714 402.401 256.979 403.361 258.956C404.322 260.933 406.746 261.874 408.776 261.058C410.806 260.242 411.673 257.977 410.713 256Z" fill="white"/>
<path d="M393.877 275.606C392.917 273.629 390.081 272.853 387.544 273.873C385.006 274.893 383.728 277.323 384.689 279.3C385.649 281.277 388.485 282.053 391.022 281.033C393.56 280.013 394.838 277.583 393.877 275.606Z" fill="white"/>
<path d="M360.601 297.542C359.64 295.565 357.216 294.624 355.186 295.44C353.156 296.256 352.289 298.521 353.249 300.498C354.21 302.475 356.634 303.416 358.664 302.6C360.694 301.784 361.561 299.519 360.601 297.542Z" fill="white"/>
<path d="M344.841 16.6287C345.087 14.5173 343.477 12.5286 341.245 12.1869C339.013 11.8453 337.004 13.2799 336.757 15.3913C336.511 17.5028 338.121 19.4914 340.353 19.8331C342.585 20.1748 344.594 18.7401 344.841 16.6287Z" fill="white"/>
<path d="M438.343 321.914C437.383 319.937 434.959 318.996 432.929 319.812C430.899 320.628 430.032 322.893 430.992 324.87C431.953 326.847 434.377 327.788 436.407 326.972C438.437 326.156 439.304 323.891 438.343 321.914Z" fill="white"/>
<path d="M427.995 97.1463C427.034 95.1692 424.61 94.2281 422.58 95.0442C420.55 95.8603 419.683 98.1246 420.643 100.102C421.604 102.079 424.028 103.02 426.058 102.204C428.088 101.388 428.955 99.1234 427.995 97.1463Z" fill="white"/>
<path d="M488.015 179.992C487.054 178.015 484.63 177.074 482.6 177.89C480.57 178.706 479.703 180.971 480.664 182.948C481.624 184.925 484.048 185.866 486.078 185.05C488.108 184.234 488.975 181.969 488.015 179.992Z" fill="white"/>
<path d="M157.663 34.1482C156.794 36.1431 157.674 38.6005 159.628 39.637C161.581 40.6735 163.869 39.8966 164.737 37.9018C165.606 35.907 164.726 33.4496 162.772 32.4131C160.819 31.3765 158.531 32.1534 157.663 34.1482Z" fill="white"/>
<path d="M150.98 69.5062C150.328 71.0024 151.384 73.0555 153.338 74.092C155.291 75.1285 157.403 74.7559 158.054 73.2598C158.706 71.7637 157.65 69.7106 155.696 68.674C153.743 67.6375 151.631 68.0101 150.98 69.5062Z" fill="white"/>
<path d="M109.361 69.3901C111.575 70.1422 113.762 69.017 114.245 66.8769C114.729 64.7367 113.326 62.3921 111.111 61.6399C108.897 60.8878 106.71 62.013 106.227 64.1531C105.743 66.2933 107.146 68.6379 109.361 69.3901Z" fill="white"/>
<path d="M99.1316 103.622C101.346 104.374 103.533 103.249 104.016 101.109C104.5 98.9687 103.097 96.6241 100.882 95.8719C98.6683 95.1198 96.4814 96.245 95.9979 98.3851C95.5144 100.525 96.9174 102.87 99.1316 103.622Z" fill="white"/>
<path d="M180.261 97.2682C179.392 99.2631 180.272 101.72 182.226 102.757C184.179 103.793 186.467 103.017 187.335 101.022C188.204 99.027 187.324 96.5696 185.37 95.5331C183.417 94.4966 181.129 95.2734 180.261 97.2682Z" fill="white"/>
<path d="M169.646 131.653C168.778 133.648 170.054 136.315 172.496 137.611C174.938 138.907 177.621 138.34 178.49 136.345C179.358 134.35 178.082 131.683 175.64 130.387C173.198 129.091 170.515 129.658 169.646 131.653Z" fill="white"/>
<path d="M84.1593 112.974C83.2909 114.969 84.5666 117.636 87.0087 118.932C89.4507 120.228 92.1343 119.661 93.0027 117.666C93.8711 115.671 92.5954 113.004 90.1533 111.708C87.7113 110.412 85.0277 110.979 84.1593 112.974Z" fill="white"/>
<path d="M73.5463 147.359C72.678 149.354 73.9536 152.021 76.3957 153.317C78.8377 154.613 81.5213 154.046 82.3897 152.051C83.258 150.056 81.9824 147.389 79.5403 146.093C77.0983 144.797 74.4147 145.364 73.5463 147.359Z" fill="white"/>
<path d="M94.9723 23.1181C94.104 25.1129 95.3796 27.7803 97.8217 29.076C100.264 30.3716 102.947 29.8048 103.816 27.81C104.684 25.8152 103.408 23.1477 100.966 21.8521C98.5243 20.5564 95.8407 21.1232 94.9723 23.1181Z" fill="white"/>
<path d="M157.663 34.1482C156.794 36.1431 157.674 38.6005 159.628 39.637C161.581 40.6735 163.869 39.8966 164.737 37.9018C165.606 35.907 164.726 33.4496 162.772 32.4131C160.819 31.3765 158.531 32.1534 157.663 34.1482Z" fill="white"/>
<path d="M183.604 34.573C182.736 36.5679 184.012 39.2353 186.454 40.531C188.896 41.8266 191.579 41.2598 192.448 39.265C193.316 37.2701 192.04 34.6027 189.598 33.3071C187.156 32.0114 184.473 32.5782 183.604 34.573Z" fill="white"/>
<path d="M222.122 46.1162C221.253 48.1111 222.133 50.5684 224.087 51.605C226.04 52.6415 228.328 51.8646 229.196 49.8698C230.065 47.8749 229.185 45.4176 227.231 44.381C225.278 43.3445 222.99 44.1214 222.122 46.1162Z" fill="white"/>
<path d="M74.6018 226.799C76.2544 228.246 78.8384 228.156 80.3733 226.598C81.9083 225.039 81.8129 222.603 80.1603 221.155C78.5076 219.708 75.9236 219.798 74.3887 221.356C72.8537 222.915 72.9491 225.351 74.6018 226.799Z" fill="white"/>
<path d="M106.343 244.087C107.582 245.172 109.831 244.789 111.366 243.231C112.901 241.672 113.141 239.529 111.901 238.443C110.662 237.358 108.413 237.741 106.878 239.299C105.343 240.858 105.103 243.001 106.343 244.087Z" fill="white"/>
<path d="M94.5285 284.038C95.8663 282.142 95.4114 279.695 93.5123 278.573C91.6133 277.45 88.9893 278.078 87.6515 279.974C86.3137 281.87 86.7687 284.317 88.6677 285.439C90.5667 286.562 93.1907 285.934 94.5285 284.038Z" fill="white"/>
<path d="M124.203 304.386C125.54 302.49 125.085 300.043 123.186 298.921C121.287 297.798 118.663 298.426 117.326 300.322C115.988 302.218 116.443 304.665 118.342 305.787C120.241 306.91 122.865 306.282 124.203 304.386Z" fill="white"/>
<path d="M140.975 224.487C142.627 225.934 145.211 225.844 146.746 224.286C148.281 222.727 148.186 220.291 146.533 218.843C144.881 217.396 142.297 217.486 140.762 219.044C139.227 220.603 139.322 223.039 140.975 224.487Z" fill="white"/>
<path d="M170.685 245.251C172.338 246.699 175.233 246.293 177.151 244.345C179.07 242.397 179.286 239.644 177.633 238.197C175.98 236.749 173.085 237.155 171.167 239.103C169.248 241.051 169.032 243.804 170.685 245.251Z" fill="white"/>
<path d="M128.885 321.645C130.538 323.093 133.433 322.687 135.351 320.739C137.27 318.791 137.486 316.038 135.833 314.591C134.18 313.143 131.285 313.549 129.367 315.497C127.448 317.445 127.232 320.198 128.885 321.645Z" fill="white"/>
<path d="M158.595 342.41C160.248 343.858 163.143 343.452 165.061 341.504C166.98 339.556 167.196 336.803 165.543 335.356C163.89 333.908 160.995 334.314 159.077 336.262C157.158 338.21 156.942 340.963 158.595 342.41Z" fill="white"/>
<path d="M16.7739 262.876C18.4265 264.324 21.3217 263.918 23.2403 261.97C25.159 260.022 25.3747 257.269 23.7221 255.822C22.0695 254.374 19.1743 254.78 17.2557 256.728C15.337 258.676 15.1213 261.429 16.7739 262.876Z" fill="white"/>
<path d="M46.4839 283.641C48.1366 285.089 51.0317 284.683 52.9504 282.735C54.869 280.787 55.0847 278.034 53.4321 276.587C51.7795 275.139 48.8844 275.545 46.9657 277.493C45.047 279.441 44.8313 282.194 46.4839 283.641Z" fill="white"/>
<path d="M74.6018 226.799C76.2544 228.246 78.8384 228.156 80.3733 226.598C81.9083 225.039 81.8129 222.603 80.1603 221.155C78.5076 219.708 75.9236 219.798 74.3887 221.356C72.8537 222.915 72.9491 225.351 74.6018 226.799Z" fill="white"/>
<path d="M82.2999 202.005C83.9526 203.453 86.8477 203.047 88.7664 201.099C90.6851 199.151 90.9007 196.398 89.2481 194.951C87.5955 193.503 84.7004 193.909 82.7817 195.857C80.863 197.805 80.6473 200.558 82.2999 202.005Z" fill="white"/>
<path d="M104.108 168.546C105.76 169.993 108.344 169.903 109.879 168.345C111.414 166.786 111.319 164.35 109.666 162.902C108.014 161.455 105.43 161.545 103.895 163.103C102.36 164.662 102.455 167.098 104.108 168.546Z" fill="white"/>
<path d="M188.516 487.443C188.968 488.98 191.097 489.766 193.27 489.197C195.444 488.629 196.839 486.923 196.388 485.385C195.936 483.848 193.807 483.063 191.634 483.631C189.46 484.199 188.065 485.906 188.516 487.443Z" fill="white"/>
<path d="M228.904 487.876C229.507 489.925 231.757 491.126 233.931 490.558C236.104 489.99 237.378 487.868 236.776 485.818C236.173 483.769 233.923 482.568 231.749 483.136C229.576 483.704 228.302 485.826 228.904 487.876Z" fill="white"/>
<path d="M228.615 422.012C229.218 424.061 231.468 425.262 233.642 424.694C235.815 424.126 237.089 422.004 236.487 419.954C235.884 417.905 233.634 416.704 231.46 417.272C229.287 417.84 228.013 419.962 228.615 422.012Z" fill="white"/>
<path d="M23.5188 176.804C25.1714 178.251 27.7554 178.161 29.2904 176.603C30.8253 175.044 30.7299 172.608 29.0773 171.16C27.4247 169.713 24.8406 169.803 23.3057 171.361C21.7708 172.92 21.8662 175.356 23.5188 176.804Z" fill="white"/>
<path d="M121.075 380.505C122.727 381.952 125.311 381.862 126.846 380.304C128.381 378.745 128.286 376.309 126.633 374.861C124.981 373.414 122.397 373.504 120.862 375.062C119.327 376.621 119.422 379.057 121.075 380.505Z" fill="white"/>
<path d="M33.7597 327.685C35.4124 329.132 37.9964 329.042 39.5313 327.484C41.0663 325.925 40.9709 323.489 39.3183 322.041C37.6656 320.594 35.0816 320.684 33.5467 322.242C32.0117 323.801 32.1071 326.237 33.7597 327.685Z" fill="white"/>
<path d="M596.762 141.206C599.311 141.225 601.364 139.23 601.348 136.75C601.333 134.27 599.254 132.244 596.706 132.226C594.157 132.207 592.104 134.202 592.12 136.682C592.135 139.162 594.214 141.188 596.762 141.206Z" fill="white"/>
<path d="M500.227 198.867C502.776 198.886 504.829 196.891 504.813 194.411C504.798 191.931 502.719 189.905 500.171 189.887C497.622 189.868 495.569 191.863 495.585 194.343C495.6 196.823 497.679 198.849 500.227 198.867Z" fill="white"/>
<path d="M545.862 118.38C548.411 118.399 550.464 116.404 550.448 113.924C550.433 111.444 548.354 109.418 545.806 109.4C543.257 109.381 541.204 111.376 541.22 113.856C541.235 116.336 543.314 118.362 545.862 118.38Z" fill="white"/>
<path d="M458.555 176.109C461.104 176.128 463.157 174.133 463.141 171.653C463.126 169.173 461.047 167.147 458.499 167.129C455.95 167.11 453.897 169.105 453.913 171.585C453.928 174.065 456.007 176.091 458.555 176.109Z" fill="white"/>
<path d="M426.509 216.285C429.058 216.304 431.111 214.309 431.095 211.829C431.08 209.349 429.001 207.323 426.453 207.305C423.904 207.286 421.851 209.281 421.867 211.761C421.882 214.241 423.961 216.267 426.509 216.285Z" fill="white"/>
<path d="M414.746 180.277C418.569 180.305 421.649 177.312 421.626 173.592C421.602 169.872 418.484 166.834 414.661 166.805C410.839 166.777 407.759 169.77 407.782 173.49C407.806 177.21 410.924 180.248 414.746 180.277Z" fill="white"/>
<path d="M5.05207 407.556C2.71605 408.548 1.62193 411.206 2.60828 413.492C3.59462 415.779 6.28794 416.828 8.62396 415.836C10.96 414.844 12.0541 412.186 11.0678 409.9C10.0814 407.613 7.3881 406.564 5.05207 407.556Z" fill="white"/>
<path d="M62.2 319.607C59.864 320.599 58.7699 323.257 59.7562 325.543C60.7426 327.83 63.4359 328.879 65.7719 327.887C68.108 326.895 69.2021 324.237 68.2157 321.951C67.2294 319.664 64.5361 318.615 62.2 319.607Z" fill="white"/>
<path d="M75.7341 269.772C73.398 270.764 72.3039 273.422 73.2903 275.708C74.2766 277.995 76.9699 279.044 79.306 278.052C81.642 277.06 82.7361 274.402 81.7498 272.116C80.7634 269.829 78.0701 268.78 75.7341 269.772Z" fill="white"/>
<path d="M100.596 298.404C97.092 299.892 95.4509 303.878 96.9304 307.308C98.4099 310.738 102.45 312.312 105.954 310.824C109.458 309.336 111.099 305.35 109.62 301.92C108.14 298.49 104.1 296.916 100.596 298.404Z" fill="white"/>
<path d="M737.454 78.8889C739.753 77.1799 740.353 73.8215 738.796 71.3876C737.239 68.9538 734.114 68.3661 731.816 70.0751C729.517 71.7841 728.917 75.1425 730.474 77.5764C732.031 80.0102 735.156 80.5979 737.454 78.8889Z" fill="white"/>
<path d="M685.906 84.7039C688.205 82.9949 688.805 79.6365 687.248 77.2026C685.691 74.7688 682.566 74.1811 680.268 75.8901C677.969 77.5991 677.369 80.9575 678.926 83.3914C680.483 85.8252 683.608 86.4129 685.906 84.7039Z" fill="white"/>
<path d="M682.152 146.027C684.451 144.318 685.051 140.959 683.494 138.526C681.937 136.092 678.812 135.504 676.514 137.213C674.215 138.922 673.615 142.281 675.172 144.714C676.729 147.148 679.854 147.736 682.152 146.027Z" fill="white"/>
<path d="M649.193 118.507C652.64 115.944 653.542 110.906 651.206 107.255C648.87 103.605 644.182 102.723 640.735 105.287C637.288 107.85 636.386 112.888 638.722 116.539C641.058 120.189 645.746 121.071 649.193 118.507Z" fill="white"/>
</svg>
