<svg width="1036" height="763" viewBox="0 0 1036 763" fill="none" xmlns="http://www.w3.org/2000/svg">
<path fill-rule="evenodd" clip-rule="evenodd" d="M1006.57 221.785C1005.78 221.215 1003.92 221.013 1003.06 220.842C999.457 220.132 995.749 219.823 992.08 219.823C980.767 219.84 969.269 220.951 958.144 222.873C951.08 224.093 942.54 228.2 935.514 225.97C923.272 222.084 910.899 222.275 899.285 227.822C888.666 232.894 880.605 242.528 875.901 252.937C875.192 254.509 872.312 260.292 871.497 264.191C871.148 264.988 870.814 265.79 870.512 266.605C869.655 268.918 868.887 271.271 868.173 273.629C867.868 274.635 867.101 276.856 868.012 277.286C866.557 279.972 865.267 282.74 864.192 285.598C861.067 293.909 857.65 303.026 856.552 311.835C856.145 315.097 856.13 318.377 856.508 321.646C856.694 323.261 856.617 326.509 857.712 327.738C860.037 330.344 861.23 326.695 860.968 324.957C858.967 311.713 862.83 299.275 867.409 286.825C870.37 278.774 875.235 271.409 880.685 264.739C885.095 259.34 889.827 255.088 895.872 251.508C903.266 247.131 911.17 243.592 919.002 240.042C924.153 237.707 929.31 235.434 934.605 233.421C935.782 232.974 937.635 231.826 938.94 231.821C941.701 231.811 945.613 233.848 948.279 234.606C957.05 237.1 965.933 240.292 974.998 241.566C980.812 242.383 986.259 241.463 991.696 239.526C992.252 239.329 993.183 238.82 994.325 238.094C998.361 236.541 1002.18 234.586 1005.51 231.767C1007.42 230.142 1009.16 228.043 1010.74 226.121C1011.22 225.547 1011.43 224.888 1011.44 224.262C1011.8 224.074 1012.03 223.855 1012.09 223.599C1012.48 221.708 1008.88 221.673 1006.57 221.785Z" fill="#89C5CC"/>
<path fill-rule="evenodd" clip-rule="evenodd" d="M87.5196 379.442C85.3001 381.239 83.1232 383.076 80.9993 384.986C79.3808 386.442 76.5163 388.184 75.9352 390.39C75.3312 392.682 77.2381 394.828 78.7446 396.213C86.7108 403.542 95.681 408.497 106.72 409.321C123.716 410.59 138.508 406.25 153.255 397.71C163.614 391.71 170.476 382.836 171.975 370.854C184.311 375.981 196.243 383.048 206.382 391.722C211.385 396.002 215.694 400.743 219.68 405.999C222.232 409.366 224.701 412.787 226.993 416.339C227.989 417.883 229.001 420.62 230.646 421.509C232.577 422.553 234.91 420.917 234.814 418.77C234.734 416.984 232.805 414.912 231.904 413.451C230.405 411.026 228.885 408.617 227.283 406.258C224.693 402.44 222.015 398.676 219.094 395.102C212.53 387.074 204.178 380.442 195.521 374.787C178.912 363.937 160.684 357.101 140.475 356.522C128.049 356.166 117.595 360.412 106.969 366.752C100.353 370.699 93.5232 374.581 87.5196 379.442Z" fill="#DDE3E9"/>
<path fill-rule="evenodd" clip-rule="evenodd" d="M248.711 326.964C235.761 313.628 222.767 300.458 208.299 288.715C199.773 281.796 190.787 275.504 181.986 268.943C183.002 269.832 183.998 270.747 184.97 271.685C182.223 269.82 178.627 268.766 175.714 267.04C172.466 265.115 169.36 262.913 166.314 260.693C160.369 256.36 154.513 251.946 148.402 247.84C141.593 243.265 134.536 239.038 127.611 234.636C121.734 230.9 115.785 226.811 109.498 223.757C106.071 222.092 102.636 220.118 99.1954 218.382C98.0438 217.801 86.359 210.423 86.3884 210.401C87.0343 209.914 92.9144 212.677 93.8236 213.049C96.48 214.134 99.0202 215.431 101.574 216.725C100.172 213.96 99.0628 211.055 98.4588 207.997C98.2722 207.054 96.7772 200.183 97.5422 199.606C97.9242 199.318 101.652 211.611 101.843 212.793C101.998 213.753 101.975 215.136 102.29 216.045C102.797 217.513 102.771 217.07 103.889 217.897C105.938 219.413 108.657 220.36 110.874 221.627C112.07 222.295 115.772 224.941 118.001 225.696C124.748 228.973 131.586 234.014 137.996 238.199C136.313 235.037 135.033 231.731 134.1 228.267C133.877 227.444 131.482 220.066 132.063 219.628C132.717 219.135 137.282 230.404 137.552 231.471C138.055 233.452 138.159 235.658 138.788 237.586C139.478 239.703 141.632 240.453 143.574 241.686C150.717 246.225 157.615 251.047 164.398 256.091C171.799 242.928 163.265 227.033 156.073 215.989C150.889 208.03 143.91 201.206 136.541 195.248C126.706 187.298 115.454 180.946 104.216 175.136C91.1217 168.366 76.9687 164.171 62.2549 162.233C54.5593 161.22 46.6863 161.248 38.913 161.573C35.1157 161.732 31.4709 162.235 27.8319 163.473C26.1917 164.032 24.6066 164.736 23.0619 165.525C21.8883 166.124 19.0491 166.756 18.3743 167.649C12.8194 174.879 9.97759 182.084 10.4116 191.169C10.8219 199.769 13.5381 208.374 17.2242 216.045C21.3294 224.588 26.6092 232.341 33.5142 238.848C38.7824 243.812 44.6723 248.133 50.5234 252.397C71.3339 267.563 97.7179 280.754 124.671 277.365C133.396 276.269 141.694 273.217 149.449 269.071C151.276 268.094 153.093 267.106 154.818 265.952C155.981 265.175 159.09 261.671 160.259 261.543C161.863 261.369 165.317 264.63 166.821 265.623C178.253 273.169 189.385 281.124 200.285 289.401C211.88 298.208 222.907 307.613 233.61 317.461C238.162 321.649 242.685 325.847 247.105 330.177C248.134 331.184 250.65 334.893 252.516 335.061C253.696 335.167 254.491 334.16 254.323 333.068C254.03 331.17 250.036 328.329 248.711 326.964Z" fill="#C1DEE2"/>
<path fill-rule="evenodd" clip-rule="evenodd" d="M992.971 275.206C987.955 274.11 982.417 274.194 977.307 274.284C949.905 274.657 922.996 287.63 905.484 308.36C890.575 326.007 886.475 347.948 883.53 370.128C883.238 372.33 883.113 374.518 882.948 376.725C882.913 377.198 882.86 377.621 882.803 378.019C881.645 379.054 881.037 380.261 881.723 381.588C879.171 387.172 877.013 392.897 875.161 398.803C869.709 416.185 864.164 433.898 867.58 452.177C868.378 442.118 870.057 431.832 872.064 421.939C872.18 421.371 872.305 420.807 872.435 420.246C872.448 420.186 872.46 420.127 872.473 420.068C873.184 417.039 874.108 414.1 875.231 411.207C875.243 411.175 875.255 411.144 875.267 411.113C875.415 410.732 875.573 410.354 875.728 409.975C876.05 409.191 876.381 408.409 876.731 407.63C876.85 407.365 876.964 407.097 877.073 406.828C878.709 402.819 879.399 398.302 880.864 394.154C881.215 393.211 881.581 392.272 881.965 391.337C881.988 391.282 882.011 391.228 882.034 391.173C883.072 388.658 884.218 386.173 885.431 383.715C886.089 383.22 886.442 381.992 887.01 380.875C887.127 380.655 888.046 379.188 888.319 378.343C889.033 376.962 889.745 375.58 890.464 374.202C890.442 374.21 890.42 374.218 890.399 374.226C891.118 372.902 891.84 371.584 892.556 370.271C892.713 369.983 892.873 369.694 893.031 369.405C893.288 368.944 893.545 368.484 893.802 368.025C896.202 363.73 898.747 359.52 901.39 355.363C902.334 353.879 904.587 351.752 905.019 350.086C905.035 350.024 905.039 349.967 905.048 349.907C910.784 341.852 917.386 334.422 925.304 328.536C924.347 329.57 922.312 333.081 921.774 333.776C920.129 335.904 918.342 337.886 916.548 339.891C913.336 343.483 910.2 347.19 907.413 351.109C902.317 358.276 897.92 365.819 893.764 373.514C893.724 373.559 893.681 373.602 893.644 373.648C891.555 376.223 890.24 380.115 888.737 383.06C894.687 380.304 901.267 378.509 907.374 376.061C913.465 373.622 919.389 370.905 925.109 367.714C932.711 363.474 940.597 358.687 947.78 353.269C956.011 348.163 962.928 341.135 969.034 333.76C976.258 325.034 982.878 316.232 986.972 305.637C988.984 300.43 990.566 295.002 991.504 289.509C991.545 289.27 991.598 289.01 991.654 288.741C992.614 286.844 993.472 284.904 994.192 282.92C995.336 279.773 998.036 276.311 992.971 275.206Z" fill="#69A1AC"/>
<path fill-rule="evenodd" clip-rule="evenodd" d="M143.012 312.072C141.441 310.37 139.676 308.835 137.604 307.74C137.08 307.464 133.178 305.61 132.924 306.016C132.332 306.964 142.54 311.529 143.012 312.072ZM161.514 300.706C161.502 300.778 162.855 303.074 163.223 303.78C164.007 305.281 164.731 306.811 165.412 308.344C164.404 305.636 163.368 303.125 161.514 300.706ZM66.8899 319.396C65.5867 319.815 64.0199 318.161 65.7102 317.754C67.078 317.427 67.0109 317.349 67.6251 316.248C68.1238 315.353 68.431 314.262 68.8686 313.323C69.7968 311.332 70.8498 309.433 72.1423 307.653C74.9122 303.839 78.2872 300.552 82.0724 297.782C88.6784 292.948 96.0853 288.53 103.942 286.311C116.435 282.782 130.654 282.563 143.166 285.01C150.916 286.526 157.998 289.16 163.143 295.399C165.715 298.517 167.734 302.171 168.616 306.193C168.847 307.245 168.804 308.414 169.092 309.443C169.535 311.026 169.34 310.605 171.191 310.912C173.212 311.248 175.232 311.592 177.251 311.941C182.537 312.855 187.855 313.826 193.006 315.31C194.701 315.798 196.359 316.395 197.979 317.088C199.204 317.612 204.082 319.257 204.675 320.849C205.661 323.497 202.355 322.296 201.328 321.72C200.428 321.214 199.504 320.743 198.567 320.309C196.207 319.217 193.748 318.372 191.234 317.7C188.517 316.973 185.744 316.43 182.982 315.887C180.406 315.381 177.82 314.92 175.231 314.48C173.793 314.235 172.354 313.998 170.914 313.76C170.423 313.679 169.555 313.253 169.621 313.892C166.595 313.309 163.322 313.393 160.24 313.232C156.464 313.035 152.675 312.874 148.887 312.992C146.154 313.077 143.42 313.256 140.702 313.623C139.113 313.838 137.55 314.152 135.992 314.549C135.136 314.768 131.76 315.231 131.294 315.977C131.494 315.656 135.22 315.967 135.694 315.949C137.591 315.878 139.472 315.69 141.362 315.479C144.869 315.087 148.377 314.883 151.894 314.912C151.881 315.53 149.478 316.63 148.892 317.039C147.577 317.957 146.317 318.958 145.142 320.056C143.072 321.99 140.593 324.386 139.161 326.677C139.583 326.002 141.665 325.123 142.404 324.607C143.587 323.78 144.747 322.898 145.844 321.955C146.856 321.085 147.801 320.144 148.731 319.184C149.66 318.223 150.921 316.225 152.142 315.585C152.216 315.546 152.748 315.967 153.051 315.824C153.355 315.68 153.735 314.959 153.813 314.93C154.949 314.491 157.108 315.037 158.303 315.092C161.402 315.235 164.498 315.422 167.595 315.592C168.554 315.645 169.369 315.427 169.732 316.134C170.118 316.889 169.41 318.873 169.209 319.695C168.462 322.748 167.136 325.486 165.049 327.851C161.139 332.282 156.318 335.235 150.872 337.211C130.013 344.779 107.821 347.81 86.9679 339.938C78.3348 336.678 65.3331 330.854 66.8899 319.396Z" fill="#89C5CC"/>
<g opacity="0.6">
<path opacity="0.6" fill-rule="evenodd" clip-rule="evenodd" d="M1021.99 675.93C1036.18 771.995 692.026 834.654 395.806 790.926C99.5856 747.197 -36.3061 576.432 105.045 485.441C246.396 394.451 1007.8 579.865 1021.99 675.93Z" fill="#DDE3E9"/>
</g>
<path d="M416.529 46.2942H206.235C199.738 46.2942 194.471 51.5614 194.471 58.0589V478.647C194.471 485.145 199.738 490.412 206.235 490.412H416.529C423.027 490.412 428.294 485.145 428.294 478.647V58.0589C428.294 51.5614 423.027 46.2942 416.529 46.2942Z" fill="#F2F2F2"/>
<path d="M310.647 462.471C322.83 462.471 332.706 452.595 332.706 440.412C332.706 428.229 322.83 418.353 310.647 418.353C298.464 418.353 288.588 428.229 288.588 440.412C288.588 452.595 298.464 462.471 310.647 462.471Z" fill="white"/>
<path d="M291.529 75.7059C293.154 75.7059 294.471 74.3891 294.471 72.7648C294.471 71.1404 293.154 69.8236 291.529 69.8236C289.905 69.8236 288.588 71.1404 288.588 72.7648C288.588 74.3891 289.905 75.7059 291.529 75.7059Z" fill="white"/>
<path d="M329.765 69.8236H304.765C303.14 69.8236 301.824 71.1404 301.824 72.7648C301.824 74.3891 303.14 75.7059 304.765 75.7059H329.765C331.389 75.7059 332.706 74.3891 332.706 72.7648C332.706 71.1404 331.389 69.8236 329.765 69.8236Z" fill="white"/>
<path d="M401.824 87.4707H220.941C217.692 87.4707 215.059 90.1043 215.059 93.3531V161C215.059 164.249 217.692 166.882 220.941 166.882H401.824C405.072 166.882 407.706 164.249 407.706 161V93.3531C407.706 90.1043 405.072 87.4707 401.824 87.4707Z" fill="white"/>
<path d="M375.353 111.294H276.824C274.387 111.294 272.412 113.269 272.412 115.706V118.794C272.412 121.231 274.387 123.206 276.824 123.206H375.353C377.789 123.206 379.765 121.231 379.765 118.794V115.706C379.765 113.269 377.789 111.294 375.353 111.294Z" fill="#DDE3E9"/>
<path d="M340.059 131.147H276.824C274.387 131.147 272.412 133.122 272.412 135.559V138.647C272.412 141.084 274.387 143.059 276.824 143.059H340.059C342.495 143.059 344.471 141.084 344.471 138.647V135.559C344.471 133.122 342.495 131.147 340.059 131.147Z" fill="#DDE3E9"/>
<path d="M245.941 144.824C255.687 144.824 263.588 136.923 263.588 127.177C263.588 117.43 255.687 109.53 245.941 109.53C236.195 109.53 228.294 117.43 228.294 127.177C228.294 136.923 236.195 144.824 245.941 144.824Z" fill="#C5CFD6"/>
<path d="M401.824 178.647H220.941C217.692 178.647 215.059 181.281 215.059 184.53V234.53C215.059 237.778 217.692 240.412 220.941 240.412H401.824C405.072 240.412 407.706 237.778 407.706 234.53V184.53C407.706 181.281 405.072 178.647 401.824 178.647Z" fill="white"/>
<path d="M375.353 197.177H276.824C274.387 197.177 272.412 199.152 272.412 201.588V202.03C272.412 204.466 274.387 206.441 276.824 206.441H375.353C377.789 206.441 379.765 204.466 379.765 202.03V201.588C379.765 199.152 377.789 197.177 375.353 197.177Z" fill="#DDE3E9"/>
<path d="M340.059 212.618H276.824C274.387 212.618 272.412 214.593 272.412 217.03V217.471C272.412 219.907 274.387 221.882 276.824 221.882H340.059C342.495 221.882 344.471 219.907 344.471 217.471V217.03C344.471 214.593 342.495 212.618 340.059 212.618Z" fill="#DDE3E9"/>
<path d="M245.941 227.177C255.687 227.177 263.588 219.276 263.588 209.53C263.588 199.783 255.687 191.882 245.941 191.882C236.195 191.882 228.294 199.783 228.294 209.53C228.294 219.276 236.195 227.177 245.941 227.177Z" fill="#C5CFD6"/>
<path d="M401.824 252.177H220.941C217.692 252.177 215.059 254.81 215.059 258.059V308.059C215.059 311.308 217.692 313.941 220.941 313.941H401.824C405.072 313.941 407.706 311.308 407.706 308.059V258.059C407.706 254.81 405.072 252.177 401.824 252.177Z" fill="white"/>
<path d="M375.353 270.706H276.824C274.387 270.706 272.412 272.681 272.412 275.118V275.559C272.412 277.996 274.387 279.971 276.824 279.971H375.353C377.789 279.971 379.765 277.996 379.765 275.559V275.118C379.765 272.681 377.789 270.706 375.353 270.706Z" fill="#DDE3E9"/>
<path d="M340.059 286.147H276.824C274.387 286.147 272.412 288.122 272.412 290.559V291C272.412 293.437 274.387 295.412 276.824 295.412H340.059C342.495 295.412 344.471 293.437 344.471 291V290.559C344.471 288.122 342.495 286.147 340.059 286.147Z" fill="#DDE3E9"/>
<path d="M245.941 300.706C255.687 300.706 263.588 292.805 263.588 283.059C263.588 273.313 255.687 265.412 245.941 265.412C236.195 265.412 228.294 273.313 228.294 283.059C228.294 292.805 236.195 300.706 245.941 300.706Z" fill="#AFB9C5"/>
<path d="M401.824 325.706H220.941C217.692 325.706 215.059 328.34 215.059 331.588V381.588C215.059 384.837 217.692 387.471 220.941 387.471H401.824C405.072 387.471 407.706 384.837 407.706 381.588V331.588C407.706 328.34 405.072 325.706 401.824 325.706Z" fill="white"/>
<path d="M375.353 344.235H276.824C274.387 344.235 272.412 346.211 272.412 348.647V349.088C272.412 351.525 274.387 353.5 276.824 353.5H375.353C377.789 353.5 379.765 351.525 379.765 349.088V348.647C379.765 346.211 377.789 344.235 375.353 344.235Z" fill="#DDE3E9"/>
<path d="M340.059 359.677H276.824C274.387 359.677 272.412 361.652 272.412 364.088V364.53C272.412 366.966 274.387 368.941 276.824 368.941H340.059C342.495 368.941 344.471 366.966 344.471 364.53V364.088C344.471 361.652 342.495 359.677 340.059 359.677Z" fill="#DDE3E9"/>
<path d="M245.941 374.236C255.687 374.236 263.588 366.335 263.588 356.588C263.588 346.842 255.687 338.941 245.941 338.941C236.195 338.941 228.294 346.842 228.294 356.588C228.294 366.335 236.195 374.236 245.941 374.236Z" fill="#C5CFD6"/>
<path fill-rule="evenodd" clip-rule="evenodd" d="M238.794 405.118C236.846 405.118 234.903 405.157 232.957 405.258C231.474 405.336 229.208 405.028 227.953 405.953C226.649 406.913 226.738 408.878 226.942 410.267C228.019 417.607 230.647 424.116 236.145 429.317C244.611 437.325 254.316 441.394 265.8 443.206C273.867 444.479 281.315 442.712 287.253 436.975C291.592 445.028 294.884 453.94 296.535 462.934C297.35 467.372 297.599 471.757 297.456 476.276C297.363 479.171 297.204 482.058 296.893 484.939C296.759 486.191 296.121 488.086 296.611 489.269C297.186 490.658 299.125 490.793 299.996 489.608C300.721 488.622 300.588 486.686 300.737 485.519C300.983 483.581 301.212 481.641 301.375 479.694C301.641 476.543 301.837 473.382 301.823 470.218C301.79 463.11 300.209 455.975 298.047 449.227C293.9 436.283 287.172 424.778 276.707 415.752C270.272 410.202 262.908 407.954 254.552 406.747C249.35 405.996 244.064 405.118 238.794 405.118Z" fill="#89C5CC"/>
<path fill-rule="evenodd" clip-rule="evenodd" d="M268.84 456.588C247.812 456.588 233.65 473.536 226.954 491.15C224.43 497.789 223.838 505.079 222.865 512.051C222.553 514.288 222.669 517.697 221.761 519.69C221.431 520.413 220.676 520.673 221.037 521.657C221.255 522.254 221.684 522.619 222.329 522.737C223.651 522.981 225.522 521.54 226.656 520.972C236.062 516.255 242.242 508.961 247.283 500.037C250.408 494.505 253.579 488.764 255.435 482.691C256.569 478.982 257.23 475.075 257.617 471.227C257.77 469.711 257.918 468.16 257.909 466.635C257.9 465.122 257.196 464.322 256.69 463.006C263.706 460.35 271.626 459.626 278.733 462.378C285.307 464.924 290.767 469.843 293.825 476.023C294.619 477.629 295.232 479.324 295.678 481.053C295.97 482.185 295.984 483.654 296.526 484.677C297.838 487.158 300.6 485.5 300.335 483.19C299.596 476.746 295.91 470.278 291.198 465.798C285.257 460.148 277.202 456.588 268.84 456.588Z" fill="#89C5CC"/>
<path d="M513.588 84.5294H303.294C296.797 84.5294 291.529 89.7967 291.529 96.2941V516.882C291.529 523.38 296.797 528.647 303.294 528.647H513.588C520.086 528.647 525.353 523.38 525.353 516.882V96.2941C525.353 89.7967 520.086 84.5294 513.588 84.5294Z" fill="#DDE3E9"/>
<path d="M407.706 500.706C419.889 500.706 429.765 490.83 429.765 478.647C429.765 466.464 419.889 456.588 407.706 456.588C395.523 456.588 385.647 466.464 385.647 478.647C385.647 490.83 395.523 500.706 407.706 500.706Z" fill="white"/>
<path d="M388.588 113.941C390.213 113.941 391.529 112.624 391.529 111C391.529 109.376 390.213 108.059 388.588 108.059C386.964 108.059 385.647 109.376 385.647 111C385.647 112.624 386.964 113.941 388.588 113.941Z" fill="white"/>
<path d="M426.824 108.059H401.824C400.199 108.059 398.882 109.376 398.882 111C398.882 112.624 400.199 113.941 401.824 113.941H426.824C428.448 113.941 429.765 112.624 429.765 111C429.765 109.376 428.448 108.059 426.824 108.059Z" fill="white"/>
<path d="M498.882 125.706H318C314.751 125.706 312.118 128.34 312.118 131.588V199.235C312.118 202.484 314.751 205.118 318 205.118H498.882C502.131 205.118 504.765 202.484 504.765 199.235V131.588C504.765 128.34 502.131 125.706 498.882 125.706Z" fill="white"/>
<path d="M428.294 149.529H329.765C327.328 149.529 325.353 151.505 325.353 153.941V157.029C325.353 159.466 327.328 161.441 329.765 161.441H428.294C430.731 161.441 432.706 159.466 432.706 157.029V153.941C432.706 151.505 430.731 149.529 428.294 149.529Z" fill="#DDE3E9"/>
<path d="M393 169.382H329.765C327.328 169.382 325.353 171.358 325.353 173.794V176.882C325.353 179.319 327.328 181.294 329.765 181.294H393C395.437 181.294 397.412 179.319 397.412 176.882V173.794C397.412 171.358 395.437 169.382 393 169.382Z" fill="#DDE3E9"/>
<path d="M484.176 175.706C489.862 175.706 494.471 171.097 494.471 165.412C494.471 159.727 489.862 155.118 484.176 155.118C478.491 155.118 473.882 159.727 473.882 165.412C473.882 171.097 478.491 175.706 484.176 175.706Z" fill="#DDE3E9"/>
<path d="M484.176 169.824C486.613 169.824 488.588 167.848 488.588 165.412C488.588 162.975 486.613 161 484.176 161C481.74 161 479.765 162.975 479.765 165.412C479.765 167.848 481.74 169.824 484.176 169.824Z" fill="#F2F2F2"/>
<path d="M498.882 216.882H318C314.751 216.882 312.118 219.516 312.118 222.765V272.765C312.118 276.014 314.751 278.647 318 278.647H498.882C502.131 278.647 504.765 276.014 504.765 272.765V222.765C504.765 219.516 502.131 216.882 498.882 216.882Z" fill="white"/>
<path d="M472.412 235.412H373.882C371.446 235.412 369.471 237.387 369.471 239.824V240.265C369.471 242.701 371.446 244.677 373.882 244.677H472.412C474.848 244.677 476.824 242.701 476.824 240.265V239.824C476.824 237.387 474.848 235.412 472.412 235.412Z" fill="#DDE3E9"/>
<path d="M437.118 250.853H373.882C371.446 250.853 369.471 252.828 369.471 255.265V255.706C369.471 258.143 371.446 260.118 373.882 260.118H437.118C439.554 260.118 441.529 258.143 441.529 255.706V255.265C441.529 252.828 439.554 250.853 437.118 250.853Z" fill="#DDE3E9"/>
<path d="M343 265.412C352.746 265.412 360.647 257.511 360.647 247.765C360.647 238.019 352.746 230.118 343 230.118C333.254 230.118 325.353 238.019 325.353 247.765C325.353 257.511 333.254 265.412 343 265.412Z" fill="#C5CFD6"/>
<path d="M498.882 290.412H318C314.751 290.412 312.118 293.045 312.118 296.294V346.294C312.118 349.543 314.751 352.177 318 352.177H498.882C502.131 352.177 504.765 349.543 504.765 346.294V296.294C504.765 293.045 502.131 290.412 498.882 290.412Z" fill="white"/>
<path d="M428.294 308.941H329.765C327.328 308.941 325.353 310.916 325.353 313.353V313.794C325.353 316.231 327.328 318.206 329.765 318.206H428.294C430.731 318.206 432.706 316.231 432.706 313.794V313.353C432.706 310.916 430.731 308.941 428.294 308.941Z" fill="#DDE3E9"/>
<path d="M393 324.382H329.765C327.328 324.382 325.353 326.358 325.353 328.794V329.235C325.353 331.672 327.328 333.647 329.765 333.647H393C395.437 333.647 397.412 331.672 397.412 329.235V328.794C397.412 326.358 395.437 324.382 393 324.382Z" fill="#AFB9C5"/>
<path d="M484.176 331.588C489.862 331.588 494.471 326.98 494.471 321.294C494.471 315.609 489.862 311 484.176 311C478.491 311 473.882 315.609 473.882 321.294C473.882 326.98 478.491 331.588 484.176 331.588Z" fill="#DDE3E9"/>
<path d="M484.176 325.706C486.613 325.706 488.588 323.731 488.588 321.294C488.588 318.858 486.613 316.882 484.176 316.882C481.74 316.882 479.765 318.858 479.765 321.294C479.765 323.731 481.74 325.706 484.176 325.706Z" fill="#F2F2F2"/>
<path d="M498.882 363.941H318C314.751 363.941 312.118 366.575 312.118 369.824V419.824C312.118 423.072 314.751 425.706 318 425.706H498.882C502.131 425.706 504.765 423.072 504.765 419.824V369.824C504.765 366.575 502.131 363.941 498.882 363.941Z" fill="white"/>
<path d="M472.412 382.471H373.882C371.446 382.471 369.471 384.446 369.471 386.882V387.324C369.471 389.76 371.446 391.735 373.882 391.735H472.412C474.848 391.735 476.824 389.76 476.824 387.324V386.882C476.824 384.446 474.848 382.471 472.412 382.471Z" fill="#DDE3E9"/>
<path d="M437.118 397.912H373.882C371.446 397.912 369.471 399.887 369.471 402.324V402.765C369.471 405.201 371.446 407.177 373.882 407.177H437.118C439.554 407.177 441.529 405.201 441.529 402.765V402.324C441.529 399.887 439.554 397.912 437.118 397.912Z" fill="#DDE3E9"/>
<path d="M343 412.471C352.746 412.471 360.647 404.57 360.647 394.824C360.647 385.077 352.746 377.177 343 377.177C333.254 377.177 325.353 385.077 325.353 394.824C325.353 404.57 333.254 412.471 343 412.471Z" fill="#C5CFD6"/>
<path d="M869.471 121.294H400.353C393.855 121.294 388.588 126.561 388.588 133.059V618.353C388.588 624.85 393.855 630.118 400.353 630.118H869.471C875.968 630.118 881.235 624.85 881.235 618.353V133.059C881.235 126.561 875.968 121.294 869.471 121.294Z" fill="#F2F2F2"/>
<path d="M845.941 184.529H766.529C760.032 184.529 754.765 189.797 754.765 196.294V291.882C754.765 298.38 760.032 303.647 766.529 303.647H845.941C852.439 303.647 857.706 298.38 857.706 291.882V196.294C857.706 189.797 852.439 184.529 845.941 184.529Z" fill="white"/>
<path d="M806.235 253.647C819.23 253.647 829.765 243.113 829.765 230.118C829.765 217.123 819.23 206.588 806.235 206.588C793.24 206.588 782.706 217.123 782.706 230.118C782.706 243.113 793.24 253.647 806.235 253.647Z" fill="#DDE3E9"/>
<path d="M838.588 259.529H773.882C771.446 259.529 769.471 261.505 769.471 263.941C769.471 266.378 771.446 268.353 773.882 268.353H838.588C841.025 268.353 843 266.378 843 263.941C843 261.505 841.025 259.529 838.588 259.529Z" fill="#DDE3E9"/>
<path d="M826.824 274.235H785.647C783.211 274.235 781.235 276.21 781.235 278.647C781.235 281.084 783.211 283.059 785.647 283.059H826.824C829.26 283.059 831.235 281.084 831.235 278.647C831.235 276.21 829.26 274.235 826.824 274.235Z" fill="#DDE3E9"/>
<path fill-rule="evenodd" clip-rule="evenodd" d="M400.353 121.294H869.471C875.968 121.294 881.235 126.561 881.235 133.059V161H388.588V133.059C388.588 126.561 393.855 121.294 400.353 121.294Z" fill="#C5CFD6"/>
<path d="M407.706 147.765C410.955 147.765 413.588 145.131 413.588 141.882C413.588 138.634 410.955 136 407.706 136C404.457 136 401.824 138.634 401.824 141.882C401.824 145.131 404.457 147.765 407.706 147.765Z" fill="#F2F2F2"/>
<path d="M425.353 147.765C428.602 147.765 431.235 145.131 431.235 141.882C431.235 138.634 428.602 136 425.353 136C422.104 136 419.471 138.634 419.471 141.882C419.471 145.131 422.104 147.765 425.353 147.765Z" fill="#F2F2F2"/>
<path d="M443 147.765C446.249 147.765 448.882 145.131 448.882 141.882C448.882 138.634 446.249 136 443 136C439.751 136 437.118 138.634 437.118 141.882C437.118 145.131 439.751 147.765 443 147.765Z" fill="#F2F2F2"/>
<path d="M845.941 315.412H766.529C760.032 315.412 754.765 320.679 754.765 327.176V588.941C754.765 595.439 760.032 600.706 766.529 600.706H845.941C852.439 600.706 857.706 595.439 857.706 588.941V327.176C857.706 320.679 852.439 315.412 845.941 315.412Z" fill="white"/>
<path d="M825.353 341.882H787.118C783.869 341.882 781.235 344.516 781.235 347.765V374.235C781.235 377.484 783.869 380.118 787.118 380.118H825.353C828.602 380.118 831.235 377.484 831.235 374.235V347.765C831.235 344.516 828.602 341.882 825.353 341.882Z" fill="#DDE3E9"/>
<path d="M825.353 391.882H787.118C783.869 391.882 781.235 394.516 781.235 397.765V422.765C781.235 426.013 783.869 428.647 787.118 428.647H825.353C828.602 428.647 831.235 426.013 831.235 422.765V397.765C831.235 394.516 828.602 391.882 825.353 391.882Z" fill="#AFB9C5"/>
<path d="M825.353 440.412H787.118C783.869 440.412 781.235 443.045 781.235 446.294V471.294C781.235 474.543 783.869 477.176 787.118 477.176H825.353C828.602 477.176 831.235 474.543 831.235 471.294V446.294C831.235 443.045 828.602 440.412 825.353 440.412Z" fill="#DDE3E9"/>
<path d="M825.353 537.471H787.118C783.869 537.471 781.235 540.104 781.235 543.353V568.353C781.235 571.602 783.869 574.235 787.118 574.235H825.353C828.602 574.235 831.235 571.602 831.235 568.353V543.353C831.235 540.104 828.602 537.471 825.353 537.471Z" fill="#DDE3E9"/>
<path d="M825.353 488.941H787.118C783.869 488.941 781.235 491.575 781.235 494.824V519.824C781.235 523.072 783.869 525.706 787.118 525.706H825.353C828.602 525.706 831.235 523.072 831.235 519.824V494.824C831.235 491.575 828.602 488.941 825.353 488.941Z" fill="#C5CFD6"/>
<path d="M737.118 186H418C414.751 186 412.118 188.634 412.118 191.882V249.235C412.118 252.484 414.751 255.118 418 255.118H737.118C740.366 255.118 743 252.484 743 249.235V191.882C743 188.634 740.366 186 737.118 186Z" fill="white"/>
<path d="M666.529 206.735H429.765C427.328 206.735 425.353 208.71 425.353 211.147V212.691C425.353 215.128 427.328 217.103 429.765 217.103H666.529C668.966 217.103 670.941 215.128 670.941 212.691V211.147C670.941 208.71 668.966 206.735 666.529 206.735Z" fill="#DDE3E9"/>
<path d="M585.788 224.015H429.765C427.328 224.015 425.353 225.99 425.353 228.426V229.971C425.353 232.407 427.328 234.382 429.765 234.382H585.788C588.225 234.382 590.2 232.407 590.2 229.971V228.426C590.2 225.99 588.225 224.015 585.788 224.015Z" fill="#DDE3E9"/>
<path d="M707.639 230.853C713.324 230.853 717.933 226.244 717.933 220.559C717.933 214.874 713.324 210.265 707.639 210.265C701.953 210.265 697.344 214.874 697.344 220.559C697.344 226.244 701.953 230.853 707.639 230.853Z" fill="#DDE3E9"/>
<path d="M707.639 224.971C710.075 224.971 712.05 222.995 712.05 220.559C712.05 218.122 710.075 216.147 707.639 216.147C705.202 216.147 703.227 218.122 703.227 220.559C703.227 222.995 705.202 224.971 707.639 224.971Z" fill="#F2F2F2"/>
<path d="M737.118 266.882H418C414.751 266.882 412.118 269.516 412.118 272.765V318.353C412.118 321.602 414.751 324.235 418 324.235H737.118C740.366 324.235 743 321.602 743 318.353V272.765C743 269.516 740.366 266.882 737.118 266.882Z" fill="white"/>
<path d="M666.64 284.088H429.654C427.279 284.088 425.353 286.014 425.353 288.39C425.353 290.765 427.279 292.691 429.654 292.691H666.64C669.015 292.691 670.941 290.765 670.941 288.39C670.941 286.014 669.015 284.088 666.64 284.088Z" fill="#DDE3E9"/>
<path d="M585.898 298.426H429.654C427.279 298.426 425.353 300.352 425.353 302.728C425.353 305.103 427.279 307.029 429.654 307.029H585.898C588.274 307.029 590.2 305.103 590.2 302.728C590.2 300.352 588.274 298.426 585.898 298.426Z" fill="#DDE3E9"/>
<path d="M707.639 305.853C713.324 305.853 717.933 301.244 717.933 295.559C717.933 289.873 713.324 285.265 707.639 285.265C701.953 285.265 697.344 289.873 697.344 295.559C697.344 301.244 701.953 305.853 707.639 305.853Z" fill="#DDE3E9"/>
<path d="M707.639 299.971C710.075 299.971 712.05 297.995 712.05 295.559C712.05 293.122 710.075 291.147 707.639 291.147C705.202 291.147 703.227 293.122 703.227 295.559C703.227 297.995 705.202 299.971 707.639 299.971Z" fill="#F2F2F2"/>
<path d="M737.118 336H418C414.751 336 412.118 338.634 412.118 341.882V387.471C412.118 390.719 414.751 393.353 418 393.353H737.118C740.366 393.353 743 390.719 743 387.471V341.882C743 338.634 740.366 336 737.118 336Z" fill="white"/>
<path d="M666.64 353.206H429.654C427.279 353.206 425.353 355.132 425.353 357.507C425.353 359.883 427.279 361.809 429.654 361.809H666.64C669.015 361.809 670.941 359.883 670.941 357.507C670.941 355.132 669.015 353.206 666.64 353.206Z" fill="#DDE3E9"/>
<path d="M585.898 367.544H429.654C427.279 367.544 425.353 369.47 425.353 371.846C425.353 374.221 427.279 376.147 429.654 376.147H585.898C588.274 376.147 590.2 374.221 590.2 371.846C590.2 369.47 588.274 367.544 585.898 367.544Z" fill="#DDE3E9"/>
<path d="M707.639 374.971C713.324 374.971 717.933 370.362 717.933 364.676C717.933 358.991 713.324 354.382 707.639 354.382C701.953 354.382 697.344 358.991 697.344 364.676C697.344 370.362 701.953 374.971 707.639 374.971Z" fill="#DDE3E9"/>
<path d="M707.639 369.088C710.075 369.088 712.05 367.113 712.05 364.676C712.05 362.24 710.075 360.265 707.639 360.265C705.202 360.265 703.227 362.24 703.227 364.676C703.227 367.113 705.202 369.088 707.639 369.088Z" fill="#AFB9C5"/>
<path d="M737.118 543.353H418C414.751 543.353 412.118 545.987 412.118 549.235V594.824C412.118 598.072 414.751 600.706 418 600.706H737.118C740.366 600.706 743 598.072 743 594.824V549.235C743 545.987 740.366 543.353 737.118 543.353Z" fill="white"/>
<path d="M666.64 560.559H429.654C427.279 560.559 425.353 562.485 425.353 564.86C425.353 567.236 427.279 569.162 429.654 569.162H666.64C669.015 569.162 670.941 567.236 670.941 564.86C670.941 562.485 669.015 560.559 666.64 560.559Z" fill="#DDE3E9"/>
<path d="M585.898 574.897H429.654C427.279 574.897 425.353 576.823 425.353 579.198C425.353 581.574 427.279 583.5 429.654 583.5H585.898C588.274 583.5 590.2 581.574 590.2 579.198C590.2 576.823 588.274 574.897 585.898 574.897Z" fill="#DDE3E9"/>
<path d="M707.639 582.324C713.324 582.324 717.933 577.715 717.933 572.029C717.933 566.344 713.324 561.735 707.639 561.735C701.953 561.735 697.344 566.344 697.344 572.029C697.344 577.715 701.953 582.324 707.639 582.324Z" fill="#DDE3E9"/>
<path d="M707.639 576.441C710.075 576.441 712.05 574.466 712.05 572.029C712.05 569.593 710.075 567.618 707.639 567.618C705.202 567.618 703.227 569.593 703.227 572.029C703.227 574.466 705.202 576.441 707.639 576.441Z" fill="#F2F2F2"/>
<path d="M737.118 474.235H418C414.751 474.235 412.118 476.869 412.118 480.118V525.706C412.118 528.955 414.751 531.588 418 531.588H737.118C740.366 531.588 743 528.955 743 525.706V480.118C743 476.869 740.366 474.235 737.118 474.235Z" fill="white"/>
<path d="M666.64 491.441H429.654C427.279 491.441 425.353 493.367 425.353 495.743C425.353 498.118 427.279 500.044 429.654 500.044H666.64C669.015 500.044 670.941 498.118 670.941 495.743C670.941 493.367 669.015 491.441 666.64 491.441Z" fill="#DDE3E9"/>
<path d="M585.898 505.779H429.654C427.279 505.779 425.353 507.705 425.353 510.081C425.353 512.456 427.279 514.382 429.654 514.382H585.898C588.274 514.382 590.2 512.456 590.2 510.081C590.2 507.705 588.274 505.779 585.898 505.779Z" fill="#DDE3E9"/>
<path d="M707.639 513.206C713.324 513.206 717.933 508.597 717.933 502.912C717.933 497.227 713.324 492.618 707.639 492.618C701.953 492.618 697.344 497.227 697.344 502.912C697.344 508.597 701.953 513.206 707.639 513.206Z" fill="#DDE3E9"/>
<path d="M707.639 507.324C710.075 507.324 712.05 505.348 712.05 502.912C712.05 500.475 710.075 498.5 707.639 498.5C705.202 498.5 703.227 500.475 703.227 502.912C703.227 505.348 705.202 507.324 707.639 507.324Z" fill="#F2F2F2"/>
<path d="M737.118 405.118H418C414.751 405.118 412.118 407.751 412.118 411V456.588C412.118 459.837 414.751 462.471 418 462.471H737.118C740.366 462.471 743 459.837 743 456.588V411C743 407.751 740.366 405.118 737.118 405.118Z" fill="white"/>
<path d="M666.64 422.324H429.654C427.279 422.324 425.353 424.249 425.353 426.625C425.353 429.001 427.279 430.926 429.654 430.926H666.64C669.015 430.926 670.941 429.001 670.941 426.625C670.941 424.249 669.015 422.324 666.64 422.324Z" fill="#DDE3E9"/>
<path d="M585.898 436.662H429.654C427.279 436.662 425.353 438.588 425.353 440.963C425.353 443.339 427.279 445.265 429.654 445.265H585.898C588.274 445.265 590.2 443.339 590.2 440.963C590.2 438.588 588.274 436.662 585.898 436.662Z" fill="#DDE3E9"/>
<path d="M707.639 444.088C713.324 444.088 717.933 439.479 717.933 433.794C717.933 428.109 713.324 423.5 707.639 423.5C701.953 423.5 697.344 428.109 697.344 433.794C697.344 439.479 701.953 444.088 707.639 444.088Z" fill="#DDE3E9"/>
<path d="M707.639 438.206C710.075 438.206 712.05 436.231 712.05 433.794C712.05 431.358 710.075 429.382 707.639 429.382C705.202 429.382 703.227 431.358 703.227 433.794C703.227 436.231 705.202 438.206 707.639 438.206Z" fill="#F2F2F2"/>
<path fill-rule="evenodd" clip-rule="evenodd" d="M1003.27 371.846C997.472 367.913 989.759 366.882 982.818 366.882C955.706 366.882 930.222 376.941 908.208 391.929C896.145 400.142 885.353 410.6 875.826 421.489C870.327 427.774 865.424 434.574 861.952 442.137C859.61 447.241 858.002 452.56 856.912 458.045C855.584 464.731 854.529 471.552 854.051 478.349C853.863 481.025 852.308 495.227 856.758 495.467C856.733 495.817 856.727 496.151 856.754 496.45C847.091 511.559 841.122 529.265 835.586 546.052C830.769 560.66 826.477 575.392 823.691 590.504C820.023 610.401 817.613 630.596 816.468 650.779C816.222 655.116 816.053 659.456 815.907 663.799C815.784 667.504 815.659 671.208 815.538 674.913C815.402 679.064 814.671 683.844 815.331 687.971C815.906 691.565 819.017 691.021 819.154 687.444C819.32 683.125 819.293 678.797 819.482 674.474C819.733 668.738 819.992 663.001 820.273 657.266C822.227 617.425 829.559 578.169 843.09 540.536C848.566 525.306 854.84 510.889 862.905 496.801C869.995 484.414 878.523 472.423 887.241 461.254C895.714 450.401 904.523 439.798 914.905 430.603C923.33 423.141 932.597 416.64 942.123 410.591C954.223 402.909 966.299 395.413 979.405 389.516C986.217 386.451 993.159 383.707 1000.02 380.765C1001.26 380.236 1002.58 379.723 1003.77 379.11C1007.74 377.066 1006.43 373.988 1003.27 371.846Z" fill="#C1DEE2"/>
<path fill-rule="evenodd" clip-rule="evenodd" d="M894.203 511C905.199 511 914.983 512.429 925.115 516.799C933.861 520.57 941.831 525.563 949.569 530.999C960.454 538.644 969.027 547.541 975.028 559.331C978.614 566.374 981.244 576.34 978.836 584.022C975.999 593.07 968.212 600.616 957.955 599.021C951.612 598.036 945.798 593.838 940.978 589.887C935.211 585.159 930.595 579.475 926.783 573.162C920.565 562.864 916.912 551.222 911.63 540.461C909.123 535.354 906.701 530.21 903.699 525.356C902.213 522.952 900.631 520.572 898.377 518.785C897.17 517.83 892.085 516.176 894.029 514.031C865.514 514.405 840.253 536.305 834.779 563.413C834.269 565.939 833.87 568.487 833.449 571.029C833.184 572.634 833.291 578.554 831.856 579.579C828.691 581.841 830.021 574.969 830.157 573.98C830.508 571.423 830.883 568.868 831.275 566.317C833.413 552.443 839.589 539.546 849.89 529.652C861.668 518.338 877.561 511 894.203 511Z" fill="#89C5CC"/>
<path d="M765.059 62.4706C765.059 60.0341 763.084 58.0588 760.647 58.0588C758.211 58.0588 756.235 60.0341 756.235 62.4706V90.4118C756.235 92.8483 758.211 94.8235 760.647 94.8235C763.084 94.8235 765.059 92.8483 765.059 90.4118V62.4706Z" fill="#DDE3E9"/>
<path d="M785.647 38.9412C785.647 36.5046 783.672 34.5294 781.235 34.5294C778.799 34.5294 776.824 36.5046 776.824 38.9412V90.4118C776.824 92.8483 778.799 94.8235 781.235 94.8235C783.672 94.8235 785.647 92.8483 785.647 90.4118V38.9412Z" fill="#DDE3E9"/>
<path d="M806.235 27.1765C806.235 24.74 804.26 22.7648 801.824 22.7648C799.387 22.7648 797.412 24.74 797.412 27.1765V90.4118C797.412 92.8484 799.387 94.8236 801.824 94.8236C804.26 94.8236 806.235 92.8484 806.235 90.4118V27.1765Z" fill="#DDE3E9"/>
<path d="M826.824 38.9412C826.824 36.5046 824.848 34.5294 822.412 34.5294C819.975 34.5294 818 36.5046 818 38.9412V90.4118C818 92.8483 819.975 94.8235 822.412 94.8235C824.848 94.8235 826.824 92.8483 826.824 90.4118V38.9412Z" fill="#DDE3E9"/>
<path d="M847.412 15.4118C847.412 12.9752 845.437 11 843 11C840.563 11 838.588 12.9752 838.588 15.4118V90.4118C838.588 92.8483 840.563 94.8235 843 94.8235C845.437 94.8235 847.412 92.8483 847.412 90.4118V15.4118Z" fill="#C5CFD6"/>
<path fill-rule="evenodd" clip-rule="evenodd" d="M32.7059 461.377C32.7059 444.996 45.9441 431.588 62.1177 431.588V461.377L42.0177 483.059C36.3 477.758 32.7059 469.982 32.7059 461.377Z" fill="#F2F2F2"/>
<path fill-rule="evenodd" clip-rule="evenodd" d="M61.3394 461H91.0412C91.0412 468.678 87.9091 475.872 82.9579 481.1C77.512 486.818 69.7569 490.412 61.3394 490.412C53.5857 490.412 46.4885 487.31 41.0412 482.407L61.3394 461Z" fill="#AFB9C5"/>
<path fill-rule="evenodd" clip-rule="evenodd" d="M91.5294 461C91.5294 444.826 78.2912 431.588 62.1177 431.588V461H91.5294ZM47.4118 431.588L59.1765 458.059L32.7059 446.294C35.3235 439.432 41.2015 434.206 47.4118 431.588Z" fill="#C5CFD6"/>
<path fill-rule="evenodd" clip-rule="evenodd" d="M989.715 474.499C986.89 477.499 982.887 479.382 978.434 479.382C969.879 479.382 962.944 472.469 962.944 463.941C962.944 455.413 969.879 448.5 978.434 448.5V419.824C954.097 419.824 934.177 439.681 934.177 463.941C934.177 488.202 954.097 508.059 978.434 508.059C991.218 508.059 1002.77 502.668 1010.65 494.091L989.715 474.499Z" fill="#F2F2F2"/>
<path fill-rule="evenodd" clip-rule="evenodd" d="M978.294 419.824V448.5C986.822 448.5 993.735 455.413 993.735 463.941H1022.41C1022.41 439.681 1002.55 419.824 978.294 419.824Z" fill="#AFB9C5"/>
<path fill-rule="evenodd" clip-rule="evenodd" d="M993.143 463.941C993.143 468.951 990.783 473.405 987.118 476.281L1005.15 499.235C1015.65 491.017 1022.41 478.278 1022.41 463.941H993.143Z" fill="#C5CFD6"/>
<path fill-rule="evenodd" clip-rule="evenodd" d="M709.252 69.094C707.078 71.394 703.999 72.8383 700.574 72.8383C693.993 72.8383 688.658 67.5381 688.658 61C688.658 54.4619 693.993 49.1618 700.574 49.1618V27.1765C681.853 27.1765 666.529 42.4005 666.529 61C666.529 79.5996 681.853 94.8236 700.574 94.8236C710.408 94.8236 719.295 90.6903 725.353 84.115L709.252 69.094Z" fill="#F2F2F2"/>
<path fill-rule="evenodd" clip-rule="evenodd" d="M700.353 27.1765V49.1618C706.891 49.1618 712.191 54.4619 712.191 61H734.177C734.177 42.4005 718.953 27.1765 700.353 27.1765Z" fill="#AFB9C5"/>
<path fill-rule="evenodd" clip-rule="evenodd" d="M712.225 61C712.225 64.7577 710.455 68.0979 707.706 70.2545L721.23 87.4706C729.102 81.3071 734.177 71.7529 734.177 61H712.225Z" fill="#C5CFD6"/>
<path fill-rule="evenodd" clip-rule="evenodd" d="M173.893 94.8034C173.887 94.8181 173.881 94.8328 173.872 94.8504C173.881 94.8357 173.893 94.7769 173.893 94.8034Z" fill="#C5CFD6"/>
<path fill-rule="evenodd" clip-rule="evenodd" d="M173.879 94.8257C173.879 94.8287 173.876 94.8346 173.876 94.8404C173.876 94.8257 173.902 94.7816 173.879 94.8257Z" fill="#C5CFD6"/>
<path fill-rule="evenodd" clip-rule="evenodd" d="M173.981 94.5769C173.961 94.6357 173.934 94.6916 173.911 94.7504C173.922 94.721 173.934 94.6975 173.946 94.6681C173.64 95.4328 173.834 94.9357 173.981 94.5769Z" fill="#C5CFD6"/>
<path fill-rule="evenodd" clip-rule="evenodd" d="M173.915 94.754C173.904 94.7805 173.892 94.8099 173.88 94.8364C173.795 95.0011 173.915 94.754 173.915 94.754Z" fill="#C5CFD6"/>
<path fill-rule="evenodd" clip-rule="evenodd" d="M173.881 94.8264C173.881 94.8235 173.881 94.8235 173.884 94.8206C173.881 94.8235 173.881 94.8235 173.881 94.8264Z" fill="#C5CFD6"/>
<path fill-rule="evenodd" clip-rule="evenodd" d="M173.867 94.8476C173.849 94.8829 173.949 94.7123 173.867 94.8476Z" fill="#C5CFD6"/>
<path fill-rule="evenodd" clip-rule="evenodd" d="M173.879 94.8264L173.885 94.8206C173.882 94.8235 173.882 94.8264 173.879 94.8264Z" fill="#C5CFD6"/>
<path d="M237.118 18.3529H109.176C105.928 18.3529 103.294 20.9865 103.294 24.2353V105.118C103.294 108.366 105.928 111 109.176 111H237.118C240.366 111 243 108.366 243 105.118V24.2353C243 20.9865 240.366 18.3529 237.118 18.3529Z" fill="#DDE3E9"/>
<path fill-rule="evenodd" clip-rule="evenodd" d="M156.235 44.8235L115.059 111H197.412L156.235 44.8235Z" fill="#AFB9C5"/>
<path fill-rule="evenodd" clip-rule="evenodd" d="M196.676 62.4706L160.647 111H232.706L196.676 62.4706Z" fill="#C5CFD6"/>
<path d="M212.118 62.4706C219.427 62.4706 225.353 56.545 225.353 49.2353C225.353 41.9256 219.427 36 212.118 36C204.808 36 198.882 41.9256 198.882 49.2353C198.882 56.545 204.808 62.4706 212.118 62.4706Z" fill="white"/>
<path fill-rule="evenodd" clip-rule="evenodd" d="M875.343 722.745C875.349 722.759 875.354 722.774 875.363 722.792C875.354 722.777 875.343 722.718 875.343 722.745Z" fill="#C5CFD6"/>
<path fill-rule="evenodd" clip-rule="evenodd" d="M875.356 722.767C875.356 722.77 875.359 722.776 875.359 722.782C875.359 722.767 875.333 722.723 875.356 722.767Z" fill="#C5CFD6"/>
<path fill-rule="evenodd" clip-rule="evenodd" d="M875.254 722.518C875.275 722.577 875.301 722.633 875.325 722.692C875.313 722.662 875.301 722.639 875.29 722.609C875.595 723.374 875.401 722.877 875.254 722.518Z" fill="#C5CFD6"/>
<path fill-rule="evenodd" clip-rule="evenodd" d="M875.32 722.695C875.332 722.722 875.344 722.751 875.355 722.778C875.441 722.942 875.32 722.695 875.32 722.695Z" fill="#C5CFD6"/>
<path fill-rule="evenodd" clip-rule="evenodd" d="M875.354 722.768C875.354 722.765 875.354 722.765 875.352 722.762C875.354 722.765 875.354 722.765 875.354 722.768Z" fill="#C5CFD6"/>
<path fill-rule="evenodd" clip-rule="evenodd" d="M875.368 722.789C875.386 722.824 875.286 722.654 875.368 722.789Z" fill="#C5CFD6"/>
<path fill-rule="evenodd" clip-rule="evenodd" d="M875.356 722.768L875.35 722.762C875.353 722.765 875.353 722.768 875.356 722.768Z" fill="#C5CFD6"/>
<path d="M776.824 609.529H973.882C977.131 609.529 979.765 612.163 979.765 615.412V741.882C979.765 745.131 977.131 747.765 973.882 747.765H776.824C773.575 747.765 770.941 745.131 770.941 741.882V615.412C770.941 612.163 773.575 609.529 776.824 609.529Z" fill="#DDE3E9"/>
<path fill-rule="evenodd" clip-rule="evenodd" d="M902.227 649.235L962.602 747.765H841.852L902.227 649.235Z" fill="#AFB9C5"/>
<path fill-rule="evenodd" clip-rule="evenodd" d="M839.977 675.627L893.352 747.765H786.602L839.977 675.627Z" fill="#C5CFD6"/>
<path d="M817.265 675.706C806.3 675.706 797.412 666.817 797.412 655.853C797.412 644.888 806.3 636 817.265 636C828.229 636 837.118 644.888 837.118 655.853C837.118 666.817 828.229 675.706 817.265 675.706Z" fill="white"/>
<path fill-rule="evenodd" clip-rule="evenodd" d="M388.698 392.333C383.014 385.661 379.167 377.485 379.809 368.322C381.662 341.923 418.41 347.73 425.559 361.055C432.707 374.379 431.858 408.176 422.619 410.558C418.935 411.507 411.086 409.181 403.098 404.366L408.112 439.838H378.506L388.698 392.333Z" fill="#B28B67"/>
<path fill-rule="evenodd" clip-rule="evenodd" d="M418.887 352.268C418.209 351.864 416.79 351.01 416.071 350.701C415.901 350.626 414.71 349.776 414.678 349.787C413.777 350.091 411.166 351.215 410.942 352.185C410.907 352.259 410.873 352.328 410.839 352.388C410.469 353.06 410.13 353.75 409.806 354.447C409.096 355.979 408.482 357.58 407.896 359.168C406.755 362.261 405.764 365.425 404.852 368.597C403.924 371.827 403.137 375.094 402.255 378.336C400.986 383.002 399.362 387.553 398.102 392.217C397.298 395.195 396.85 398.208 397.062 401.273C397.064 401.31 397.065 401.346 397.068 401.383C397.07 401.399 397.071 401.414 397.073 401.429C397.109 401.9 397.16 402.373 397.228 402.846C397.288 403.252 397.348 403.658 397.412 404.065C398.563 401.77 399.441 399.241 400.374 396.841C400.465 396.606 400.552 396.369 400.637 396.132C400.938 395.645 401.244 395.162 401.554 394.68C403.509 391.644 405.472 388.62 407.346 385.529C410.718 379.97 414.058 374.293 418.056 369.189C419.236 367.681 420.444 366.197 421.609 364.677C422.273 363.812 422.919 362.933 423.544 362.038C423.991 361.398 425.933 359.168 425.23 357.827C424.87 357.142 420.646 353.318 418.887 352.268Z" fill="#2C2C2C"/>
<path fill-rule="evenodd" clip-rule="evenodd" d="M416.285 350.812C416.945 351.034 416.624 349.662 415.985 349.179C413.026 346.941 401.713 346.13 391.868 348.173C385.272 349.542 377.602 352.95 372.334 357.331C367.585 361.28 364.319 367.611 362.637 373.728C360.872 380.151 360.605 386.847 361.588 393.433C361.804 394.88 362.269 396.258 362.527 397.674C362.819 399.269 362.968 400.804 363.487 402.356C363.806 403.305 364.346 404.236 364.617 405.192C364.927 406.282 364.738 407.29 364.512 408.399C364.144 410.206 363.688 412.009 363.039 413.735C362.065 416.326 360.883 418.753 360.142 421.442C359.156 425.021 355.031 436.665 358.045 439.838H415.43C413.985 435.897 409.647 431.258 408.769 427.039C408.252 424.553 408.006 419.125 407.952 418.928C406.659 410.013 404.134 405.756 402.552 404.212C400.971 402.667 398.865 402.192 398.756 400.851C398.307 395.309 400.511 389.999 402.128 384.826C404.054 378.661 405.465 372.343 407.451 366.199C408.33 363.478 412.861 349.662 416.285 350.812Z" fill="#8991DC"/>
<path fill-rule="evenodd" clip-rule="evenodd" d="M396.166 357.189C394.002 364.055 393.536 367.72 394.002 377.101H392.94C390.957 368.248 392.722 359.913 394.832 357.189H396.166ZM367.135 374.908C371.167 384.693 373.006 390.471 384.267 398.389L383.397 398.998C372.218 392.662 368.963 385.105 366.287 375.316L367.135 374.908ZM383.703 364.951C385.535 378.839 386.07 386.772 395.611 401.965L394.596 402.275C384.776 389.047 383.22 378.251 382.756 365.027L383.703 364.951ZM373.164 406.207L374.032 405.151C385.884 408.863 384.563 416.527 399.49 424.288L398.243 425.044C385.173 419.65 382.117 408.08 373.164 406.207Z" fill="black" fill-opacity="0.2"/>
<path fill-rule="evenodd" clip-rule="evenodd" d="M324.996 594.036H420.296L432.783 747H290.922L324.996 594.036Z" fill="#C5CFD6"/>
<path fill-rule="evenodd" clip-rule="evenodd" d="M324.996 594.036H354.306L371.849 747H290.922L324.996 594.036Z" fill="black" fill-opacity="0.1"/>
<path fill-rule="evenodd" clip-rule="evenodd" d="M528.945 567.83C539.106 561.729 556.153 569.568 556.141 578.294C556.106 604.402 532.28 727.449 531.036 735.228C529.792 743.006 516.465 745.061 515.689 735.253C514.454 719.648 512.16 665.625 514.456 640.619C515.403 630.298 516.424 620.468 517.428 611.698C504.925 634.276 485.589 666.603 459.42 708.677L445.214 702.187C456.37 665.431 465.517 639.482 472.657 624.341C484.881 598.415 496.344 576.213 501.168 568.392C508.757 556.091 521.966 560.383 528.945 567.83Z" fill="#B28B67"/>
<path fill-rule="evenodd" clip-rule="evenodd" d="M446.229 681.775L494.99 566.265C506.671 547.474 539.422 570.088 535.438 580.987C526.394 605.729 480.399 685.832 477.705 693.204L446.229 681.775Z" fill="#1F28CF"/>
<path fill-rule="evenodd" clip-rule="evenodd" d="M443.531 694.897C440.492 697.394 438.515 699.434 437.599 701.017C436.486 702.941 435.182 705.935 433.687 709.999C435.921 711.29 456.001 722.892 493.927 744.807C498.485 740.539 499.196 737.225 496.062 734.864C492.928 732.503 490.342 730.511 488.303 728.89L467.521 700.238C467.121 699.687 466.35 699.564 465.798 699.963C465.789 699.97 465.779 699.977 465.77 699.984L461.446 703.307C457.482 702.959 454.523 702.221 452.571 701.093C450.985 700.176 449.165 698.271 447.111 695.376L447.111 695.376C446.323 694.265 444.783 694.003 443.671 694.79C443.624 694.824 443.577 694.86 443.531 694.897Z" fill="#810F0F"/>
<path fill-rule="evenodd" clip-rule="evenodd" d="M512.569 728.992C511.189 732.676 510.499 735.433 510.499 737.262C510.499 739.486 510.87 742.732 511.611 747C514.191 747 537.383 747 581.187 747C582.995 741.023 581.951 737.796 578.056 737.319C574.16 736.843 570.924 736.412 568.348 736.028L536.009 721.611C535.387 721.334 534.658 721.614 534.38 722.236C534.376 722.247 534.371 722.257 534.367 722.268L532.288 727.31C528.682 728.993 525.751 729.834 523.497 729.834C521.665 729.834 519.135 729.094 515.908 727.615L515.908 727.615C514.669 727.047 513.204 727.591 512.637 728.829C512.612 728.883 512.59 728.937 512.569 728.992Z" fill="#810F0F"/>
<path fill-rule="evenodd" clip-rule="evenodd" d="M559.559 587.169C559.559 619.941 543.995 696.387 543.985 703.603L510.499 703.628C515.4 635.417 517.138 600.944 515.713 600.209C513.575 599.107 428.066 608.747 402.42 608.747C365.439 608.747 350.141 585.426 348.9 542.226H422.158C437.074 543.822 514.877 559.515 543.771 564.909C556.141 567.219 559.559 578.141 559.559 587.169Z" fill="#2B44FF"/>
<path fill-rule="evenodd" clip-rule="evenodd" d="M483.968 526.757L518.913 560.847C529.081 565.184 537.412 569.973 543.906 575.214C545.366 576.976 546.956 580.351 540.085 578.84C533.214 577.33 525.918 576.05 524.627 578.285C523.335 580.52 527.141 583.944 524.754 586.868C523.163 588.818 517.811 582.616 508.7 568.264L472.362 546.84L483.968 526.757ZM313.089 495.904L340.101 496.006C319.528 562.661 308.607 597.56 307.338 600.704C304.483 607.778 310.524 618.552 313.107 624.342C304.694 628.106 305.59 614.164 294.977 619.102C285.29 623.608 277.922 631.774 266.73 624.869C265.354 624.02 263.846 620.823 267.489 618.325C276.566 612.101 289.645 601.209 291.412 597.624C293.822 592.734 301.048 558.828 313.089 495.904Z" fill="#B28B67"/>
<path fill-rule="evenodd" clip-rule="evenodd" d="M395.4 419.277L406.067 417.448C422.87 476.847 509.207 517.336 514.507 539.541C516.451 547.684 510.59 551.8 513.617 554.28L499.752 564.43C497.405 561.691 492.394 566.702 481.931 563.197C471.467 559.691 395.4 489.611 395.4 419.277Z" fill="#DB2721"/>
<path fill-rule="evenodd" clip-rule="evenodd" d="M413.343 427.174C412.113 505.814 457.573 525.874 447.447 557.421C439.085 583.472 359.049 611.477 345.199 585.941C339.593 575.604 337.049 563.103 336.761 549.511C333.221 559.953 330.421 568.942 328.362 576.479C324.809 589.481 311.037 591.548 311.037 596.556L292.891 591.548C294.122 584.743 285.568 581.429 287.861 566.227C298.138 498.112 325.75 448.738 370.696 418.104L371.161 411.454C371.352 408.735 373.709 406.686 376.428 406.876L409.654 409.199C412.372 409.389 414.422 411.747 414.232 414.466L413.343 427.174Z" fill="#FF4133"/>
<path fill-rule="evenodd" clip-rule="evenodd" d="M756.663 319.437C760.256 311.76 761.758 303.148 758.834 294.764C750.407 270.608 717.701 285.416 714.436 299.673C711.17 313.93 720.543 345.244 729.74 345.106C733.409 345.05 740.118 340.875 746.325 334.342L750.669 368.717L778.207 361.153L756.663 319.437Z" fill="#D4A181"/>
<path fill-rule="evenodd" clip-rule="evenodd" d="M746.794 320.316C752.008 325.958 758.095 329.622 762.834 328.34C771.835 325.904 774.973 312.162 771.467 299.249C771.343 298.796 771.212 298.347 771.073 297.905C782.365 301.849 793.194 312.716 805.792 309.307C822.933 304.668 820.37 268.324 796.423 274.805C780.137 279.212 772.769 283.749 766.817 289.122C764.415 285.659 761.464 283 758.314 281.438C757.517 280.917 756.402 280.514 755.029 280.232C754.181 280.029 753.327 279.907 752.475 279.873C747.896 279.473 741.573 280.028 734.773 281.616C733.503 281.912 732.264 282.234 731.063 282.576C729.323 276.247 722.778 272.511 716.426 274.23C710.061 275.953 706.3 282.498 708.025 288.85C709.693 294.992 715.881 298.704 722.043 297.384C725.809 297.514 730.486 297.091 735.527 296.083C735.537 298.017 735.832 300.137 736.461 302.453C737.016 304.498 737.831 306.606 738.846 308.695C739.574 307.131 740.784 305.911 742.241 305.517C746.318 304.413 750.065 306.992 751.03 310.546C752.254 315.056 750.532 319.025 746.794 320.316Z" fill="#191847"/>
<path fill-rule="evenodd" clip-rule="evenodd" d="M813.542 467.039L769.769 617.878L749.18 731.13H728.515L749.143 467.039H813.542Z" fill="#BA8B72"/>
<path fill-rule="evenodd" clip-rule="evenodd" d="M833.214 467.039C830.16 545.399 831.364 588.139 832.048 595.258C832.732 602.377 836.612 650.058 863.058 733.52H841.564C806.542 653.453 794.316 605.772 790.299 595.258C786.282 584.744 774.419 542.004 757.099 467.039H833.214Z" fill="#D4A181"/>
<path fill-rule="evenodd" clip-rule="evenodd" d="M814.482 467.039C803.096 518.943 783.402 601.795 755.402 715.595H725.178C722.945 598.79 732.442 521.913 748.888 467.039H814.482Z" fill="#69A1AC"/>
<path fill-rule="evenodd" clip-rule="evenodd" d="M833.367 467.039C830.376 545.399 838.128 622.599 862.141 716.816H829.893C794.806 637.943 769.659 561.124 752.472 467.039H833.367Z" fill="#89C5CC"/>
<path fill-rule="evenodd" clip-rule="evenodd" d="M866.121 749.055L864.935 729.935C857.992 731.966 849.295 731.169 838.845 727.545C827.608 735.505 813.463 740.939 796.409 743.85L796.409 743.85C795.108 744.072 794.233 745.307 794.455 746.608C794.47 746.692 794.489 746.776 794.512 746.858L796.151 752.64H838.845H863.749L866.121 749.055Z" fill="#191847"/>
<path fill-rule="evenodd" clip-rule="evenodd" d="M753.793 749.055L752.607 729.935C745.663 731.966 736.967 731.169 726.516 727.545C715.28 735.505 701.135 740.939 684.081 743.85L684.081 743.85C682.78 744.072 681.905 745.307 682.127 746.608C682.141 746.692 682.16 746.776 682.183 746.858L683.823 752.64H726.516H751.421L753.793 749.055Z" fill="#191847"/>
<path fill-rule="evenodd" clip-rule="evenodd" d="M727.942 399.711L683.164 384.722C674.94 377.899 667.138 372.854 659.758 369.585C657.597 369.108 653.989 369.23 658.325 374.468C662.66 379.705 666.984 385.409 665.631 387.504C664.278 389.599 659.649 387.84 658.186 391.18C657.211 393.407 664.913 395.27 681.291 396.768L715.782 418.54L727.942 399.711ZM667.461 429.957L647.786 423.343C643.559 414.248 639.692 409.983 636.186 410.55C633.277 409.783 640.12 421.007 634.842 420.873C629.564 420.739 615.485 413.741 613.681 415.997C611.012 419.334 615.364 427.335 619.451 430.971C627.089 437.766 632.723 439.548 646.084 440.811C653.07 441.471 660.929 443.894 669.663 448.081L667.461 429.957Z" fill="#D4A181"/>
<path fill-rule="evenodd" clip-rule="evenodd" d="M746.991 391.351C732.681 393.748 713.095 394.14 690.465 384.91L685.667 404.072C702.174 415.435 723.929 423.31 741.077 419.753C754.591 416.949 758.594 399.338 746.991 391.351Z" fill="#2026A2"/>
<path fill-rule="evenodd" clip-rule="evenodd" d="M732.808 423.4C718.334 429.895 692.125 430 654.182 423.713C648.618 443.595 646.869 457.371 648.934 465.042C682.398 475.528 709.9 477.945 731.59 474.539C733.203 487.476 736.951 499.389 744.192 509.59C759.079 530.56 818.373 498.027 840.339 498.396C845.885 452.882 817.05 439.963 812.077 412.37C806.631 382.152 774.005 339.989 770.434 340.63L737.859 346.474C740.204 369.878 735.723 396.938 732.808 423.4Z" fill="#1F28CF"/>
<path fill-rule="evenodd" clip-rule="evenodd" d="M119.038 302.974C111.792 298.027 105.942 291.152 104.202 282.159C99.1882 256.246 136.403 252.271 146.789 263.244C157.176 274.217 165.074 306.995 156.709 311.695C153.374 313.57 145.145 313.372 136.139 310.815L150.168 343.679L121.394 351.389L119.038 302.974Z" fill="#784931"/>
<path fill-rule="evenodd" clip-rule="evenodd" d="M131.678 252.31C127.428 252.176 121.613 253.302 119.285 254.218C119.781 250.609 119.355 246.85 117.97 243.45C116.625 240.146 114.304 237.648 112.061 234.98C111.027 233.75 109.908 232.551 108.51 231.773C107.085 230.981 105.46 230.641 103.866 230.698C102.235 230.757 100.637 231.216 99.1841 231.949C98.5414 232.273 98.0133 232.745 97.3918 233.096C96.7553 233.455 96.31 233.119 95.6997 232.826C94.2288 232.12 92.3401 232.083 90.7787 232.306C89.027 232.558 87.3339 233.283 85.8635 234.27C84.4322 235.231 83.1529 236.51 82.3551 238.089C81.9998 238.792 81.7123 239.56 81.604 240.353C81.5596 240.678 81.5857 240.857 81.3201 241.043C81.0744 241.215 80.7568 241.303 80.5012 241.473C78.029 243.112 76.2639 245.815 75.7149 248.825C75.3947 250.581 75.7803 253.418 76.7 256.468C77.6197 259.517 82.5713 266.791 85.9757 269.015C89.0145 271.001 92.9143 271.804 96.4342 271.67C94.9005 274.754 94.27 278.265 94.0355 281.726C93.7809 285.486 94.0111 289.259 94.719 292.978C95.3917 296.511 96.3496 300.181 98.0775 303.351C99.6936 306.316 102.03 308.478 105.209 309.395C106.665 309.815 108.165 310.021 109.661 310.177C111.135 310.33 112.609 310.468 114.086 310.38C116.882 310.213 119.911 309.301 121.392 306.663C121.926 305.712 122.482 304.548 122.772 303.484C122.876 303.101 122.934 302.853 122.613 302.592C122.228 302.28 121.694 302.105 121.252 301.898C118.731 300.72 116.838 298.753 115.782 296.096C114.711 293.4 114.502 289.605 116.907 287.659C119.876 285.257 124.048 285.983 127.474 286.785C127.554 281.99 129.093 277.28 132.644 274.139C136.572 270.664 141.704 269.006 145.844 265.818C146.923 264.987 148.006 264.083 148.624 262.813C148.882 262.283 149.171 261.607 149.168 260.998C149.163 260.198 148.509 259.702 147.977 259.22C145.157 256.664 135.928 252.445 131.678 252.31Z" fill="#191847"/>
<path fill-rule="evenodd" clip-rule="evenodd" d="M127.956 451.583L172.956 608.886L205.788 724.828H229.734L194.845 451.583H127.956Z" fill="#191847"/>
<path fill-rule="evenodd" clip-rule="evenodd" d="M115.922 451.583C114.881 532.659 111.332 576.88 110.239 584.246C109.146 591.612 92.6221 638.473 60.6665 724.828H85.4734C126.155 641.985 148.865 595.124 153.602 584.246C158.34 573.368 172.96 529.147 194.981 451.583H115.922Z" fill="#2F3676"/>
<path fill-rule="evenodd" clip-rule="evenodd" d="M58.4493 747.274L59.6905 721.209H85.7555C98.1149 729.898 114.25 736.931 134.162 742.31V747.274H86.9967L70.8612 744.792V747.274H58.4493Z" fill="#191847"/>
<path fill-rule="evenodd" clip-rule="evenodd" d="M202.428 747.274L203.669 721.209H229.734C242.093 729.898 258.229 736.931 278.141 742.31V747.274H230.975L214.84 744.792V747.274H202.428Z" fill="#191847"/>
<path fill-rule="evenodd" clip-rule="evenodd" d="M229.128 418.814L271.515 443.435C282.494 445.177 291.789 447.804 299.401 451.317C301.254 452.673 303.625 455.565 296.55 455.768C289.475 455.971 282.041 456.501 281.323 458.986C280.604 461.471 285.15 463.872 283.529 467.293C282.448 469.574 275.719 464.85 263.342 453.123L222.667 441.144L229.128 418.814ZM59.6692 434.806L81.8706 434.117C67.4783 488.387 59.6982 517.118 58.5304 520.31C55.9028 527.491 62.3451 538.056 65.1407 543.758C56.8108 547.826 57.2344 533.842 46.733 539.163C37.1478 544.02 30.0186 552.455 18.5293 545.945C17.1168 545.145 15.4912 542 19.0686 539.369C27.9811 532.816 40.7586 521.448 42.4127 517.797C44.6682 512.818 50.4204 485.154 59.6692 434.806Z" fill="#B28B67"/>
<path fill-rule="evenodd" clip-rule="evenodd" d="M134.671 331.028L147.307 324.248C173.481 366.274 208.338 405.256 260.201 434.229L252.382 455.456C208.412 439.124 167.488 427.629 146 395.277C138.787 384.418 136.732 345.168 134.671 331.028Z" fill="#C5CFD6"/>
<path fill-rule="evenodd" clip-rule="evenodd" d="M111.043 466.461C150.186 463.74 180.433 458.407 201.785 450.461C204.43 449.477 204.058 444.846 202.245 441.979C174.014 397.322 153.069 357.707 147.173 324.271C143.871 326.728 137.579 328.118 128.298 328.442C110.032 367.19 105.814 408.698 111.043 466.461Z" fill="#323337"/>
<path fill-rule="evenodd" clip-rule="evenodd" d="M121.737 326.621L131.881 324.832C136.681 338.239 177.137 524.114 210.932 581.292L86.4919 603.234C79.2986 546.664 88.6985 475.527 100.314 415.339C84.3121 436.058 72.8835 468.4 66.0283 512.365L41.6695 510.521C45.8972 433.152 71.8988 372.249 119.674 327.811C119.744 327.522 119.813 327.235 119.882 326.948L120.779 326.79C121.073 326.521 121.367 326.252 121.661 325.984L121.737 326.621V326.621Z" fill="#DDE3E9"/>
</svg>
