<svg width="1111" height="865" viewBox="0 0 1111 865" fill="none" xmlns="http://www.w3.org/2000/svg">
<path d="M873.808 185.052C920.404 185.052 958.178 147.278 958.178 100.682C958.178 54.085 920.404 16.311 873.808 16.311C827.211 16.311 789.437 54.085 789.437 100.682C789.437 147.278 827.211 185.052 873.808 185.052Z" fill="#F2F2F2"/>
<path d="M873.808 38.5975C876.445 38.5975 878.583 36.4594 878.583 33.8218C878.583 31.1843 876.445 29.0461 873.808 29.0461C871.17 29.0461 869.032 31.1843 869.032 33.8218C869.032 36.4594 871.17 38.5975 873.808 38.5975Z" fill="black" fill-opacity="0.1"/>
<path d="M806.948 105.457C809.585 105.457 811.724 103.319 811.724 100.682C811.724 98.044 809.585 95.9059 806.948 95.9059C804.31 95.9059 802.172 98.044 802.172 100.682C802.172 103.319 804.31 105.457 806.948 105.457Z" fill="black" fill-opacity="0.1"/>
<path d="M940.667 105.457C943.305 105.457 945.443 103.319 945.443 100.682C945.443 98.044 943.305 95.9059 940.667 95.9059C938.03 95.9059 935.891 98.044 935.891 100.682C935.891 103.319 938.03 105.457 940.667 105.457Z" fill="black" fill-opacity="0.1"/>
<path d="M873.808 172.317C876.445 172.317 878.583 170.179 878.583 167.541C878.583 164.904 876.445 162.766 873.808 162.766C871.17 162.766 869.032 164.904 869.032 167.541C869.032 170.179 871.17 172.317 873.808 172.317Z" fill="black" fill-opacity="0.1"/>
<path fill-rule="evenodd" clip-rule="evenodd" d="M873.808 43.3733L876.991 99.0896H870.624L873.808 43.3733Z" fill="#AFB9C5"/>
<path fill-rule="evenodd" clip-rule="evenodd" d="M901.982 128.856L872.715 104.092L877.218 99.5891L901.982 128.856Z" fill="#AFB9C5"/>
<path d="M873.808 107.049C877.324 107.049 880.175 104.198 880.175 100.682C880.175 97.1648 877.324 94.314 873.808 94.314C870.291 94.314 867.44 97.1648 867.44 100.682C867.44 104.198 870.291 107.049 873.808 107.049Z" fill="#C5CFD6"/>
<g opacity="0.345889">
<path opacity="0.345889" fill-rule="evenodd" clip-rule="evenodd" d="M784.333 543.841C773.357 421.188 184.46 184.454 75.1332 300.629C-34.1935 416.804 70.9106 634.834 300.019 690.666C529.127 746.498 795.309 666.495 784.333 543.841Z" fill="#F2F2F2"/>
<path opacity="0.345889" fill-rule="evenodd" clip-rule="evenodd" d="M420.347 623.536C430.179 519.337 957.688 318.222 1055.62 416.917C1153.55 515.613 1128.76 723.206 923.535 770.638C718.309 818.069 410.515 727.735 420.347 623.536Z" fill="#DDE3E9"/>
</g>
<path d="M104.126 214.778C141.491 214.778 171.781 198.742 171.781 178.961C171.781 159.179 141.491 143.143 104.126 143.143C66.7608 143.143 36.4703 159.179 36.4703 178.961C36.4703 198.742 66.7608 214.778 104.126 214.778Z" fill="#F2F2F2"/>
<path fill-rule="evenodd" clip-rule="evenodd" d="M182.925 203.635C182.925 159.676 147.645 124.04 104.126 124.04C60.6065 124.04 25.3271 159.676 25.3271 203.635" fill="#DDE3E9"/>
<path d="M108.106 -119H100.146V135.703H108.106V-119Z" fill="#DDE3E9"/>
<g opacity="0.7">
<g opacity="0.7">
<path opacity="0.7" d="M227.498 134.111C255.427 134.111 278.069 121.17 278.069 105.206C278.069 89.242 255.427 76.3005 227.498 76.3005C199.568 76.3005 176.927 89.242 176.927 105.206C176.927 121.17 199.568 134.111 227.498 134.111Z" fill="#F2F2F2"/>
<path opacity="0.7" fill-rule="evenodd" clip-rule="evenodd" d="M286.398 125.119C286.398 89.643 260.027 60.8843 227.498 60.8843C194.968 60.8843 168.598 89.643 168.598 125.119" fill="#DDE3E9"/>
</g>
<path opacity="0.7" d="M232.274 -119H224.314V97.4978H232.274V-119Z" fill="#DDE3E9"/>
</g>
<path d="M915.197 253.879L944.755 224.301C949.727 219.327 957.79 219.325 962.765 224.298C962.766 224.299 962.767 224.3 962.769 224.301L1041.46 303.033C1046.23 307.809 1048.92 314.286 1048.92 321.039V842.505" stroke="#CBCBCB" stroke-width="8"/>
<path d="M1090.31 840.913H1005.93C1003.3 840.913 1001.16 843.051 1001.16 845.689V847.281C1001.16 849.918 1003.3 852.056 1005.93 852.056H1090.31C1092.94 852.056 1095.08 849.918 1095.08 847.281V845.689C1095.08 843.051 1092.94 840.913 1090.31 840.913Z" fill="#AFB9C5"/>
<path fill-rule="evenodd" clip-rule="evenodd" d="M932.975 236.525C953.49 257.041 953.49 290.302 932.975 310.818L901.457 342.336L827.165 268.043L858.682 236.525C879.198 216.01 912.459 216.01 932.975 236.525Z" fill="#C5CFD6"/>
<path d="M858.251 311.651C878.767 332.166 898.673 345.521 902.714 341.48C906.755 337.439 893.4 317.533 872.885 297.017C852.37 276.502 832.463 263.147 828.422 267.188C824.381 271.229 837.736 291.135 858.251 311.651Z" fill="#F2F2F2"/>
<path fill-rule="evenodd" clip-rule="evenodd" d="M86.2298 473.461C90.7899 472.904 95.6569 473.1 99.8977 474.9C108.915 478.728 111.478 489.381 111.355 498.04C111.222 507.36 109.242 517.54 116.328 525.049C119.585 528.501 123.637 531.143 126.835 534.659C130.252 538.416 132.934 542.714 134.919 547.331C138.565 555.81 140.354 565.781 137.02 574.675C134.085 582.506 126.701 589.575 128.296 598.479C129.961 607.769 139.326 614.87 145.182 621.789C151.808 629.62 157.91 639.627 158.912 649.896C159.873 659.737 155.589 669.689 149.015 677.128C135.881 691.992 116.137 699.279 96.2295 699.234C87.7772 699.215 78.2076 698.833 70.9135 694.291C68.6592 692.887 67.4699 691.312 66.1298 689.122C64.9282 687.159 63.3409 685.882 61.5037 684.492C57.4673 681.441 54.5523 677.328 52.692 672.724C45.4681 654.843 51.2418 632.721 61.3536 616.842C63.7497 613.08 65.7113 609.46 64.5473 604.976C63.3327 600.295 60.3472 596.073 57.7067 592.05C55.0974 588.073 52.1185 584.279 50.0791 579.98C47.9432 575.476 47.3417 570.759 47.7191 565.83C48.4284 556.57 52.4255 548.026 58.0846 540.579C63.5353 533.406 69.9354 526.543 69.9498 517.145C69.9655 507.184 63.3061 498.323 66.1431 488.195C67.3178 484.002 69.6773 479.699 73.4796 477.185C77.1262 474.774 81.9411 473.985 86.2298 473.461Z" fill="#DDE3E9"/>
<path fill-rule="evenodd" clip-rule="evenodd" d="M83.25 489.385C83.3355 488.047 84.9224 487.245 86.1717 487.594C87.8161 488.054 87.7844 489.59 87.741 490.959C87.6079 495.166 88.2169 499.256 89.2284 503.338C91.3305 511.826 95.2156 519.646 98.2935 527.8C101.369 535.946 102.812 544.358 101.008 552.978C99.3075 561.106 96.6357 569.023 94.8952 577.161C93.3611 584.333 91.7287 591.897 94.065 599.051C96.313 605.938 101.283 611.546 104.862 617.77C112.271 630.652 115.558 644.944 115.997 659.652C116.201 666.482 116.018 673.374 114.433 680.073C113.521 683.93 112.296 689.142 108.991 691.805C107.466 693.033 104.86 693.458 103.577 691.639C102.373 689.934 103.429 687.293 103.812 685.475C105.467 677.606 105.8 669.563 105.404 661.573C105.02 653.833 104.106 646.106 101.67 638.714C99.4089 631.854 95.9742 625.692 91.9317 619.691C87.8124 613.576 83.53 607.447 81.8279 600.201C80.0986 592.842 81.5035 585.353 83.3821 578.134C85.3687 570.499 87.9709 563.082 90.6611 555.653C93.2829 548.415 94.2121 541.566 92.7648 533.989C89.9058 519.021 82.2529 504.972 83.25 489.385Z" fill="#C5CFD6"/>
<path fill-rule="evenodd" clip-rule="evenodd" d="M206.632 491.623C212.275 493.336 217.879 496.101 221.902 500.436C230.455 509.654 227.831 523.586 223.109 533.762C218.027 544.715 210.325 555.724 214.667 568.29C216.662 574.067 220.018 579.3 221.911 585.121C223.933 591.342 224.806 597.821 224.695 604.313C224.489 616.237 221.317 628.96 212.706 637.745C205.124 645.479 192.727 649.996 189.892 661.357C186.934 673.209 194.165 686.48 197.376 697.709C201.009 710.416 202.876 725.426 198.624 738.091C194.55 750.229 184.265 759.771 172.622 765.148C149.36 775.894 122.351 774.24 99.0252 763.831C89.1219 759.41 78.0994 753.981 71.945 744.815C70.0429 741.982 69.4805 739.5 69.066 736.213C68.6945 733.266 67.5078 730.93 66.0872 728.332C62.9658 722.623 61.7207 716.243 61.9721 709.83C62.9507 684.925 81.4153 661.767 101.668 648.249C106.467 645.046 110.682 641.785 111.686 635.877C112.736 629.709 111.466 623.163 110.495 617.031C109.537 610.971 108.048 604.935 107.929 598.789C107.804 592.351 109.592 586.46 112.64 580.827C118.366 570.246 127.57 562.22 138.144 556.357C148.328 550.71 159.463 545.923 164.447 534.816C169.731 523.043 166.604 509.1 175.284 498.599C178.878 494.251 183.92 490.39 189.709 489.394C195.26 488.44 201.325 490.012 206.632 491.623Z" fill="#DDE3E9"/>
<path fill-rule="evenodd" clip-rule="evenodd" d="M195.105 511.09C195.905 509.55 198.181 509.432 199.459 510.5C201.141 511.906 200.299 513.709 199.532 515.307C197.173 520.22 195.743 525.382 194.788 530.747C192.8 541.9 193.247 553.198 192.576 564.467C191.906 575.726 189.188 586.443 182.564 595.706C176.319 604.44 169.048 612.415 162.751 621.14C157.201 628.83 151.331 636.932 150.316 646.629C149.338 655.962 152.212 665.209 153.138 674.455C155.054 693.594 151.412 712.242 144.223 729.89C140.884 738.085 137.06 746.151 131.699 753.253C128.613 757.343 124.45 762.873 119.191 764.294C116.765 764.95 113.495 764.086 112.947 761.26C112.432 758.609 115.051 756.036 116.45 754.084C122.507 745.632 127.109 736.283 130.83 726.612C134.435 717.245 137.413 707.615 138.436 697.584C139.385 688.276 138.596 679.179 137.011 669.953C135.398 660.552 133.6 651.05 135.404 641.577C137.237 631.955 142.801 623.823 148.779 616.259C155.101 608.258 162.028 600.839 169.064 593.452C175.921 586.253 180.594 578.629 182.87 568.899C187.366 549.675 185.775 529.026 195.105 511.09Z" fill="#C5CFD6"/>
<path fill-rule="evenodd" clip-rule="evenodd" d="M32.1817 562.331C41.5648 562.331 49.8141 567.305 55.4984 574.363C62.1524 582.625 63.4963 592.715 66.1983 602.562C67.5427 607.462 69.8552 612.327 73.9075 615.656C77.5934 618.684 82.2725 619.29 86.6843 620.769C95.5014 623.726 102.621 630.848 105.433 639.538C108.863 650.137 105.23 660.827 105.855 671.57C106.43 681.435 116.157 687.59 123.983 692.319C131.7 696.983 138.652 701.348 140.976 710.433C143.441 720.068 144.268 730.824 140.854 740.342C135.17 756.19 118.537 763.169 102.464 764.251C87.8777 765.233 69.537 763.692 58.5828 753.104C52.028 746.768 49.6542 737.907 49.9487 729.09C50.1317 723.608 51.2176 718.177 52.6217 712.879C53.6168 709.124 54.9613 705.386 55.3444 701.506C56.3625 691.183 46.8218 689.2 38.7006 686.366C28.3808 682.764 21.1561 675.96 16.1323 666.482C11.4537 657.656 9.49067 647.75 12.2953 638.033C13.7278 633.071 16.3258 628.57 19.8494 624.741C21.4004 623.056 23.5866 621.65 24.9865 619.88C26.2932 618.226 26.0088 616.084 25.5584 614.148C23.4762 605.202 16.9886 597.795 14.6685 588.866C12.5739 580.806 13.8122 570.775 21.1809 565.576C24.3645 563.329 28.2905 562.356 32.1817 562.331Z" fill="#C5CFD6"/>
<path fill-rule="evenodd" clip-rule="evenodd" d="M44.9674 585.639C54.9124 596.232 57.6156 610.606 58.409 624.537C58.8534 632.348 58.3908 640.588 60.6859 648.165C62.6497 654.65 67.2533 659.608 71.9987 664.293C81.5509 673.725 92.2038 683.314 94.9978 696.964C96.6372 704.975 95.5306 713.249 97.7958 721.171C99.8556 728.372 103.482 735.447 107.893 741.529C111.445 746.426 116.072 750.175 119.954 754.739C121.139 756.133 122.835 758.184 122.346 760.151C121.774 762.455 118.84 763.184 116.758 762.822C111.904 761.979 107.818 757.344 104.644 753.974C100.003 749.046 96.0587 743.746 92.8532 737.801C89.2946 731.199 86.4292 724.193 85.2049 716.786C83.9344 709.102 84.5668 701.093 81.6657 693.719C76.7839 681.31 64.943 673.987 56.382 664.315C45.7156 652.264 47.3064 637.264 48.3989 622.44C48.999 614.293 49.5956 605.093 45.4791 597.655C43.9076 594.815 40.4041 592.168 39.7284 588.941C39.1096 585.984 42.4872 582.996 44.9674 585.639Z" fill="#AFB9C5"/>
<path fill-rule="evenodd" clip-rule="evenodd" d="M55.5731 759.727C55.5737 820.312 65.4607 852.057 117.657 852.057C169.854 852.057 179.741 820.312 179.741 759.727H55.5731Z" fill="#89C5CC"/>
<path d="M327.787 672.172H273.663C271.904 672.172 270.479 673.598 270.479 675.356V683.316C270.479 685.074 271.904 686.499 273.663 686.499H327.787C329.546 686.499 330.971 685.074 330.971 683.316V675.356C330.971 673.598 329.546 672.172 327.787 672.172Z" fill="#AFB9C5"/>
<path fill-rule="evenodd" clip-rule="evenodd" d="M286.398 626.007C293.232 603.857 297.062 580.509 297.886 555.964H302.317H305.156C305.98 580.509 309.81 603.857 316.644 626.007H326.991C340.619 626.007 351.666 637.054 351.666 650.682C351.666 664.309 340.619 675.356 326.991 675.356H274.459C260.831 675.356 249.784 664.309 249.784 650.682C249.784 637.054 260.831 626.007 274.459 626.007H286.398Z" fill="#DDE3E9"/>
<path fill-rule="evenodd" clip-rule="evenodd" d="M244.407 445.611C262.649 443.83 280.891 442.939 299.133 442.939C317.375 442.939 335.617 443.83 353.859 445.611L361.217 572.095C340.522 574.076 319.828 575.067 299.133 575.067C278.438 575.067 257.744 574.076 237.049 572.095L244.407 445.611Z" fill="#C5CFD6"/>
<path fill-rule="evenodd" clip-rule="evenodd" d="M233.865 686.499H365.993H399.423V852.056H365.993V721.521H233.865V852.056H200.436V686.499H233.865Z" fill="#F2F2F2"/>
<path fill-rule="evenodd" clip-rule="evenodd" d="M866.454 403.473C880.516 436.886 904.418 460.101 917.078 494.843C924.585 515.446 927.715 537.847 927.905 560.79C928.008 573.252 927.791 585.722 927.732 598.184C927.676 610.337 927.345 622.412 926.314 634.487C925.277 646.626 924.117 658.62 923.605 670.834C923.206 680.351 923.024 691.42 919.798 700.1C917.233 707.004 910.713 708.015 908.983 699.643C908.022 694.988 908.143 689.792 908.249 685.008C908.385 678.871 908.742 672.743 908.924 666.607C909.656 641.984 908.707 617.356 909.203 592.723C909.687 568.656 912.781 544.615 909.358 520.709C906.531 500.967 899.35 484.014 891.098 467.762C883.158 452.126 874.517 436.87 869.151 419.084C867.611 413.976 866.42 408.682 865.848 403.19C866.098 403.074 866.3 403.168 866.454 403.473Z" fill="#C1DEE2"/>
<path fill-rule="evenodd" clip-rule="evenodd" d="M862.622 469.392C865.407 471.402 866.962 474.344 868.844 477.246C871.185 480.853 873.936 484.111 876.276 487.721C881.155 495.248 885.441 503.238 889.888 511.07C898.332 525.937 904.742 541.781 907.917 558.98C911.209 576.804 912.096 595.202 913.476 613.291C914.941 632.464 916.415 651.777 916.609 671.024C916.696 679.647 917.162 688.801 916.127 697.363C915.482 702.694 913.077 707.237 907.653 707.194C896.134 707.102 890.725 694.343 888.466 683.879C885.14 668.47 884.476 652.103 885.003 636.345C885.639 617.345 888.937 598.629 890.364 579.702C891.876 559.665 891.022 539.982 884.133 521.116C880.653 511.582 876.613 502.276 872.986 492.806C871.442 488.773 870.177 484.631 868.091 480.876C865.77 476.7 862.89 472.908 861.072 468.41C861.589 468.737 862.106 469.065 862.622 469.392Z" fill="#89C5CC"/>
<path fill-rule="evenodd" clip-rule="evenodd" d="M995.324 429.436C995.677 429.162 996.03 428.887 996.384 428.612C995.366 432.899 993.529 436.38 992.124 440.299C990.861 443.821 990.221 447.808 989.371 451.658C987.374 460.701 985.066 469.541 983.18 478.661C979.446 496.708 980.152 516.151 982.601 536.174C984.914 555.088 988.571 573.973 990.314 592.882C991.759 608.565 992.38 624.737 991.002 639.699C990.065 649.861 986.995 661.994 978.631 660.968C974.693 660.485 972.639 655.746 971.811 650.395C970.482 641.801 970.204 632.766 969.686 624.221C968.529 605.147 968.299 586.132 968.07 567.254C967.854 549.443 967.259 531.28 968.449 513.918C969.597 497.164 973.187 482.068 978.32 468.139C981.024 460.8 983.6 453.29 986.638 446.296C988.095 442.941 989.874 439.976 991.332 436.624C992.504 433.928 993.436 431.161 995.324 429.436Z" fill="#C1DEE2"/>
<path fill-rule="evenodd" clip-rule="evenodd" d="M866.18 524.606C867.704 522.049 871.057 530.483 871.567 531.544C871.351 531.016 871.135 530.489 870.916 529.963C873.94 534.99 876.706 540.224 878.426 545.989C880.127 551.696 881.589 557.518 883.186 563.266C886.182 574.049 890.048 584.527 892.762 595.407C895.407 606.01 896.074 616.433 895.434 627.4C894.768 638.799 894.361 650.372 895.138 661.764C895.508 667.205 897.276 672.274 898.488 677.512C899.701 682.755 900.657 688.069 902.091 693.247C902.42 692.572 902.462 694.828 902.462 694.999C902.453 696.292 902.272 697.377 901.856 698.604C900.786 701.758 898.785 704.438 895.741 705.308C890.238 706.88 885.129 701.875 883.355 696.59C880.81 689.007 879.407 680.627 878.194 672.656C877.082 665.347 876.819 657.995 877.149 650.585C877.8 635.973 880.444 621.553 881.159 606.945C881.938 591.042 878.787 576.1 876.149 560.62C874.878 553.161 873.664 545.772 871.191 538.666C870.19 535.788 868.884 533.249 867.516 530.591C866.737 529.079 865.162 526.383 866.18 524.606Z" fill="#C1DEE2"/>
<path fill-rule="evenodd" clip-rule="evenodd" d="M910.822 499.765C910.191 517.984 909.103 536.065 906.674 554.092C904.195 572.488 901.348 590.821 898.963 609.234C896.641 627.157 894.207 645.378 894.531 663.551C894.77 676.937 892.551 699.583 907.418 706.189C922.475 712.88 925.705 684.308 926.694 674.877C928.588 656.783 927.975 638.499 927.055 620.306C926.111 601.634 924.536 583.058 922.583 564.454C920.413 543.79 918.711 523.033 917.345 502.31C916.669 492.06 916.503 481.827 916.689 471.575C916.865 461.9 916.498 452.125 913.058 442.939C912.878 443.07 912.699 443.201 912.519 443.331" fill="#69A1AC"/>
<path fill-rule="evenodd" clip-rule="evenodd" d="M988.556 557.484C985.848 561.429 983.118 565.336 980.561 569.514C975.985 576.991 971.848 585.305 970.603 595.995C967.998 618.367 970.088 642.53 970.592 665.586C970.695 670.298 970.099 674.867 971.956 679.351C973.64 683.417 976.788 686.516 979.789 686.499C986.213 686.463 985.232 670.732 985.243 663.808C985.262 651.673 983.902 639.414 984.019 627.29C984.136 615.279 984.866 603.234 986.608 591.826C988.371 580.279 990.953 569.192 994.36 558.845C994.833 557.409 998.227 546.313 995.021 548.225" fill="#89C5CC"/>
<path fill-rule="evenodd" clip-rule="evenodd" d="M960.187 438.164C955.964 438.164 955.99 459.218 955.863 461.922C955.404 471.682 955.512 481.443 955.221 491.205C954.586 512.506 953.806 533.995 950.606 555.051C948.883 566.386 946.886 577.67 944.738 588.919C942.583 600.201 939.691 611.468 938.274 622.893C936.913 633.875 937.682 645.074 937.869 656.11C938.055 667.214 938.391 678.339 939.845 689.345C940.204 692.062 940.625 694.769 941.076 697.469C941.451 699.719 941.232 702.51 941.867 704.648C942.884 708.073 947.246 709.194 950.183 708.659C958.131 707.208 963.208 697.228 965.923 689.937C969.39 680.627 971.229 670.528 973.045 660.717C975.102 649.601 976.307 638.316 976.872 626.999C978.022 604 976.547 580.975 974.899 558.049C973.983 545.299 972.924 532.605 971.304 519.934C969.691 507.317 967.622 494.756 966.274 482.102C965.295 472.906 964.331 463.698 963.697 454.467C963.545 452.266 963.417 438.164 960.187 438.164Z" fill="#69A1AC"/>
<path fill-rule="evenodd" clip-rule="evenodd" d="M954.9 591.206C954.212 569.101 945.326 472.006 943.304 445.275C942.799 438.584 937.932 410.727 937.3 403.142C935.588 405.286 935.735 438.656 935.753 446.324C935.773 453.909 934.833 461.368 934.349 468.912C933.855 476.609 922.475 576.023 920.999 583.42C918.061 598.134 916.094 613.235 914.578 628.28C913.1 642.944 910.803 658.415 912.78 673.156C913.235 676.55 913.954 679.889 915.125 683.007C916.39 686.375 917.257 689.49 918.272 693.015C919.906 698.692 922.862 703.675 927.403 706.019C936.715 710.825 941.715 699.946 944.25 690.474C948.298 675.348 950.896 659.975 952.114 644.089C953.462 626.514 955.451 608.903 954.9 591.206Z" fill="#89C5CC"/>
<path d="M997.975 656.253H859.48C857.722 656.253 856.297 657.679 856.297 659.437V797.932C856.297 799.69 857.722 801.116 859.48 801.116H997.975C999.734 801.116 1001.16 799.69 1001.16 797.932V659.437C1001.16 657.679 999.734 656.253 997.975 656.253Z" fill="white"/>
<path d="M853.113 672.172H843.562C841.803 672.172 840.378 673.598 840.378 675.356V848.873C840.378 850.631 841.803 852.056 843.562 852.056H853.113C854.871 852.056 856.297 850.631 856.297 848.873V675.356C856.297 673.598 854.871 672.172 853.113 672.172Z" fill="#C5CFD6"/>
<path d="M932.708 672.172H923.156C921.398 672.172 919.973 673.598 919.973 675.356V848.873C919.973 850.631 921.398 852.056 923.156 852.056H932.708C934.466 852.056 935.891 850.631 935.891 848.873V675.356C935.891 673.598 934.466 672.172 932.708 672.172Z" fill="#C5CFD6"/>
<path d="M1013.89 672.172H1004.34C1002.58 672.172 1001.16 673.598 1001.16 675.356V848.873C1001.16 850.631 1002.58 852.056 1004.34 852.056H1013.89C1015.65 852.056 1017.08 850.631 1017.08 848.873V675.356C1017.08 673.598 1015.65 672.172 1013.89 672.172Z" fill="#C5CFD6"/>
<path fill-rule="evenodd" clip-rule="evenodd" d="M449.698 494.333C444.014 487.661 440.167 479.485 440.809 470.322C442.662 443.923 479.41 449.73 486.559 463.055C493.707 476.379 492.858 510.176 483.619 512.558C479.935 513.507 472.086 511.181 464.098 506.366L469.112 541.838H439.506L449.698 494.333Z" fill="#B28B67"/>
<path fill-rule="evenodd" clip-rule="evenodd" d="M479.887 454.268C479.209 453.864 477.79 453.01 477.071 452.701C476.901 452.626 475.71 451.776 475.678 451.787C474.777 452.091 472.166 453.215 471.942 454.185C471.907 454.259 471.873 454.328 471.839 454.388C471.469 455.06 471.13 455.75 470.806 456.447C470.096 457.979 469.482 459.58 468.896 461.168C467.755 464.261 466.764 467.425 465.852 470.597C464.924 473.827 464.137 477.094 463.255 480.336C461.986 485.002 460.362 489.553 459.102 494.217C458.298 497.195 457.85 500.208 458.062 503.273C458.064 503.31 458.065 503.346 458.068 503.383C458.07 503.399 458.071 503.414 458.073 503.429C458.109 503.9 458.16 504.373 458.228 504.846C458.288 505.252 458.348 505.658 458.412 506.065C459.563 503.77 460.441 501.241 461.374 498.841C461.465 498.606 461.552 498.369 461.637 498.132C461.938 497.645 462.244 497.162 462.554 496.68C464.509 493.644 466.472 490.62 468.346 487.529C471.718 481.97 475.058 476.293 479.056 471.189C480.236 469.681 481.444 468.197 482.609 466.677C483.273 465.812 483.919 464.933 484.544 464.038C484.991 463.398 486.933 461.168 486.23 459.827C485.87 459.142 481.646 455.318 479.887 454.268Z" fill="#2C2C2C"/>
<path fill-rule="evenodd" clip-rule="evenodd" d="M477.285 452.812C477.945 453.034 477.624 451.662 476.985 451.179C474.026 448.941 462.713 448.13 452.868 450.173C446.272 451.542 438.602 454.95 433.334 459.331C428.585 463.28 425.319 469.611 423.637 475.728C421.872 482.151 421.605 488.847 422.588 495.433C422.804 496.88 423.269 498.258 423.527 499.674C423.819 501.269 423.968 502.804 424.487 504.356C424.806 505.305 425.346 506.236 425.617 507.192C425.927 508.282 425.738 509.29 425.512 510.399C425.144 512.206 424.688 514.009 424.039 515.735C423.065 518.326 421.883 520.753 421.142 523.442C420.156 527.021 416.031 538.665 419.045 541.838H476.43C474.985 537.897 470.647 533.258 469.769 529.039C469.252 526.553 469.006 521.125 468.952 520.928C467.659 512.013 465.134 507.756 463.552 506.212C461.971 504.667 459.865 504.192 459.756 502.851C459.307 497.309 461.511 491.999 463.128 486.826C465.054 480.661 466.465 474.343 468.451 468.199C469.33 465.478 473.861 451.662 477.285 452.812Z" fill="#8991DC"/>
<path fill-rule="evenodd" clip-rule="evenodd" d="M457.166 459.189C455.002 466.055 454.536 469.72 455.002 479.101H453.94C451.957 470.248 453.722 461.913 455.832 459.189H457.166ZM428.135 476.908C432.167 486.693 434.006 492.471 445.267 500.389L444.397 500.998C433.218 494.662 429.963 487.105 427.287 477.316L428.135 476.908ZM444.703 466.951C446.535 480.839 447.07 488.772 456.611 503.965L455.596 504.275C445.776 491.047 444.22 480.251 443.756 467.027L444.703 466.951ZM434.164 508.207L435.032 507.151C446.884 510.863 445.563 518.527 460.49 526.288L459.243 527.044C446.173 521.65 443.117 510.08 434.164 508.207Z" fill="black" fill-opacity="0.2"/>
<path fill-rule="evenodd" clip-rule="evenodd" d="M385.996 696.036H481.296L493.783 849H351.922L385.996 696.036Z" fill="#C5CFD6"/>
<path fill-rule="evenodd" clip-rule="evenodd" d="M385.996 696.036H415.306L432.849 849H351.922L385.996 696.036Z" fill="black" fill-opacity="0.1"/>
<path fill-rule="evenodd" clip-rule="evenodd" d="M589.945 669.83C600.106 663.729 617.153 671.568 617.141 680.294C617.106 706.402 593.28 829.449 592.036 837.228C590.792 845.006 577.465 847.061 576.689 837.253C575.454 821.648 573.16 767.625 575.456 742.619C576.403 732.298 577.424 722.468 578.428 713.698C565.925 736.276 546.589 768.603 520.42 810.677L506.214 804.187C517.37 767.431 526.517 741.482 533.657 726.341C545.881 700.415 557.344 678.213 562.168 670.392C569.757 658.091 582.966 662.383 589.945 669.83Z" fill="#B28B67"/>
<path fill-rule="evenodd" clip-rule="evenodd" d="M507.229 783.775L555.99 668.265C567.671 649.474 600.422 672.088 596.438 682.987C587.394 707.729 541.399 787.832 538.705 795.204L507.229 783.775Z" fill="#1F28CF"/>
<path fill-rule="evenodd" clip-rule="evenodd" d="M504.531 796.897C501.492 799.394 499.515 801.434 498.599 803.017C497.486 804.941 496.182 807.935 494.687 811.999C496.921 813.29 517.001 824.892 554.927 846.807C559.485 842.539 560.196 839.225 557.062 836.864C553.928 834.503 551.342 832.511 549.303 830.89L528.521 802.238C528.121 801.687 527.35 801.564 526.798 801.963C526.789 801.97 526.779 801.977 526.77 801.984L522.446 805.307C518.482 804.959 515.523 804.221 513.571 803.093C511.985 802.176 510.165 800.271 508.111 797.376L508.111 797.376C507.323 796.265 505.783 796.003 504.671 796.79C504.624 796.824 504.577 796.86 504.531 796.897Z" fill="#810F0F"/>
<path fill-rule="evenodd" clip-rule="evenodd" d="M573.569 830.992C572.189 834.676 571.499 837.433 571.499 839.262C571.499 841.486 571.87 844.732 572.611 849C575.191 849 598.383 849 642.187 849C643.995 843.023 642.951 839.796 639.056 839.319C635.16 838.843 631.924 838.412 629.348 838.028L597.009 823.611C596.387 823.334 595.658 823.614 595.38 824.236C595.376 824.247 595.371 824.257 595.367 824.268L593.288 829.31C589.682 830.993 586.751 831.834 584.497 831.834C582.665 831.834 580.135 831.094 576.908 829.615L576.908 829.615C575.669 829.047 574.204 829.591 573.637 830.829C573.612 830.883 573.59 830.937 573.569 830.992Z" fill="#810F0F"/>
<path fill-rule="evenodd" clip-rule="evenodd" d="M620.559 689.169C620.559 721.941 604.995 798.387 604.985 805.603L571.499 805.628C576.4 737.417 578.138 702.944 576.713 702.209C574.575 701.107 489.066 710.747 463.42 710.747C426.439 710.747 411.141 687.426 409.9 644.226H483.158C498.074 645.822 575.877 661.515 604.771 666.909C617.141 669.219 620.559 680.141 620.559 689.169Z" fill="#2B44FF"/>
<path fill-rule="evenodd" clip-rule="evenodd" d="M544.968 628.757L579.913 662.847C590.081 667.184 598.412 671.973 604.906 677.214C606.366 678.976 607.956 682.351 601.085 680.84C594.214 679.33 586.918 678.05 585.627 680.285C584.335 682.52 588.141 685.944 585.754 688.868C584.163 690.818 578.811 684.616 569.7 670.264L533.362 648.84L544.968 628.757ZM374.089 597.904L401.101 598.006C380.528 664.661 369.607 699.56 368.338 702.704C365.483 709.778 371.524 720.552 374.107 726.342C365.694 730.106 366.59 716.164 355.977 721.102C346.29 725.608 338.922 733.774 327.73 726.869C326.354 726.02 324.846 722.823 328.489 720.325C337.566 714.101 350.645 703.209 352.412 699.624C354.822 694.734 362.048 660.828 374.089 597.904Z" fill="#B28B67"/>
<path fill-rule="evenodd" clip-rule="evenodd" d="M456.4 521.277L467.067 519.448C483.87 578.847 570.207 619.336 575.507 641.541C577.451 649.684 571.59 653.8 574.617 656.28L560.752 666.43C558.405 663.691 553.394 668.702 542.931 665.197C532.467 661.691 456.4 591.611 456.4 521.277Z" fill="#DB2721"/>
<path fill-rule="evenodd" clip-rule="evenodd" d="M474.343 529.174C473.113 607.814 518.573 627.874 508.447 659.421C500.085 685.472 420.049 713.477 406.199 687.941C400.593 677.604 398.049 665.103 397.761 651.511C394.221 661.953 391.421 670.942 389.362 678.479C385.809 691.481 372.037 693.548 372.037 698.556L353.891 693.548C355.122 686.743 346.568 683.429 348.861 668.227C359.138 600.112 386.75 550.738 431.696 520.104L432.161 513.454C432.352 510.735 434.709 508.686 437.428 508.876L470.654 511.199C473.372 511.389 475.422 513.747 475.232 516.466L474.343 529.174Z" fill="#FF4133"/>
<path fill-rule="evenodd" clip-rule="evenodd" d="M817.663 421.437C821.256 413.76 822.758 405.148 819.834 396.764C811.407 372.608 778.701 387.416 775.436 401.673C772.17 415.93 781.543 447.244 790.74 447.106C794.409 447.05 801.118 442.875 807.325 436.342L811.669 470.717L839.207 463.153L817.663 421.437Z" fill="#D4A181"/>
<path fill-rule="evenodd" clip-rule="evenodd" d="M807.794 422.316C813.008 427.958 819.095 431.622 823.834 430.34C832.835 427.904 835.973 414.162 832.467 401.249C832.343 400.796 832.212 400.347 832.073 399.905C843.365 403.849 854.194 414.716 866.792 411.307C883.933 406.668 881.37 370.324 857.423 376.805C841.137 381.212 833.769 385.749 827.817 391.122C825.415 387.659 822.464 385 819.314 383.438C818.517 382.917 817.402 382.514 816.029 382.232C815.181 382.029 814.327 381.907 813.475 381.873C808.896 381.473 802.573 382.028 795.773 383.616C794.503 383.912 793.264 384.234 792.063 384.576C790.323 378.247 783.778 374.511 777.426 376.23C771.061 377.953 767.3 384.498 769.025 390.85C770.693 396.992 776.881 400.704 783.043 399.384C786.809 399.514 791.486 399.091 796.527 398.083C796.537 400.017 796.832 402.137 797.461 404.453C798.016 406.498 798.831 408.606 799.846 410.695C800.574 409.131 801.784 407.911 803.241 407.517C807.318 406.413 811.065 408.992 812.03 412.546C813.254 417.056 811.532 421.025 807.794 422.316Z" fill="#191847"/>
<path fill-rule="evenodd" clip-rule="evenodd" d="M874.542 569.039L830.769 719.878L810.18 833.13H789.515L810.143 569.039H874.542Z" fill="#BA8B72"/>
<path fill-rule="evenodd" clip-rule="evenodd" d="M894.214 569.039C891.16 647.399 892.364 690.139 893.048 697.258C893.732 704.377 897.612 752.058 924.058 835.52H902.564C867.542 755.453 855.316 707.772 851.299 697.258C847.282 686.744 835.419 644.004 818.099 569.039H894.214Z" fill="#D4A181"/>
<path fill-rule="evenodd" clip-rule="evenodd" d="M875.482 569.039C864.096 620.943 844.402 703.795 816.402 817.595H786.178C783.945 700.79 793.442 623.913 809.888 569.039H875.482Z" fill="#69A1AC"/>
<path fill-rule="evenodd" clip-rule="evenodd" d="M894.367 569.039C891.376 647.399 899.128 724.599 923.141 818.816H890.893C855.806 739.943 830.659 663.124 813.472 569.039H894.367Z" fill="#89C5CC"/>
<path fill-rule="evenodd" clip-rule="evenodd" d="M927.121 851.055L925.935 831.935C918.992 833.966 910.295 833.169 899.845 829.545C888.608 837.505 874.463 842.939 857.409 845.85L857.409 845.85C856.108 846.072 855.233 847.307 855.455 848.608C855.47 848.692 855.489 848.776 855.512 848.858L857.151 854.64H899.845H924.749L927.121 851.055Z" fill="#191847"/>
<path fill-rule="evenodd" clip-rule="evenodd" d="M814.793 851.055L813.607 831.935C806.663 833.966 797.967 833.169 787.516 829.545C776.28 837.505 762.135 842.939 745.081 845.85L745.081 845.85C743.78 846.072 742.905 847.307 743.127 848.608C743.141 848.692 743.16 848.776 743.183 848.858L744.823 854.64H787.516H812.421L814.793 851.055Z" fill="#191847"/>
<path fill-rule="evenodd" clip-rule="evenodd" d="M788.942 501.711L744.164 486.722C735.94 479.899 728.138 474.854 720.758 471.585C718.597 471.108 714.989 471.23 719.325 476.468C723.66 481.705 727.984 487.409 726.631 489.504C725.278 491.599 720.649 489.84 719.186 493.18C718.211 495.407 725.913 497.27 742.291 498.768L776.782 520.54L788.942 501.711ZM728.461 531.957L708.786 525.343C704.559 516.248 700.692 511.983 697.186 512.55C694.277 511.783 701.12 523.007 695.842 522.873C690.564 522.739 676.485 515.741 674.681 517.997C672.012 521.334 676.364 529.335 680.451 532.971C688.089 539.766 693.723 541.548 707.084 542.811C714.07 543.471 721.929 545.894 730.663 550.081L728.461 531.957Z" fill="#D4A181"/>
<path fill-rule="evenodd" clip-rule="evenodd" d="M807.991 493.351C793.681 495.748 774.095 496.14 751.465 486.91L746.667 506.072C763.174 517.435 784.929 525.31 802.077 521.753C815.591 518.949 819.594 501.338 807.991 493.351Z" fill="#2026A2"/>
<path fill-rule="evenodd" clip-rule="evenodd" d="M793.808 525.4C779.334 531.895 753.125 532 715.182 525.713C709.618 545.595 707.869 559.371 709.934 567.042C743.398 577.528 770.9 579.945 792.59 576.539C794.203 589.476 797.951 601.389 805.192 611.59C820.079 632.56 879.373 600.027 901.339 600.396C906.885 554.882 878.05 541.963 873.077 514.37C867.631 484.152 835.005 441.989 831.434 442.63L798.859 448.474C801.204 471.878 796.723 498.938 793.808 525.4Z" fill="#1F28CF"/>
<path fill-rule="evenodd" clip-rule="evenodd" d="M180.038 404.974C172.792 400.027 166.942 393.152 165.202 384.159C160.188 358.246 197.403 354.271 207.789 365.244C218.176 376.217 226.074 408.995 217.709 413.695C214.374 415.57 206.145 415.372 197.139 412.815L211.168 445.679L182.394 453.389L180.038 404.974Z" fill="#784931"/>
<path fill-rule="evenodd" clip-rule="evenodd" d="M192.678 354.31C188.428 354.176 182.613 355.302 180.285 356.218C180.781 352.609 180.355 348.85 178.97 345.45C177.625 342.146 175.304 339.648 173.061 336.98C172.027 335.75 170.908 334.551 169.51 333.773C168.085 332.981 166.46 332.641 164.866 332.698C163.235 332.757 161.637 333.216 160.184 333.949C159.541 334.273 159.013 334.745 158.392 335.096C157.755 335.455 157.31 335.119 156.7 334.826C155.229 334.12 153.34 334.083 151.779 334.306C150.027 334.558 148.334 335.283 146.863 336.27C145.432 337.231 144.153 338.51 143.355 340.089C143 340.792 142.712 341.56 142.604 342.353C142.56 342.678 142.586 342.857 142.32 343.043C142.074 343.215 141.757 343.303 141.501 343.473C139.029 345.112 137.264 347.815 136.715 350.825C136.395 352.581 136.78 355.418 137.7 358.468C138.62 361.517 143.571 368.791 146.976 371.015C150.015 373.001 153.914 373.804 157.434 373.67C155.901 376.754 155.27 380.265 155.036 383.726C154.781 387.486 155.011 391.259 155.719 394.978C156.392 398.511 157.35 402.181 159.077 405.351C160.694 408.316 163.03 410.478 166.209 411.395C167.665 411.815 169.165 412.021 170.661 412.177C172.135 412.33 173.609 412.468 175.086 412.38C177.882 412.213 180.911 411.301 182.392 408.663C182.926 407.712 183.482 406.548 183.772 405.484C183.876 405.101 183.934 404.853 183.613 404.592C183.228 404.28 182.694 404.105 182.252 403.898C179.731 402.72 177.838 400.753 176.782 398.096C175.711 395.4 175.502 391.605 177.907 389.659C180.876 387.257 185.048 387.983 188.474 388.785C188.554 383.99 190.093 379.28 193.644 376.139C197.572 372.664 202.704 371.006 206.844 367.818C207.923 366.987 209.006 366.083 209.624 364.813C209.882 364.283 210.171 363.607 210.168 362.998C210.163 362.198 209.509 361.702 208.977 361.22C206.157 358.664 196.928 354.445 192.678 354.31Z" fill="#191847"/>
<path fill-rule="evenodd" clip-rule="evenodd" d="M188.956 553.583L233.956 710.886L266.788 826.828H290.734L255.845 553.583H188.956Z" fill="#191847"/>
<path fill-rule="evenodd" clip-rule="evenodd" d="M176.922 553.583C175.881 634.659 172.332 678.88 171.239 686.246C170.146 693.612 153.622 740.473 121.667 826.828H146.473C187.155 743.985 209.865 697.124 214.602 686.246C219.34 675.368 233.96 631.147 255.981 553.583H176.922Z" fill="#2F3676"/>
<path fill-rule="evenodd" clip-rule="evenodd" d="M119.449 849.274L120.69 823.209H146.756C159.115 831.898 175.25 838.931 195.162 844.31V849.274H147.997L131.861 846.792V849.274H119.449Z" fill="#191847"/>
<path fill-rule="evenodd" clip-rule="evenodd" d="M263.428 849.274L264.669 823.209H290.734C303.093 831.898 319.229 838.931 339.141 844.31V849.274H291.975L275.84 846.792V849.274H263.428Z" fill="#191847"/>
<path fill-rule="evenodd" clip-rule="evenodd" d="M290.128 520.814L332.515 545.435C343.494 547.177 352.789 549.804 360.401 553.317C362.254 554.673 364.625 557.565 357.55 557.768C350.475 557.971 343.041 558.501 342.323 560.986C341.604 563.471 346.15 565.872 344.529 569.293C343.448 571.574 336.719 566.85 324.342 555.123L283.667 543.144L290.128 520.814ZM120.669 536.806L142.871 536.117C128.478 590.387 120.698 619.118 119.53 622.31C116.903 629.491 123.345 640.056 126.141 645.758C117.811 649.826 118.234 635.842 107.733 641.163C98.1478 646.02 91.0186 654.455 79.5293 647.945C78.1168 647.145 76.4912 644 80.0686 641.369C88.9811 634.816 101.759 623.448 103.413 619.797C105.668 614.818 111.42 587.154 120.669 536.806Z" fill="#B28B67"/>
<path fill-rule="evenodd" clip-rule="evenodd" d="M195.671 433.028L208.307 426.248C234.481 468.274 269.338 507.256 321.201 536.229L313.382 557.456C269.412 541.124 228.488 529.629 207 497.277C199.787 486.418 197.732 447.168 195.671 433.028Z" fill="#C5CFD6"/>
<path fill-rule="evenodd" clip-rule="evenodd" d="M172.043 568.461C211.186 565.74 241.433 560.407 262.785 552.461C265.43 551.477 265.058 546.846 263.245 543.979C235.014 499.322 214.069 459.707 208.173 426.271C204.871 428.728 198.579 430.118 189.298 430.442C171.032 469.19 166.814 510.698 172.043 568.461Z" fill="#323337"/>
<path fill-rule="evenodd" clip-rule="evenodd" d="M182.737 428.621L192.881 426.832C197.681 440.239 238.137 626.114 271.932 683.292L147.492 705.234C140.299 648.664 149.699 577.527 161.314 517.339C145.312 538.058 133.884 570.4 127.028 614.365L102.669 612.521C106.897 535.152 132.899 474.249 180.674 429.811C180.744 429.522 180.813 429.235 180.882 428.948L181.779 428.79C182.073 428.521 182.367 428.252 182.661 427.984L182.737 428.621V428.621Z" fill="#DDE3E9"/>
</svg>
