<?xml version="1.0" standalone="no"?>
<!DOCTYPE svg PUBLIC "-//W3C//DTD SVG 20010904//EN"
 "http://www.w3.org/TR/2001/REC-SVG-20010904/DTD/svg10.dtd">
<svg version="1.0" xmlns="http://www.w3.org/2000/svg"
 width="700.000000pt" height="700.000000pt" viewBox="0 0 700.000000 700.000000"
 preserveAspectRatio="xMidYMid meet">
<metadata>
Created by potrace 1.11, written by Peter Selinger 2001-2013
</metadata>
<g transform="translate(0.000000,700.000000) scale(0.100000,-0.100000)"
fill="#000000" stroke="none">
<path d="M5520 6872 c-21 -7 -88 -37 -200 -90 -52 -24 -124 -57 -159 -73 -255
-117 -276 -134 -272 -231 3 -64 101 -129 184 -122 38 4 59 12 251 103 60 29
112 49 117 44 4 -4 10 -26 13 -48 6 -36 11 -68 20 -115 1 -8 6 -37 11 -65 17
-110 68 -162 167 -169 114 -9 187 70 167 179 -4 22 -18 94 -30 160 -12 66 -22
125 -23 130 -1 6 -10 56 -20 112 -20 108 -37 137 -95 168 -31 16 -106 26 -131
17z"/>
<path d="M3327 5764 c-1 -1 -38 -5 -82 -9 -44 -3 -89 -8 -100 -10 -11 -2 -40
-7 -65 -10 -178 -21 -463 -99 -660 -180 -70 -29 -274 -130 -327 -161 -17 -10
-53 -32 -80 -48 -52 -31 -232 -157 -272 -191 -400 -333 -666 -686 -851 -1131
-36 -86 -52 -133 -99 -279 -18 -57 -60 -230 -71 -295 -32 -193 -34 -402 -5
-540 3 -14 7 -36 10 -50 2 -14 14 -54 26 -90 96 -293 274 -481 519 -546 97
-26 289 -24 401 4 209 53 490 198 700 361 26 20 60 45 75 56 25 18 90 71 104
85 3 3 39 34 80 69 73 63 399 385 490 486 25 28 90 102 144 165 55 63 111 129
125 145 59 67 227 282 360 460 78 105 148 197 154 206 17 21 47 64 115 161 32
45 76 108 97 138 193 273 526 793 532 830 6 42 -12 91 -45 123 -64 61 -477
192 -702 222 -14 2 -41 6 -60 9 -83 12 -196 19 -348 20 -89 1 -164 1 -165 0z"/>
<path d="M5304 5610 c-34 -22 -76 -77 -124 -165 -18 -33 -155 -276 -305 -540
-149 -264 -284 -502 -299 -530 -16 -27 -75 -131 -131 -230 -57 -99 -113 -198
-125 -220 -12 -22 -131 -231 -263 -465 -132 -234 -259 -459 -282 -500 -24 -41
-52 -91 -63 -110 -12 -19 -29 -51 -39 -70 -9 -19 -19 -37 -22 -40 -6 -5 -17
-23 -58 -99 -14 -25 -33 -59 -43 -76 -10 -16 -29 -50 -43 -75 -80 -145 -228
-407 -237 -420 -5 -8 -19 -33 -31 -55 -12 -21 -87 -154 -167 -295 -80 -140
-159 -280 -175 -310 -17 -30 -52 -93 -79 -139 -26 -46 -48 -86 -48 -88 0 -3
-8 -17 -19 -31 -10 -15 -33 -54 -51 -87 -18 -33 -83 -148 -143 -255 -61 -107
-121 -215 -135 -240 -14 -25 -33 -56 -42 -70 -40 -60 -72 -140 -72 -185 0
-124 138 -219 270 -183 24 6 55 29 90 65 28 30 52 59 52 63 0 5 18 35 39 67
22 32 131 200 242 373 171 267 416 636 521 785 228 326 448 612 618 805 27 30
58 66 70 80 227 263 540 486 790 565 115 36 146 40 280 39 133 -1 208 -22 301
-85 175 -118 285 -327 350 -662 31 -167 223 -200 294 -51 23 48 55 244 73 449
14 162 7 551 -13 679 -2 11 -9 55 -15 96 -6 41 -16 91 -20 110 -5 19 -11 46
-14 60 -40 216 -158 518 -309 787 -75 133 -284 411 -389 516 -41 41 -54 187
-31 361 7 56 16 144 19 196 6 89 4 97 -18 130 -45 67 -141 90 -204 50z"/>
</g>
</svg>
